<svg width="48" height="48" viewBox="0 0 48 48" fill="none" xmlns="http://www.w3.org/2000/svg">
<mask id="mask0_5300_2635" style="mask-type:alpha" maskUnits="userSpaceOnUse" x="0" y="0" width="48" height="48">
<path d="M0 0H48V48H0V0Z" fill="#D9D9D9"/>
</mask>
<g mask="url(#mask0_5300_2635)">
<path d="M24 0C34.1994 0 42.2682 4.69367 45.4864 6.89062C46.4717 7.5633 47.0058 8.71165 46.9766 9.9043C46.1599 43.1823 24 48 24 48C24 48 2.1847 43.2576 1.04594 10.6797L1.02348 9.9043C0.996109 8.78631 1.46375 7.70727 2.33402 7.02246L2.51371 6.89062C5.73183 4.69367 13.8006 0 24 0ZM24 1C14.0927 1 6.22465 5.56809 3.07719 7.7168C2.39782 8.18082 2.00081 8.99418 2.0225 9.87988C2.42485 26.2738 8.07136 35.5394 13.5069 40.707C16.2362 43.3019 18.9369 44.8863 20.9463 45.8203C21.9509 46.2873 22.7816 46.5909 23.3545 46.7764C23.635 46.8672 23.8534 46.9294 24 46.9688C24.1466 46.9294 24.3651 46.8672 24.6455 46.7764C25.2185 46.5909 26.0492 46.2873 27.0537 45.8203C29.0632 44.8863 31.7639 43.3019 34.4932 40.707C39.9287 35.5394 45.5752 26.2738 45.9776 9.87988C45.9993 8.99418 45.6023 8.18082 44.9229 7.7168C41.7754 5.56809 33.9074 1 24 1ZM24 3.5C29.5943 3.5 34.5607 5.18852 38.2452 6.99219C39.5114 7.61208 40.5973 8.23221 41.4717 8.77441C42.2124 9.23367 42.6327 10.0598 42.5987 10.9189C42.0213 25.4668 37.1551 33.7859 32.5909 38.46L32.1504 38.9014C29.6352 41.3619 27.168 42.8205 25.4082 43.6494C24.9475 43.8664 24.5341 44.0393 24.1817 44.1768C24.0649 44.2223 23.9352 44.2223 23.8184 44.1768C23.466 44.0393 23.0525 43.8664 22.5918 43.6494C20.9421 42.8724 18.6703 41.5422 16.3204 39.3516L15.8496 38.9014C11.1632 34.3166 5.99649 25.9361 5.40043 10.9189C5.36634 10.0598 5.78659 9.23358 6.52738 8.77441C7.40212 8.23223 8.48839 7.61222 9.75492 6.99219C13.4394 5.18852 18.4058 3.5 24 3.5ZM24 4.5C18.6034 4.5 13.7893 6.13077 10.1944 7.89062C8.96128 8.4943 7.90374 9.09816 7.05375 9.625C6.62952 9.88822 6.37934 10.3683 6.39945 10.8789C6.9861 25.659 12.0574 33.7925 16.5489 38.1865C18.971 40.556 21.3407 41.9552 23.0176 42.7451C23.3775 42.9146 23.7081 43.0535 24 43.1709C24.292 43.0535 24.6225 42.9146 24.9825 42.7451C26.6594 41.9552 29.0291 40.556 31.4512 38.1865C35.9427 33.7925 41.013 25.659 41.5996 10.8789C41.6198 10.3681 41.3689 9.88728 40.9444 9.62402C40.0947 9.0972 39.0382 8.49399 37.8057 7.89062C34.2107 6.13077 29.3967 4.5 24 4.5Z" fill="#633126"/>
<path d="M17.5149 19.4824L24.586 26.5535L22.4646 28.6748L15.3936 21.6037L17.5149 19.4824Z" fill="#633126"/>
<path d="M30.95 15.9463L33.0713 18.0676L22.4647 28.6742L20.3433 26.5529L30.95 15.9463Z" fill="#633126"/>
</g>
</svg>
