<svg width="96" height="96" viewBox="0 0 96 96" fill="none" xmlns="http://www.w3.org/2000/svg">
<mask id="mask0_5545_2590" style="mask-type:alpha" maskUnits="userSpaceOnUse" x="0" y="0" width="96" height="96">
<path d="M0 0H96V96H0V0Z" fill="#D9D9D9"/>
</mask>
<g mask="url(#mask0_5545_2590)">
<path d="M88.4987 42.6741C89.4019 45.0548 89.7754 47.6038 89.619 50.3212C89.4626 53.0386 88.7934 55.7109 87.6114 58.3381C86.4295 60.9652 84.8736 63.2386 82.9439 65.1582C81.0141 67.0777 78.8589 68.4892 76.4782 69.3924C76.1354 69.5225 75.8063 69.5166 75.4911 69.3748C75.1758 69.2329 74.9531 68.9906 74.8231 68.6478L73.0671 64.0197C72.966 63.7531 72.9661 63.4807 73.0676 63.2025C73.169 62.9244 73.3363 62.7193 73.5694 62.5872L77.2872 60.327C77.5775 60.1733 77.8382 60.0853 78.0694 60.0629C78.3006 60.0406 78.5213 60.0767 78.7314 60.1712L82.5825 61.8801C83.1427 61.2318 83.652 60.5212 84.1103 59.7481C84.5687 58.9751 84.9834 58.1587 85.3544 57.2989C85.7208 56.4845 86.0335 55.6578 86.2925 54.8187C86.5515 53.9797 86.7532 53.1188 86.8977 52.2361L83.1933 50.5696C82.9569 50.4632 82.7434 50.2882 82.5529 50.0445C82.3625 49.8009 82.2357 49.5385 82.1726 49.2574L81.4767 45.0115C81.4518 44.7159 81.5067 44.4445 81.6417 44.1972C81.7766 43.95 81.9679 43.7793 82.2155 43.6854L86.8436 41.9295C87.1864 41.7994 87.5154 41.8053 87.8307 41.9471C88.146 42.089 88.3686 42.3313 88.4987 42.6741Z" fill="#633126"/>
<path d="M84 47C84 39.8203 78.1797 34 71 34C63.8203 34 58 39.8203 58 47C58 54.1797 63.8203 60 71 60V61C63.268 61 57 54.732 57 47C57 39.268 63.268 33 71 33C78.732 33 85 39.268 85 47C85 54.732 78.732 61 71 61V60C78.1797 60 84 54.1797 84 47Z" fill="#633126"/>
<path d="M41.5 54C41.5 51.3644 42.1909 49.1247 43.334 47.2402L44.1895 47.7598C43.1406 49.4889 42.5 51.5487 42.5 54C42.5 59.1885 45.208 62.5867 48.6416 64.752C51.8786 66.7931 55.7395 67.7188 58.4941 67.9609L59.0293 68.001L59.4482 68.0254L59.4971 68.4424C59.9974 72.7785 61.0982 83.3578 61.499 90.9736L60.501 91.0264C60.1139 83.6719 59.0674 73.5245 58.5488 68.9678C55.6663 68.7346 51.5667 67.7784 48.1084 65.5977C44.4587 63.2962 41.5 59.6114 41.5 54ZM60.042 39.498C56.8968 39.7601 52.0757 40.9212 48.2842 43.541L47.7158 42.7188C51.6928 39.9708 56.6973 38.7738 59.958 38.502L60.042 39.498Z" fill="#633126"/>
<path d="M87.4238 55.0137C88.1261 54.9056 88.8648 55.1406 89.5303 55.5732C90.2012 56.0096 90.8378 56.6706 91.3594 57.4922C92.4043 59.1384 93.0166 61.4772 92.4902 64.1055C91.9698 66.7035 90.9228 68.2742 90.0195 69.4365C89.558 70.0304 89.1847 70.4581 88.9023 70.8897C88.635 71.2983 88.5024 71.6377 88.5 71.9981L89 84.9805L88 85.0195L87.5 72.0273V72.0078C87.5 71.3719 87.7425 70.8379 88.0664 70.3428C88.3778 69.8669 88.817 69.3553 89.2305 68.8232C90.0772 67.7336 91.0302 66.3037 91.5098 63.9092C91.9833 61.5451 91.4289 59.4673 90.5156 58.0283C90.0581 57.3075 89.5175 56.7582 88.9854 56.4121C88.4478 56.0625 87.9571 55.9434 87.5762 56.002L87.4238 55.0137Z" fill="#633126"/>
<path d="M80.999 85.9795C81.0805 87.3434 81.4933 89.3828 82.4473 91.0654C83.3967 92.7398 84.8399 94 87 94C88.3762 94 89.4413 93.5464 90.2842 92.7598C91.139 91.9619 91.7905 90.7965 92.2754 89.3418C93.2478 86.4246 93.5 82.4954 93.5 78.5C93.5 72.1886 91.5245 68.3803 90.6201 67.3252L91.3799 66.6748C92.4755 67.9533 94.5 72.0118 94.5 78.5C94.5 82.5046 94.2522 86.5754 93.2246 89.6582C92.7095 91.2035 91.986 92.5381 90.9658 93.4902C89.9337 94.4535 88.6238 95 87 95C84.3602 95 82.636 93.4268 81.5771 91.5596C80.525 89.7042 80.0874 87.4986 80.001 86.0293L80 86.0215V86.0127L79.5 67.0127L80.5 66.9873L80.999 85.9795Z" fill="#633126"/>
<path d="M57.5009 47L57.622 47.4854C56.6094 47.7385 54.5714 48.2217 52.9062 49.3516C52.0805 49.9119 51.3676 50.6178 50.916 51.5137C50.4675 52.4035 50.2591 53.5141 50.4931 54.918C50.7069 56.2004 51.5835 57.0891 52.8994 57.7031C54.2248 58.3216 55.9356 58.6277 57.6611 58.751C59.3788 58.8737 61.0716 58.8124 62.3388 58.7197C62.9714 58.6734 63.4961 58.6194 63.8613 58.5771C64.0437 58.556 64.1867 58.5382 64.2832 58.5254C64.3312 58.519 64.3682 58.5142 64.3925 58.5107C64.4043 58.5091 64.4131 58.5077 64.4189 58.5068C64.4219 58.5064 64.4244 58.5061 64.4257 58.5059H64.4277C64.4284 58.5104 64.4351 58.5553 64.5009 59L64.5732 59.4951H64.5703C64.5684 59.4954 64.5658 59.4956 64.5625 59.4961C64.5554 59.4971 64.5446 59.4991 64.5312 59.501C64.5045 59.5047 64.4655 59.5099 64.415 59.5166C64.3133 59.5301 64.1649 59.5495 63.9765 59.5713C63.5995 59.6149 63.0607 59.6703 62.4121 59.7178C61.1167 59.8126 59.3721 59.8763 57.5898 59.749C55.8153 59.6223 53.9636 59.3033 52.4765 58.6094C50.9799 57.9109 49.7931 56.7996 49.5068 55.082C49.2409 53.4862 49.471 52.1589 50.0224 51.0645C50.5709 49.9762 51.4205 49.1505 52.3447 48.5234C54.1794 47.2785 56.3915 46.7615 57.3789 46.5146L57.5009 47Z" fill="#633126"/>
<path d="M54.5596 29.8474C54.9835 29.3269 55.5584 29.1919 56.1208 29.2713C56.6535 29.3466 57.1984 29.6132 57.6862 29.9178C58.6563 30.5235 59.6275 31.4346 60.068 31.7935L59.4365 32.5688C58.9078 32.1381 58.0567 31.328 57.1566 30.766C56.7096 30.487 56.3074 30.3076 55.9819 30.2614C55.6862 30.2196 55.4911 30.2872 55.3349 30.4789C55.1788 30.6706 55.1521 30.8753 55.2529 31.1564C55.364 31.4659 55.621 31.8235 55.9848 32.2047C56.7174 32.9725 57.6828 33.6417 58.2117 34.0726L57.5802 34.848C57.14 34.4893 56.0507 33.7223 55.2613 32.8951C54.8643 32.479 54.493 31.9992 54.3113 31.4929C54.1197 30.9582 54.1357 30.3678 54.5596 29.8474Z" fill="#633126"/>
<path d="M60.3859 24.1441C60.9672 23.8085 61.5525 23.8867 62.0499 24.161C62.5209 24.4209 62.9354 24.8639 63.283 25.3221C63.9741 26.2332 64.5577 27.4303 64.8417 27.9223L63.9757 28.4223C63.6348 27.8318 63.1275 26.7719 62.4862 25.9264C62.1678 25.5066 61.8557 25.1959 61.5679 25.037C61.3064 24.8927 61.1 24.8865 60.8859 25.0101C60.6718 25.1337 60.574 25.3155 60.5682 25.6141C60.562 25.9428 60.675 26.3685 60.8793 26.8542C61.2909 27.8324 61.9551 28.8012 62.2961 29.3921L61.4301 29.8921C61.1463 29.4003 60.4011 28.296 59.9576 27.242C59.7345 26.7119 59.5582 26.1315 59.5686 25.5936C59.5797 25.0257 59.8046 24.4797 60.3859 24.1441Z" fill="#633126"/>
<path d="M70.5567 23.818C71.2109 23.9682 71.5862 24.4241 71.7636 24.9637C71.9314 25.4749 71.9332 26.0815 71.8756 26.6537C71.7611 27.7916 71.3731 29.0655 71.2459 29.6193L70.2712 29.3955C70.4239 28.731 70.7743 27.6094 70.8806 26.5536C70.9333 26.0293 70.9164 25.5892 70.814 25.2768C70.7208 24.9931 70.5739 24.848 70.333 24.7926C70.092 24.7373 69.8965 24.8038 69.6889 25.0185C69.4605 25.255 69.2533 25.6436 69.0721 26.1384C68.7073 27.135 68.5337 28.2967 68.381 28.9616L67.4063 28.7378C67.5335 28.1844 67.7399 26.8683 68.1331 25.7946C68.3308 25.2545 68.597 24.7094 68.971 24.3227C69.3659 23.9144 69.9025 23.6678 70.5567 23.818Z" fill="#633126"/>
<path d="M43.4958 9.05483C34.1232 -0.317754 18.9273 -0.317754 9.5547 9.05483C0.182116 18.4274 0.182116 33.6234 9.5547 42.996C18.102 51.5433 31.4937 52.2961 40.8932 45.2533L41.3379 44.9122L41.7964 44.5517L47.3186 46.8187L45.0516 41.2965L45.4121 40.838C52.8178 31.4204 52.1787 17.7377 43.4958 9.05483ZM44.2029 8.34772C53.2481 17.3929 53.9135 31.6451 46.1986 41.4561L49.1527 48.6528L41.9559 45.6987C32.145 53.4137 17.8928 52.7483 8.84759 43.7031C-0.915516 33.94 -0.915516 18.1108 8.84759 8.34772C18.6107 -1.41538 34.4398 -1.41539 44.2029 8.34772Z" fill="#633126"/>
<path d="M35 21.5C35 16.8056 31.1944 13 26.5 13C21.8056 13 18 16.8056 18 21.5C18 26.1944 21.8056 30 26.5 30V31C21.2533 31 17 26.7467 17 21.5C17 16.2533 21.2533 12 26.5 12C31.7467 12 36 16.2533 36 21.5C36 26.7467 31.7467 31 26.5 31V30C31.1944 30 35 26.1944 35 21.5Z" fill="#633126"/>
<path d="M26.5 8.75C32.5566 8.75 37.5655 13.2714 38.4941 19.1719L37.5059 19.3281C36.6502 13.8901 32.0409 9.75 26.5 9.75C20.9591 9.75 16.3498 13.8901 15.4941 19.3281L14.5059 19.1719C15.4345 13.2714 20.4434 8.75 26.5 8.75Z" fill="#633126"/>
<path d="M16 19V26H12V19H16ZM13 25H15V20H13V25Z" fill="#633126"/>
<path d="M41 19V26H37V19H41ZM38 25H40V20H38V25Z" fill="#633126"/>
<path d="M28 27C28 26.4477 27.5523 26 27 26C26.4477 26 26 26.4477 26 27C26 27.5523 26.4477 28 27 28V29C25.8954 29 25 28.1046 25 27C25 25.8954 25.8954 25 27 25C28.1046 25 29 25.8954 29 27C29 28.1046 28.1046 29 27 29V28C27.5523 28 28 27.5523 28 27Z" fill="#633126"/>
<path d="M39 25.5V27.5H28.5V26.5H38V25.5H39Z" fill="#633126"/>
<path d="M29.5 32.5C36.6797 32.5 42.5 38.3203 42.5 45.5H41.5C41.5 38.8726 36.1274 33.5 29.5 33.5H23C16.6487 33.5 11.5 38.6487 11.5 45H10.5C10.5 38.0964 16.0964 32.5 23 32.5H29.5Z" fill="#633126"/>
</g>
</svg>
