<svg width="96" height="96" viewBox="0 0 96 96" fill="none" xmlns="http://www.w3.org/2000/svg">
<mask id="mask0_5328_3242" style="mask-type:alpha" maskUnits="userSpaceOnUse" x="0" y="0" width="96" height="96">
<path d="M0 0H96V96H0V0Z" fill="#D9D9D9"/>
</mask>
<g mask="url(#mask0_5328_3242)">
<path d="M83 36C83 16.67 67.33 1 48 1C28.67 1 13 16.67 13 36C13 55.33 28.67 71 48 71V72C28.1177 72 12 55.8823 12 36C12 16.1177 28.1177 0 48 0C67.8823 0 84 16.1177 84 36C84 55.8823 67.8823 72 48 72V71C67.33 71 83 55.33 83 36Z" fill="#633126"/>
<path d="M48 68V69C47.6782 69 47.3576 68.9935 47.0381 68.9844L47.0664 67.9863C47.3765 67.9952 47.6877 68 48 68ZM48.9336 67.9863L48.9609 68.9844C48.6417 68.9935 48.3214 69 48 69V68C48.3123 68 48.6235 67.9952 48.9336 67.9863ZM41.5264 67.3447C42.1312 67.469 42.7426 67.5764 43.3594 67.666L43.2861 68.1602L43.2871 68.1611L43.2148 68.6533C42.5789 68.5609 41.9488 68.4513 41.3252 68.3232L41.5264 67.3447ZM54.6738 68.3232C54.0502 68.4513 53.4201 68.561 52.7842 68.6533L52.7129 68.1611L52.6406 67.666C53.2574 67.5764 53.8688 67.469 54.4736 67.3447L54.6738 68.3232ZM36.1816 65.7471C36.7566 65.9757 37.3399 66.1881 37.9307 66.3838L37.6162 67.3311C37.0069 67.1292 36.4055 66.9106 35.8125 66.6748L36.1816 65.7471ZM60.1865 66.6748C59.5936 66.9106 58.9921 67.1292 58.3828 67.3311L58.0693 66.3838C58.6601 66.1881 59.2434 65.9757 59.8184 65.7471L60.1865 66.6748ZM31.1992 63.2402C31.7263 63.5661 32.2637 63.8774 32.8105 64.1729L32.3359 65.0508C31.772 64.7461 31.2184 64.4249 30.6748 64.0889L31.1992 63.2402ZM65.3242 64.0889C64.7806 64.4249 64.227 64.7461 63.6631 65.0508L63.1895 64.1729C63.7363 63.8774 64.2737 63.566 64.8008 63.2402L65.3242 64.0889ZM26.7266 59.9053C27.1899 60.3179 27.6655 60.7171 28.1523 61.1025L27.8408 61.4941L27.8418 61.4951L27.5312 61.8857C27.0292 61.4882 26.5403 61.0749 26.0625 60.6494L26.7266 59.9053ZM69.9365 60.6494C69.4587 61.0749 68.9699 61.4882 68.4678 61.8857L68.1582 61.4951L67.8477 61.1025C68.3345 60.7171 68.8101 60.3179 69.2734 59.9053L69.9365 60.6494ZM22.8975 55.8477C23.2829 56.3345 23.6821 56.8101 24.0947 57.2734L23.3496 57.9365C22.9241 57.4587 22.5108 56.9699 22.1133 56.4678L22.8975 55.8477ZM73.4941 56.1582L73.8857 56.4678C73.4882 56.9699 73.0749 57.4587 72.6494 57.9365L71.9053 57.2734C72.3179 56.8101 72.7171 56.3345 73.1025 55.8477L73.4941 56.1582ZM19.8271 51.1895C20.1226 51.7363 20.434 52.2737 20.7598 52.8008L19.9102 53.3242C19.5742 52.7806 19.2529 52.227 18.9482 51.6631L19.8271 51.1895ZM77.0508 51.6631C76.7461 52.227 76.4249 52.7806 76.0889 53.3242L75.2402 52.8008C75.5661 52.2737 75.8774 51.7363 76.1729 51.1895L77.0508 51.6631ZM17.6162 46.0693C17.8119 46.6601 18.0243 47.2434 18.2529 47.8184L17.3242 48.1865C17.0885 47.5936 16.8698 46.9921 16.668 46.3828L17.6162 46.0693ZM79.3311 46.3828C79.1292 46.9921 78.9106 47.5936 78.6748 48.1865L77.7471 47.8184C77.9757 47.2434 78.1881 46.6601 78.3838 46.0693L79.3311 46.3828ZM16.334 40.6406C16.4236 41.2574 16.531 41.8688 16.6553 42.4736L15.6758 42.6738C15.5477 42.0502 15.4381 41.4201 15.3457 40.7842L15.8389 40.7129L16.334 40.6406ZM80.1611 40.7129L80.6533 40.7842C80.561 41.4201 80.4513 42.0502 80.3232 42.6738L79.3447 42.4736C79.469 41.8688 79.5764 41.2574 79.666 40.6406L80.1611 40.7129ZM15 36C15 35.6783 15.0055 35.3576 15.0146 35.0381L15.5137 35.0518L16.0137 35.0664C16.0048 35.3765 16 35.6877 16 36C16 36.3123 16.0048 36.6235 16.0137 36.9336L15.0146 36.9609C15.0055 36.6417 15 36.3214 15 36ZM81 36C81 36.3214 80.9935 36.6417 80.9844 36.9609L80.4863 36.9482L79.9863 36.9336C79.9952 36.6235 80 36.3123 80 36C80 35.6877 79.9952 35.3765 79.9863 35.0664L80.4863 35.0518L80.9844 35.0381C80.9935 35.3576 81 35.6782 81 36ZM15.6758 29.3252L16.6553 29.5264C16.531 30.1312 16.4236 30.7426 16.334 31.3594L15.8389 31.2861L15.3457 31.2148C15.4369 30.5872 15.5449 29.9653 15.6709 29.3496L15.6758 29.3252ZM80.3232 29.3252C80.4513 29.9488 80.5609 30.5789 80.6533 31.2148L80.1611 31.2871L80.1602 31.2861L79.666 31.3594C79.5764 30.7426 79.469 30.1312 79.3447 29.5264L80.3232 29.3252ZM18.2529 24.1816C18.0243 24.7566 17.8119 25.3399 17.6162 25.9307L16.668 25.6162C16.8698 25.0069 17.0884 24.4054 17.3242 23.8125L18.2529 24.1816ZM78.6748 23.8125C78.9106 24.4055 79.1292 25.0069 79.3311 25.6162L78.3838 25.9307C78.1881 25.3399 77.9757 24.7566 77.7471 24.1816L78.6748 23.8125ZM20.7598 19.1992C20.434 19.7263 20.1226 20.2637 19.8271 20.8105L18.9482 20.3359C19.2529 19.772 19.5742 19.2184 19.9102 18.6748L20.7598 19.1992ZM76.0889 18.6748C76.4249 19.2184 76.7461 19.772 77.0508 20.3359L76.1729 20.8105C75.8774 20.2637 75.566 19.7263 75.2402 19.1992L76.0889 18.6748ZM24.0947 14.7266C23.6821 15.1899 23.2829 15.6655 22.8975 16.1523L22.1133 15.5312C22.5108 15.0292 22.9241 14.5403 23.3496 14.0625L24.0947 14.7266ZM72.6494 14.0625C73.0749 14.5403 73.4882 15.0292 73.8857 15.5312L73.1025 16.1523C72.7171 15.6655 72.3179 15.1899 71.9053 14.7266L72.6494 14.0625ZM27.708 10.3369L28.1523 10.8975C27.6655 11.2829 27.1899 11.6821 26.7266 12.0947L26.0625 11.3496C26.5403 10.9241 27.0292 10.5108 27.5312 10.1133L27.708 10.3369ZM68.4678 10.1133C68.9699 10.5108 69.4587 10.9241 69.9365 11.3496L69.2734 12.0947C68.8101 11.6821 68.3345 11.2829 67.8477 10.8975L68.292 10.3369L68.4678 10.1133ZM32.8105 7.82715C32.2637 8.12261 31.7263 8.43395 31.1992 8.75977L30.6748 7.91016C31.2184 7.57418 31.772 7.25294 32.3359 6.94824L32.8105 7.82715ZM63.6631 6.94824C64.227 7.25293 64.7806 7.57419 65.3242 7.91016L64.8008 8.75977C64.2737 8.43395 63.7363 8.12261 63.1895 7.82715L63.6631 6.94824ZM37.9307 5.61621C37.3399 5.81188 36.7566 6.02431 36.1816 6.25293L35.8125 5.32422C36.4054 5.08844 37.0069 4.86978 37.6162 4.66797L37.9307 5.61621ZM58.3828 4.66797C58.9921 4.86977 59.5936 5.08845 60.1865 5.32422L59.8184 6.25293C59.2434 6.02431 58.6601 5.81188 58.0693 5.61621L58.3828 4.66797ZM43.3594 4.33398C42.7426 4.42357 42.1312 4.53104 41.5264 4.65527L41.3252 3.67578C41.9488 3.54768 42.5789 3.43808 43.2148 3.3457L43.3594 4.33398ZM52.7842 3.3457C53.4201 3.43806 54.0502 3.5477 54.6738 3.67578L54.4736 4.65527C53.8688 4.53104 53.2574 4.42357 52.6406 4.33398L52.7842 3.3457ZM48 3C48.3214 3 48.6417 3.00552 48.9609 3.01465L48.9482 3.51367L48.9473 3.5127L48.9336 4.01367C48.6235 4.00479 48.3123 4 48 4C47.6877 4 47.3765 4.00479 47.0664 4.01367L47.0518 3.5127L47.0381 3.01465C47.3576 3.0055 47.6783 3 48 3Z" fill="#633126"/>
<path d="M73 36C73 22.1929 61.8071 11 48 11C34.1929 11 23 22.1929 23 36C23 49.8071 34.1929 61 48 61V62C33.6406 62 22 50.3594 22 36C22 21.6406 33.6406 10 48 10C62.3594 10 74 21.6406 74 36C74 50.3594 62.3594 62 48 62V61C61.8071 61 73 49.8071 73 36Z" fill="#633126"/>
<path d="M39.6194 74.25L27.2332 95.7036L22.3396 83.1795L9.04663 85.2036L20.5667 65.2503L21.4327 65.7503L10.9532 83.9013L22.9802 82.0699L27.4077 93.4013L38.7534 73.75L39.6194 74.25Z" fill="#633126"/>
<path d="M55.7009 74.25L68.0871 95.7036L72.9807 83.1795L86.2737 85.2036L74.7537 65.2503L73.8876 65.7503L84.3671 83.9013L72.3401 82.0699L67.9126 93.4013L56.5669 73.75L55.7009 74.25Z" fill="#633126"/>
<path d="M53.8779 27.9102L67.0215 29.8193L57.5107 39.0898L59.7559 52.1807L48 46L36.2441 52.1807L38.4893 39.0898L28.9785 29.8193L42.1221 27.9102L48 16L53.8779 27.9102ZM42.7861 28.8242L31.1279 30.5176L39.5635 38.7412L37.5713 50.3516L48 44.8701L58.4277 50.3516L56.4365 38.7412L64.8711 30.5176L53.2139 28.8242L48 18.2588L42.7861 28.8242Z" fill="#633126"/>
</g>
</svg>
