<svg width="48" height="48" viewBox="0 0 48 48" fill="none" xmlns="http://www.w3.org/2000/svg">
<mask id="mask0_5300_2656" style="mask-type:alpha" maskUnits="userSpaceOnUse" x="0" y="0" width="48" height="48">
<path d="M0 0H48V48H0V0Z" fill="#D9D9D9"/>
</mask>
<g mask="url(#mask0_5300_2656)">
<path d="M20.7167 48C18.1704 48 15.6546 47.4449 13.1694 46.3347C10.6843 45.2245 8.42315 43.6509 6.38611 41.6139C4.34907 39.5769 2.77546 37.3157 1.66528 34.8306C0.555093 32.3454 0 29.8296 0 27.2833C0 26.9167 0.122222 26.6111 0.366667 26.3667C0.611111 26.1222 0.916667 26 1.28333 26H6.23333C6.51852 26 6.77315 26.0968 6.99722 26.2903C7.2213 26.4838 7.3537 26.713 7.39444 26.9778L8.18889 31.2556C8.22963 31.5815 8.21944 31.8565 8.15833 32.0806C8.09722 32.3046 7.98519 32.4981 7.82222 32.6611L4.85833 35.6556C5.26574 36.4093 5.74954 37.1375 6.30972 37.8403C6.86991 38.5431 7.48611 39.2204 8.15833 39.8722C8.78981 40.5037 9.45185 41.0894 10.1444 41.6292C10.837 42.169 11.5704 42.663 12.3444 43.1111L15.2167 40.2389C15.4 40.0556 15.6394 39.9181 15.9347 39.8264C16.2301 39.7347 16.5204 39.7093 16.8056 39.75L21.0222 40.6056C21.3074 40.687 21.5417 40.8347 21.725 41.0486C21.9083 41.2625 22 41.5019 22 41.7667V46.7167C22 47.0833 21.8778 47.3889 21.6333 47.6333C21.3889 47.8778 21.0833 48 20.7167 48Z" fill="#633126"/>
<path d="M17.5811 1.67565C21.601 0.0105339 26.0244 -0.425173 30.292 0.423701C34.5596 1.27258 38.4799 3.36746 41.5566 6.44421C44.6334 9.52096 46.7283 13.4413 47.5771 17.7089C48.426 21.9764 47.9903 26.3998 46.3252 30.4198C44.6601 34.4397 41.8404 37.8755 38.2227 40.2928C34.6048 42.7102 30.3512 44.0009 26 44.0009V43.0009C30.1534 43.0009 34.2136 41.7693 37.667 39.4618C41.1204 37.1543 43.8119 33.8742 45.4014 30.037C46.9907 26.1999 47.4069 21.9776 46.5967 17.9042C45.7864 13.8306 43.7865 10.0881 40.8496 7.15124C37.9127 4.21434 34.1703 2.21446 30.0967 1.40417C26.0232 0.593957 21.801 1.01013 17.9639 2.59948C14.1266 4.18892 10.8466 6.88043 8.53906 10.3339C6.23156 13.7873 5 17.8475 5 22.0009H4C4 17.6497 5.29062 13.3961 7.70801 9.77819C10.1254 6.16042 13.5612 3.34075 17.5811 1.67565Z" fill="#633126"/>
<path d="M27 6.00098L26 6.00098L26 1.00098L27 1.00098L27 6.00098Z" fill="#633126"/>
<path d="M42.0049 22.9961L42.0049 21.9961L47.0049 21.9961L47.0049 22.9961L42.0049 22.9961Z" fill="#633126"/>
<path d="M34.8669 8.64263L34.0009 8.14263L36.5009 3.8125L37.3669 4.3125L34.8669 8.64263Z" fill="#633126"/>
<path d="M39.364 30.8633L39.864 29.9973L44.1941 32.4973L43.6941 33.3633L39.364 30.8633Z" fill="#633126"/>
<path d="M7.321 12.3633L7.821 11.4973L12.1511 13.9973L11.6511 14.8633L7.321 12.3633Z" fill="#633126"/>
<path d="M40.3591 14.8623L39.8591 13.9963L44.1892 11.4963L44.6892 12.3623L40.3591 14.8623Z" fill="#633126"/>
<path d="M33.1433 36.3544L34.0093 35.8544L36.5093 40.1846L35.6433 40.6846L33.1433 36.3544Z" fill="#633126"/>
<path d="M14.6433 4.31147L15.5093 3.81147L18.0093 8.1416L17.1433 8.6416L14.6433 4.31147Z" fill="#633126"/>
<path d="M33.7008 28.2088C33.0181 28.2088 32.3968 28.0434 31.8368 27.7128C31.2821 27.3821 30.8421 26.9394 30.5168 26.3848C30.1915 25.8248 30.0288 25.2114 30.0288 24.5448H31.1488C31.1488 25.0088 31.2635 25.4354 31.4928 25.8248C31.7221 26.2088 32.0288 26.5154 32.4128 26.7448C32.8021 26.9741 33.2315 27.0888 33.7008 27.0888C34.1648 27.0888 34.5888 26.9741 34.9728 26.7448C35.3568 26.5154 35.6635 26.2088 35.8928 25.8248C36.1275 25.4354 36.2448 25.0088 36.2448 24.5448C36.2448 24.0754 36.1328 23.6488 35.9088 23.2648C35.6901 22.8754 35.3781 22.5661 34.9728 22.3368C34.5728 22.1021 34.0955 21.9848 33.5408 21.9848H30.8208L31.8768 16.8008H37.1168V17.9208H32.7808L32.1968 20.8648L33.5008 20.8728C34.2635 20.8834 34.9328 21.0461 35.5088 21.3608C36.0901 21.6754 36.5435 22.1074 36.8688 22.6568C37.1995 23.2008 37.3648 23.8301 37.3648 24.5448C37.3648 25.0461 37.2688 25.5181 37.0768 25.9608C36.8901 26.4034 36.6261 26.7954 36.2848 27.1368C35.9488 27.4728 35.5595 27.7368 35.1168 27.9288C34.6795 28.1154 34.2075 28.2088 33.7008 28.2088Z" fill="#633126"/>
<path d="M25.1153 28.2088C24.4113 28.2088 23.7659 28.0354 23.1793 27.6888C22.5979 27.3368 22.1313 26.8674 21.7793 26.2808C21.4326 25.6941 21.2593 25.0461 21.2593 24.3368C21.2593 23.9261 21.3073 23.5768 21.4033 23.2888C21.4993 22.9954 21.6406 22.6701 21.8273 22.3128L25.0033 16.8008H26.3073L23.9793 20.8328C24.4486 20.6514 24.9206 20.5714 25.3953 20.5928C25.8699 20.6088 26.3233 20.7128 26.7553 20.9048C27.1873 21.0968 27.5713 21.3608 27.9073 21.6968C28.2433 22.0274 28.5073 22.4168 28.6993 22.8648C28.8966 23.3128 28.9953 23.8034 28.9953 24.3368C28.9953 24.8701 28.8939 25.3714 28.6913 25.8408C28.4886 26.3048 28.2086 26.7154 27.8513 27.0728C27.4993 27.4248 27.0886 27.7021 26.6193 27.9048C26.1499 28.1074 25.6486 28.2088 25.1153 28.2088ZM25.1153 27.0888C25.6486 27.0888 26.1233 26.9608 26.5393 26.7048C26.9553 26.4434 27.2806 26.1021 27.5153 25.6808C27.7553 25.2594 27.8753 24.8088 27.8753 24.3288C27.8753 23.8274 27.7526 23.3714 27.5073 22.9608C27.2619 22.5448 26.9313 22.2141 26.5153 21.9688C26.0993 21.7181 25.6379 21.5928 25.1313 21.5928C24.6086 21.5928 24.1393 21.7208 23.7233 21.9768C23.3073 22.2328 22.9793 22.5688 22.7393 22.9848C22.4993 23.3954 22.3793 23.8434 22.3793 24.3288C22.3793 24.8514 22.5046 25.3208 22.7553 25.7368C23.0113 26.1528 23.3473 26.4834 23.7633 26.7288C24.1793 26.9688 24.6299 27.0888 25.1153 27.0888Z" fill="#633126"/>
<path d="M16.928 28.209C16.2453 28.209 15.6453 28.0596 15.128 27.761C14.6106 27.457 14.2053 27.0516 13.912 26.545C13.624 26.0383 13.48 25.4783 13.48 24.865H14.6C14.6 25.2703 14.6933 25.6436 14.88 25.985C15.072 26.321 15.3413 26.5903 15.688 26.793C16.0346 26.9903 16.448 27.089 16.928 27.089C17.3333 27.089 17.712 26.9903 18.064 26.793C18.4213 26.5903 18.7093 26.321 18.928 25.985C19.152 25.6436 19.264 25.2703 19.264 24.865C19.264 24.3583 19.136 23.937 18.88 23.601C18.624 23.2596 18.272 23.0063 17.824 22.841C17.376 22.6703 16.864 22.585 16.288 22.585V21.657C17.0826 21.657 17.72 21.489 18.2 21.153C18.6853 20.8116 18.928 20.313 18.928 19.657C18.928 19.2996 18.8293 18.9743 18.632 18.681C18.44 18.3876 18.1866 18.153 17.872 17.977C17.5626 17.7956 17.2293 17.705 16.872 17.705C16.5146 17.705 16.1706 17.7956 15.84 17.977C15.5146 18.153 15.248 18.3876 15.04 18.681C14.8373 18.9743 14.736 19.2996 14.736 19.657H13.616C13.616 19.2356 13.704 18.841 13.88 18.473C14.056 18.0996 14.296 17.7716 14.6 17.489C14.904 17.2063 15.2506 16.985 15.64 16.825C16.0293 16.665 16.4373 16.585 16.864 16.585C17.424 16.585 17.944 16.7236 18.424 17.001C18.9093 17.2783 19.3013 17.649 19.6 18.113C19.8986 18.577 20.048 19.0916 20.048 19.657C20.048 20.2063 19.9066 20.7023 19.624 21.145C19.3413 21.5876 18.96 21.8996 18.48 22.081C18.896 22.2196 19.2453 22.4303 19.528 22.713C19.8106 22.9903 20.024 23.313 20.168 23.681C20.312 24.049 20.384 24.4436 20.384 24.865C20.384 25.4783 20.224 26.0383 19.904 26.545C19.584 27.0516 19.16 27.457 18.632 27.761C18.1093 28.0596 17.5413 28.209 16.928 28.209Z" fill="#633126"/>
</g>
</svg>
