<svg width="96" height="96" viewBox="0 0 96 96" fill="none" xmlns="http://www.w3.org/2000/svg">
<mask id="mask0_5328_3344" style="mask-type:alpha" maskUnits="userSpaceOnUse" x="0" y="0" width="96" height="96">
<path d="M0 0H96V96H0V0Z" fill="#D9D9D9"/>
</mask>
<g mask="url(#mask0_5328_3344)">
<path d="M47.4036 3.75012C55.8758 3.72937 64.1465 6.44426 71.093 11.5226C78.0393 16.6009 83.3247 23.7961 86.2346 32.128L85.2903 32.4581C82.4453 24.3121 77.2813 17.2855 70.5032 12.3302C63.7255 7.37518 55.6612 4.72986 47.4055 4.75012C39.1499 4.77044 31.0976 7.45523 24.342 12.4435C17.5861 17.4321 12.4534 24.4838 9.64478 32.6437L9.17212 32.4806L8.69946 32.3185C11.5722 23.9723 16.8248 16.7511 23.7483 11.6388C30.6722 6.52629 38.9312 3.77091 47.4036 3.75012Z" fill="#633126"/>
<path d="M9.61304 61.2644C11.4706 66.7001 14.3506 71.6238 18.0281 75.7742C18.942 76.8056 19.2417 78.2767 18.7029 79.574L13.9207 91.0857L27.9656 85.3777C28.9177 84.9908 29.9791 85.0518 30.8904 85.4851C39.9386 89.7883 50.2013 90.433 59.697 87.2634L60.0134 88.2117C50.271 91.4636 39.7409 90.801 30.4607 86.3875C29.7858 86.0667 29.0165 86.0301 28.3416 86.3044L12.0789 92.9138L17.7791 79.1902C18.1608 78.2708 17.9569 77.2023 17.2791 76.4373C13.5134 72.1873 10.5677 67.1483 8.66772 61.5886L9.61304 61.2644Z" fill="#633126"/>
<path d="M86.2976 61.6912C83.7311 69.1421 79.2607 75.7127 73.3728 80.6843L72.7283 79.9207C78.475 75.0682 82.8432 68.6496 85.3523 61.365L86.2976 61.6912Z" fill="#633126"/>
<path d="M17 61V62H10V61H17ZM20 58V36C20 34.3431 18.6569 33 17 33H10C5.02944 33 1 37.0294 1 42V52C1 56.9706 5.02944 61 10 61V62L9.48535 61.9873C4.37212 61.7281 0.271903 57.6279 0.0126953 52.5146L0 52V42C0 36.4772 4.47715 32 10 32H17C19.2091 32 21 33.7909 21 36V58C21 60.14 19.3194 61.8879 17.2061 61.9951L17 62V61C18.6569 61 20 59.6569 20 58Z" fill="#633126"/>
<path d="M79 61V62H86V61H79ZM76 58V36C76 34.3431 77.3431 33 79 33H86C90.9706 33 95 37.0294 95 42V52C95 56.9706 90.9706 61 86 61V62L86.5146 61.9873C91.6279 61.7281 95.7281 57.6279 95.9873 52.5146L96 52V42C96 36.4772 91.5228 32 86 32H79C76.7909 32 75 33.7909 75 36V58C75 60.14 76.6806 61.8879 78.7939 61.9951L79 62V61C77.3431 61 76 59.6569 76 58Z" fill="#633126"/>
<path d="M74 84C74 81.2386 71.7614 79 69 79C66.2386 79 64 81.2386 64 84C64 86.7614 66.2386 89 69 89V90C65.6863 90 63 87.3137 63 84C63 80.6863 65.6863 78 69 78C72.3137 78 75 80.6863 75 84C75 87.3137 72.3137 90 69 90V89C71.7614 89 74 86.7614 74 84Z" fill="#633126"/>
<path d="M16 32.5V61.5H15V32.5H16Z" fill="#633126"/>
<path d="M81 32.5V61.5H80V32.5H81Z" fill="#633126"/>
<path d="M58.912 58.6719C58.6334 58.3639 58.2814 58.0706 57.8561 57.7919C58.7801 57.2053 59.4841 56.4793 59.9681 55.6139C60.4667 54.7486 60.804 53.7366 60.98 52.5779C61.156 51.4193 61.244 50.1066 61.244 48.6399V39.5099H67.6021V56.7579C67.6021 57.3153 67.4407 57.7626 67.118 58.0999C66.8101 58.4373 66.304 58.6059 65.6 58.6059H63.8181C63.7887 58.4006 63.7374 58.1586 63.6641 57.8799C63.6054 57.6013 63.5394 57.3886 63.466 57.2419H65.3581C65.9301 57.2419 66.2161 56.9853 66.2161 56.4719V50.6639H62.5201C62.4174 52.5266 62.1021 54.1106 61.5741 55.4159C61.0607 56.7066 60.1734 57.7919 58.912 58.6719ZM49.078 52.6879V51.4779H51.5201V42.7219H49.3421V41.4899H51.5201V38.7839H52.8841V41.4899H56.4701V38.7839H57.8561V41.4899H59.9681V42.7219H57.8561V51.4779H60.2541V52.6879H49.078ZM62.5861 49.4319H66.2161V45.6699H62.5861V49.4319ZM62.5861 44.4379H66.2161V40.7639H62.5861V44.4379ZM52.8841 51.4779H56.4701V49.2779H52.8841V51.4779ZM52.8841 48.1779H56.4701V45.9999H52.8841V48.1779ZM52.8841 44.8999H56.4701V42.7219H52.8841V44.8999ZM49.518 58.1439C49.4594 58.0706 49.364 57.9679 49.232 57.8359C49.1 57.7039 48.9681 57.5719 48.8361 57.4399C48.7187 57.3226 48.6234 57.2493 48.55 57.2199C48.858 57.0439 49.2101 56.8019 49.6061 56.4939C50.0021 56.1713 50.3981 55.8193 50.7941 55.4379C51.2047 55.0419 51.5787 54.6533 51.916 54.2719C52.2534 53.8759 52.5174 53.5166 52.708 53.1939L53.8081 53.8979C53.5001 54.3966 53.0894 54.9246 52.576 55.4819C52.0627 56.0393 51.5274 56.5526 50.97 57.0219C50.4274 57.5059 49.9434 57.8799 49.518 58.1439ZM57.9221 56.8899C57.746 56.5966 57.5041 56.2666 57.1961 55.8999C56.8881 55.5186 56.5654 55.1519 56.2281 54.7999C55.8907 54.4479 55.5827 54.1546 55.3041 53.9199L56.25 53.1279C56.514 53.3479 56.822 53.6339 57.174 53.9859C57.5407 54.3379 57.8854 54.6973 58.208 55.0639C58.5454 55.4306 58.8021 55.7533 58.9781 56.0319C58.9341 56.0613 58.8314 56.1346 58.6701 56.2519C58.5234 56.3693 58.3694 56.4939 58.208 56.6259C58.0614 56.7433 57.9661 56.8313 57.9221 56.8899Z" fill="#633126"/>
<path d="M46.2179 58.6501C43.7686 57.9901 41.6566 57.0001 39.8819 55.6801C38.1219 54.3454 36.8606 52.6001 36.0979 50.4441H32.8859V56.3841C33.8246 56.1934 34.7192 55.9954 35.5699 55.7901C36.4206 55.5847 37.1099 55.3941 37.6379 55.2181V56.4721C37.2859 56.5894 36.8019 56.7287 36.1859 56.8901C35.5699 57.0514 34.8879 57.2201 34.1399 57.3961C33.4066 57.5721 32.6586 57.7407 31.8959 57.9021C31.1332 58.0634 30.4146 58.2027 29.7399 58.3201C29.0652 58.4521 28.4932 58.5474 28.0239 58.6061L27.6279 57.2641C28.0679 57.2347 28.6252 57.1614 29.2999 57.0441C29.9892 56.9414 30.7226 56.8167 31.4999 56.6701V50.4441H27.0559V49.2341H31.4999V39.4661H44.6339V40.6541H32.8859V42.7441H43.7099V43.8881H32.8859V45.9561H43.6879V47.1001H32.8859V49.2341H46.9439V50.4441H37.4179C38.0046 51.7934 38.8406 52.9667 39.9259 53.9641C40.2632 53.7294 40.6372 53.4507 41.0479 53.1281C41.4732 52.8054 41.8839 52.4754 42.2799 52.1381C42.6759 51.7861 42.9986 51.4707 43.2479 51.1921L44.2599 52.0941C43.9959 52.3434 43.6659 52.6367 43.2699 52.9741C42.8739 53.2967 42.4632 53.6194 42.0379 53.9421C41.6126 54.2501 41.2239 54.5214 40.8719 54.7561C41.7372 55.4014 42.6832 55.9441 43.7099 56.3841C44.7512 56.8094 45.8292 57.1321 46.9439 57.3521C46.8999 57.4107 46.8192 57.5281 46.7019 57.7041C46.5992 57.8947 46.4966 58.0781 46.3939 58.2541C46.3059 58.4447 46.2472 58.5767 46.2179 58.6501Z" fill="#633126"/>
</g>
</svg>
