<svg width="48" height="48" viewBox="0 0 48 48" fill="none" xmlns="http://www.w3.org/2000/svg">
<mask id="mask0_5300_2617" style="mask-type:alpha" maskUnits="userSpaceOnUse" x="0" y="0" width="48" height="48">
<path d="M0 0H48V48H0V0Z" fill="#D9D9D9"/>
</mask>
<g mask="url(#mask0_5300_2617)">
<path d="M33.3536 27.1998C31.401 25.2472 28.2351 25.2472 26.2825 27.1998C24.3299 29.1524 24.3299 32.3183 26.2825 34.2709C28.2351 36.2235 31.401 36.2235 33.3536 34.2709L34.0607 34.978C31.7175 37.3211 27.9185 37.3211 25.5754 34.978C23.2323 32.6348 23.2323 28.8359 25.5754 26.4927C27.9185 24.1496 31.7175 24.1496 34.0607 26.4927C36.4038 28.8359 36.4038 32.6348 34.0607 34.978L33.3536 34.2709C35.3062 32.3183 35.3062 29.1524 33.3536 27.1998Z" fill="#633126"/>
<path d="M34.7678 32.8571L41.8388 39.9282L39.0104 42.7566L31.9393 35.6855L34.7678 32.8571ZM39.0104 41.3424L40.4246 39.9282L34.7678 34.2713L33.3535 35.6855L39.0104 41.3424Z" fill="#633126"/>
<path d="M41.8993 11L41.9872 11.3896L46.4198 30.8896L46.4413 30.9863L46.4247 31.085L45.993 33.585L45.9208 34H38.4999V33H45.079L45.4218 31.0137L41.1014 12H6.89832L2.578 31.0107L2.92175 33H22.4999V34H2.07898L2.00769 33.585L1.57507 31.085L1.55847 30.9863L1.58093 30.8896L6.01257 11.3896L6.10046 11H41.8993Z" fill="#633126"/>
<path d="M22 30.5V31.5L2 31.5L2 30.5L22 30.5Z" fill="#633126"/>
<path d="M46 30.5V31.5L38 31.5V30.5L46 30.5Z" fill="#633126"/>
<path d="M33.5 30.5V31.5H26.5V30.5H33.5Z" fill="#633126"/>
<path d="M32 33V34H28V33H32Z" fill="#633126"/>
<path d="M22 28V29H3V28H22Z" fill="#633126"/>
<path d="M45 28V29H37.5V28H45Z" fill="#633126"/>
<path d="M33 28V29H27V28H33Z" fill="#633126"/>
</g>
</svg>
