<svg width="48" height="48" viewBox="0 0 48 48" fill="none" xmlns="http://www.w3.org/2000/svg">
<mask id="mask0_5300_2578" style="mask-type:alpha" maskUnits="userSpaceOnUse" x="0" y="0" width="48" height="48">
<path d="M0 0H48V48H0V0Z" fill="#D9D9D9"/>
</mask>
<g mask="url(#mask0_5300_2578)">
<path d="M48 17V43H22V17H48ZM23 42H47V18H23V42Z" fill="#633126"/>
<path d="M15 11V16H0V11H15ZM1 15H14V12H1V15Z" fill="#633126"/>
<path d="M10 24V29H5V24H10ZM6 28H9V25H6V28Z" fill="#633126"/>
<path d="M18 24V29H13V24H18ZM14 28H17V25H14V28Z" fill="#633126"/>
<path d="M33 35.5V30.5C33 29.1193 31.8807 28 30.5 28C29.1193 28 28 29.1193 28 30.5V35.5C28 36.8807 29.1193 38 30.5 38V39C28.567 39 27 37.433 27 35.5V30.5C27 28.567 28.567 27 30.5 27C32.433 27 34 28.567 34 30.5V35.5C34 37.433 32.433 39 30.5 39V38C31.8807 38 33 36.8807 33 35.5Z" fill="#633126"/>
<path d="M42 35.5V30.5C42 29.1193 40.8807 28 39.5 28C38.1193 28 37 29.1193 37 30.5V35.5C37 36.8807 38.1193 38 39.5 38V39C37.567 39 36 37.433 36 35.5V30.5C36 28.567 37.567 27 39.5 27C41.433 27 43 28.567 43 30.5V35.5C43 37.433 41.433 39 39.5 39V38C40.8807 38 42 36.8807 42 35.5Z" fill="#633126"/>
<path d="M26 3V18H25V4H1V42H23V43H0V3H26Z" fill="#633126"/>
<path d="M42 10V17.5H41V11H25.5V10H42Z" fill="#633126"/>
<path d="M26 6V7H0V6H26Z" fill="#633126"/>
<path d="M7 11.5H8V15.5H7V11.5Z" fill="#633126"/>
<path d="M30 33H31V45H30V33Z" fill="#633126"/>
<path d="M39 33H40V45H39V33Z" fill="#633126"/>
<path d="M48 20V21H22V20H48Z" fill="#633126"/>
</g>
</svg>
