<svg width="96" height="96" viewBox="0 0 96 96" fill="none" xmlns="http://www.w3.org/2000/svg">
<mask id="mask0_5328_3285" style="mask-type:alpha" maskUnits="userSpaceOnUse" x="0" y="0" width="96" height="96">
<path d="M0 0H96V96H0V0Z" fill="#D9D9D9"/>
</mask>
<g mask="url(#mask0_5328_3285)">
<path d="M8 48V96H4V48H8ZM5 95H7V49H5V95Z" fill="#633126"/>
<path d="M31 56V60H22V56H31ZM23 59H30V57H23V59Z" fill="#633126"/>
<path d="M73 56V60H64V56H73ZM65 59H72V57H65V59Z" fill="#633126"/>
<path d="M31 75V79H22V75H31ZM23 78H30V76H23V78Z" fill="#633126"/>
<path d="M73 75V79H64V75H73ZM65 78H72V76H65V78Z" fill="#633126"/>
<path d="M50 48V87H46V48H50ZM47 86H49V49H47V86Z" fill="#633126"/>
<path d="M92 48V96H88V48H92ZM89 95H91V49H89V95Z" fill="#633126"/>
<path d="M89 48V87H7V48H89ZM8 86H88V49H8V86Z" fill="#633126"/>
<path d="M46.5 67V68H7.5V67H46.5Z" fill="#633126"/>
<path d="M88 67V68H49V67H88Z" fill="#633126"/>
<path d="M27 32V48.5H26V33H10V48.5H9V32H27Z" fill="#633126"/>
<path d="M85 43V48.5H84V44H58V48.5H57V43H85Z" fill="#633126"/>
<path d="M82 37V44H50V37H82ZM51 43H81V38H51V43Z" fill="#633126"/>
<path d="M79 31V38H50V31H79ZM51 37H78V32H51V37Z" fill="#633126"/>
<path d="M18 9V32.5H17V9H18Z" fill="#633126"/>
<path d="M17.7344 24.5586L17.2656 25.4414L8.76562 20.9414L9.23438 20.0586L17.7344 24.5586Z" fill="#633126"/>
<path d="M17.2656 28.0586L17.7344 28.9414L26.2344 24.4414L25.7656 23.5586L17.2656 28.0586Z" fill="#633126"/>
<path d="M17.25 17.0667L17.75 17.9329L23.25 14.7581L22.75 13.8918L17.25 17.0667Z" fill="#633126"/>
<path d="M62 0V6H34V0H62ZM35 5H61V1H35V5Z" fill="#633126"/>
<path d="M48.3203 14.0039C49.9182 14.0433 51.4962 14.3769 52.9746 14.9893C54.5518 15.6426 55.9852 16.6005 57.1924 17.8076C58.3995 19.0148 59.3574 20.4482 60.0107 22.0254C60.664 23.6025 61 25.2929 61 27H48V26H59.9551C59.8519 24.767 59.5619 23.555 59.0869 22.4082C58.4839 20.9523 57.5997 19.629 56.4854 18.5146C55.371 17.4003 54.0477 16.5161 52.5918 15.9131C51.136 15.3102 49.5757 15 48 15C46.4243 15 44.864 15.3102 43.4082 15.9131C41.9523 16.5161 40.629 17.4003 39.5146 18.5146C38.4003 19.629 37.5161 20.9523 36.9131 22.4082C36.4381 23.555 36.1481 24.767 36.0449 26H48V27H35C35 25.3995 35.2958 23.8138 35.8711 22.3223L35.9893 22.0254C36.6018 20.5467 37.4817 19.1941 38.584 18.0361L38.8076 17.8076C39.9394 16.6758 41.2698 15.7632 42.7314 15.1152L43.0254 14.9893C44.6025 14.336 46.2929 14 48 14L48.3203 14.0039Z" fill="#633126"/>
<path d="M47 5.5V14.5H46V5.5H47Z" fill="#633126"/>
<path d="M50 5.5V14.5H49V5.5H50Z" fill="#633126"/>
</g>
</svg>
