<svg width="88" height="333" viewBox="0 0 88 333" fill="none" xmlns="http://www.w3.org/2000/svg">
<path d="M1.56006 30.4802L85.5601 0.000175908L85.5601 8.88018L12.1201 35.5202L85.5601 62.2802L85.5601 71.1602L1.56006 40.6202L1.56006 30.4802ZM1.56005 83.7583L85.5601 83.7583L85.5601 92.1583L1.56005 92.1583L1.56005 83.7583ZM1.56005 108.325L85.5601 108.325L85.5601 136.105C85.5601 141.905 84.4601 147.345 82.2601 152.425C80.1001 157.505 77.0801 161.965 73.2001 165.805C69.3601 169.645 64.9001 172.645 59.8201 174.805C54.7801 177.005 49.3601 178.105 43.5601 178.105C37.7601 178.105 32.3201 177.005 27.2401 174.805C22.2001 172.645 17.7401 169.645 13.8601 165.805C10.0201 161.965 7.00005 157.505 4.80005 152.425C2.64005 147.345 1.56005 141.905 1.56005 136.105L1.56005 108.325ZM9.96005 116.725L9.96005 136.105C9.96005 140.745 10.8201 145.085 12.5401 149.125C14.3001 153.205 16.7201 156.785 19.8001 159.865C22.8801 162.945 26.4401 165.345 30.4801 167.065C34.5601 168.825 38.9201 169.705 43.5601 169.705C48.2001 169.705 52.5401 168.825 56.5801 167.065C60.6601 165.345 64.2401 162.925 67.3201 159.805C70.4001 156.725 72.8001 153.165 74.5201 149.125C76.2801 145.085 77.1601 140.745 77.1601 136.105L77.1601 116.725L9.96005 116.725ZM1.56005 189.185L85.5601 189.185L85.5601 240.305L77.1601 240.305L77.1601 197.585L50.7601 197.585L50.7601 232.925L42.36 232.925L42.3601 197.585L9.96005 197.585L9.96005 240.305L1.56005 240.305L1.56005 189.185ZM4.5703e-05 291.349C4.59513e-05 285.669 1.12005 280.329 3.36005 275.329C5.64005 270.329 8.78005 265.929 12.78 262.129C16.78 258.329 21.4 255.349 26.64 253.189C31.92 251.029 37.56 249.949 43.5601 249.949C49.56 249.949 55.18 251.029 60.4201 253.189C65.7001 255.349 70.34 258.329 74.3401 262.129C78.3401 265.929 81.4601 270.329 83.7001 275.329C85.9801 280.329 87.1201 285.669 87.1201 291.349C87.1201 297.069 85.9801 302.429 83.7 307.429C81.46 312.429 78.34 316.829 74.34 320.629C70.34 324.429 65.7 327.389 60.42 329.509C55.18 331.669 49.56 332.749 43.56 332.749C37.56 332.749 31.92 331.669 26.64 329.509C21.4 327.389 16.78 324.429 12.78 320.629C8.78004 316.829 5.64005 312.429 3.36005 307.429C1.12005 302.429 4.5453e-05 297.069 4.5703e-05 291.349ZM8.40005 291.349C8.40005 295.949 9.32005 300.229 11.16 304.189C13.04 308.189 15.6 311.689 18.84 314.689C22.08 317.729 25.82 320.089 30.06 321.769C34.3 323.489 38.8 324.349 43.56 324.349C48.36 324.349 52.88 323.489 57.12 321.769C61.4 320.049 65.14 317.669 68.34 314.629C71.58 311.629 74.12 308.129 75.96 304.129C77.8 300.169 78.72 295.909 78.72 291.349C78.72 286.749 77.78 282.449 75.9001 278.449C74.0601 274.489 71.5201 270.989 68.2801 267.949C65.04 264.949 61.3 262.589 57.0601 260.869C52.8201 259.189 48.3201 258.349 43.5601 258.349C38.7201 258.349 34.18 259.209 29.94 260.929C25.7 262.649 21.96 265.009 18.72 268.009C15.48 271.049 12.94 274.549 11.1 278.509C9.30005 282.509 8.40005 286.789 8.40005 291.349Z" fill="white"/>
</svg>
