<svg width="130" height="30" viewBox="0 0 130 30" fill="none" xmlns="http://www.w3.org/2000/svg">
<path d="M7.16006 28.52L5.86361e-05 0.520018L2.88006 0.520018L8.80006 23.7L14.7001 0.520018L17.1801 0.520018L23.1001 23.7L29.0001 0.520018L31.8801 0.520018L24.7601 28.52H21.4401L15.9401 7.02002L10.4401 28.52L7.16006 28.52ZM47.6632 29.04C45.7699 29.04 43.9899 28.6667 42.3232 27.92C40.6565 27.16 39.1899 26.1134 37.9232 24.78C36.6565 23.4467 35.6632 21.9067 34.9432 20.16C34.2232 18.4 33.8632 16.52 33.8632 14.52C33.8632 12.52 34.2232 10.6467 34.9432 8.90002C35.6632 7.14002 36.6565 5.59335 37.9232 4.26002C39.1899 2.92668 40.6565 1.88668 42.3232 1.14002C43.9899 0.380017 45.7699 1.71661e-05 47.6632 1.71661e-05C49.5699 1.71661e-05 51.3565 0.380017 53.0232 1.14002C54.6899 1.88668 56.1565 2.92668 57.4232 4.26002C58.6899 5.59335 59.6765 7.14002 60.3832 8.90002C61.1032 10.6467 61.4632 12.52 61.4632 14.52C61.4632 16.52 61.1032 18.4 60.3832 20.16C59.6765 21.9067 58.6899 23.4467 57.4232 24.78C56.1565 26.1134 54.6899 27.16 53.0232 27.92C51.3565 28.6667 49.5699 29.04 47.6632 29.04ZM47.6632 26.24C49.1965 26.24 50.6232 25.9334 51.9432 25.32C53.2765 24.6934 54.4432 23.84 55.4432 22.76C56.4565 21.68 57.2432 20.4334 57.8032 19.02C58.3765 17.6067 58.6632 16.1067 58.6632 14.52C58.6632 12.92 58.3765 11.4134 57.8032 10C57.2299 8.57335 56.4365 7.32669 55.4232 6.26002C54.4232 5.18002 53.2565 4.33335 51.9232 3.72002C50.6032 3.10669 49.1832 2.80002 47.6632 2.80002C46.1299 2.80002 44.6965 3.11335 43.3632 3.74002C42.0432 4.35335 40.8765 5.20002 39.8632 6.28002C38.8632 7.36002 38.0765 8.60669 37.5032 10.02C36.9432 11.4334 36.6632 12.9334 36.6632 14.52C36.6632 16.1334 36.9499 17.6467 37.5232 19.06C38.0965 20.4734 38.8832 21.72 39.8832 22.8C40.8965 23.88 42.0632 24.7267 43.3832 25.34C44.7165 25.94 46.1432 26.24 47.6632 26.24ZM65.5226 28.52V0.520018L75.0226 0.520018C76.5159 0.520018 77.8626 0.886685 79.0626 1.62002C80.2626 2.34002 81.2159 3.32002 81.9226 4.56002C82.6292 5.78668 82.9826 7.16668 82.9826 8.70002C82.9826 10.0734 82.7026 11.32 82.1426 12.44C81.5826 13.56 80.8159 14.4867 79.8426 15.22C78.8826 15.9534 77.7959 16.44 76.5826 16.68L83.4226 28.52H80.1826L73.4426 16.9H68.3226V28.52H65.5226ZM68.3226 14.1L74.7826 14.1C75.7692 14.1 76.6692 13.86 77.4826 13.38C78.3092 12.8867 78.9626 12.2267 79.4426 11.4C79.9359 10.56 80.1826 9.61335 80.1826 8.56002C80.1826 7.50669 79.9359 6.56669 79.4426 5.74002C78.9626 4.90002 78.3092 4.24002 77.4826 3.76002C76.6692 3.26668 75.7692 3.02002 74.7826 3.02002L68.3226 3.02002V14.1ZM106.354 28.52H102.734L93.5541 15.94L91.1741 18.8V28.52H88.3741V0.520018L91.1741 0.520018V14.44L102.834 0.520018L106.494 0.520018L95.3941 13.74L106.354 28.52ZM119.209 29.04C117.715 29.04 116.269 28.8067 114.869 28.34C113.482 27.8734 112.269 27.2067 111.229 26.34C110.189 25.4734 109.455 24.44 109.029 23.24L111.649 22.26C111.942 23.0867 112.475 23.8 113.249 24.4C114.035 24.9867 114.949 25.44 115.989 25.76C117.042 26.08 118.115 26.24 119.209 26.24C120.489 26.24 121.682 26.0267 122.789 25.6C123.895 25.1734 124.789 24.58 125.469 23.82C126.149 23.0467 126.489 22.14 126.489 21.1C126.489 20.0467 126.135 19.18 125.429 18.5C124.722 17.82 123.809 17.2867 122.689 16.9C121.582 16.5 120.422 16.1934 119.209 15.98C117.302 15.6467 115.589 15.1934 114.069 14.62C112.562 14.0467 111.369 13.24 110.489 12.2C109.609 11.1467 109.169 9.76002 109.169 8.04002C109.169 6.42668 109.635 5.02668 110.569 3.84002C111.502 2.65335 112.729 1.73335 114.249 1.08002C115.782 0.426684 117.435 0.100017 119.209 0.100017C120.662 0.100017 122.082 0.326684 123.469 0.780018C124.855 1.23335 126.075 1.89335 127.129 2.76002C128.195 3.62668 128.962 4.68669 129.429 5.94002L126.769 6.90002C126.475 6.06002 125.935 5.34668 125.149 4.76002C124.375 4.16002 123.469 3.70669 122.429 3.40002C121.389 3.08002 120.315 2.92002 119.209 2.92002C117.942 2.90669 116.755 3.12002 115.649 3.56002C114.555 3.98668 113.669 4.58668 112.989 5.36002C112.309 6.12002 111.969 7.01335 111.969 8.04002C111.969 9.24002 112.282 10.1667 112.909 10.82C113.549 11.46 114.415 11.94 115.509 12.26C116.602 12.58 117.835 12.8667 119.209 13.12C120.995 13.4267 122.655 13.9067 124.189 14.56C125.722 15.2 126.955 16.06 127.889 17.14C128.822 18.2067 129.289 19.5267 129.289 21.1C129.289 22.7 128.822 24.1 127.889 25.3C126.955 26.4867 125.722 27.4067 124.189 28.06C122.669 28.7134 121.009 29.04 119.209 29.04Z" fill="white"/>
</svg>
