<svg width="111" height="30" viewBox="0 0 111 30" fill="none" xmlns="http://www.w3.org/2000/svg">
<path d="M10.1601 28.52L5.86361e-05 0.520018L2.96006 0.520018L11.8401 25L20.7601 0.520018L23.7201 0.520018L13.5401 28.52H10.1601ZM27.9194 28.52L27.9194 0.520018L30.7194 0.520018L30.7194 28.52H27.9194ZM36.1085 28.52L36.1085 0.520018L45.3685 0.520018C47.3018 0.520018 49.1152 0.886685 50.8085 1.62002C52.5018 2.34002 53.9885 3.34669 55.2685 4.64002C56.5485 5.92002 57.5485 7.40669 58.2685 9.10002C59.0018 10.78 59.3685 12.5867 59.3685 14.52C59.3685 16.4534 59.0018 18.2667 58.2685 19.96C57.5485 21.64 56.5485 23.1267 55.2685 24.42C53.9885 25.7 52.5018 26.7067 50.8085 27.44C49.1152 28.16 47.3018 28.52 45.3685 28.52H36.1085ZM38.9085 25.72H45.3685C46.9152 25.72 48.3618 25.4334 49.7085 24.86C51.0685 24.2734 52.2618 23.4667 53.2885 22.44C54.3152 21.4134 55.1152 20.2267 55.6885 18.88C56.2752 17.52 56.5685 16.0667 56.5685 14.52C56.5685 12.9734 56.2752 11.5267 55.6885 10.18C55.1152 8.82002 54.3085 7.62668 53.2685 6.60002C52.2418 5.57335 51.0552 4.77335 49.7085 4.20002C48.3618 3.61335 46.9152 3.32002 45.3685 3.32002L38.9085 3.32002L38.9085 25.72ZM63.0616 28.52V0.520018L80.1016 0.520018V3.32002L65.8616 3.32002V12.12L77.6416 12.12V14.92L65.8616 14.92V25.72L80.1016 25.72V28.52L63.0616 28.52ZM97.1163 29.04C95.223 29.04 93.443 28.6667 91.7763 27.92C90.1096 27.16 88.643 26.1134 87.3763 24.78C86.1096 23.4467 85.1163 21.9067 84.3963 20.16C83.6763 18.4 83.3163 16.52 83.3163 14.52C83.3163 12.52 83.6763 10.6467 84.3963 8.90002C85.1163 7.14002 86.1096 5.59335 87.3763 4.26002C88.643 2.92668 90.1096 1.88668 91.7763 1.14002C93.443 0.380017 95.223 1.71661e-05 97.1163 1.71661e-05C99.023 1.71661e-05 100.81 0.380017 102.476 1.14002C104.143 1.88668 105.61 2.92668 106.876 4.26002C108.143 5.59335 109.13 7.14002 109.836 8.90002C110.556 10.6467 110.916 12.52 110.916 14.52C110.916 16.52 110.556 18.4 109.836 20.16C109.13 21.9067 108.143 23.4467 106.876 24.78C105.61 26.1134 104.143 27.16 102.476 27.92C100.81 28.6667 99.023 29.04 97.1163 29.04ZM97.1163 26.24C98.6496 26.24 100.076 25.9334 101.396 25.32C102.73 24.6934 103.896 23.84 104.896 22.76C105.91 21.68 106.696 20.4334 107.256 19.02C107.83 17.6067 108.116 16.1067 108.116 14.52C108.116 12.92 107.83 11.4134 107.256 10C106.683 8.57335 105.89 7.32669 104.876 6.26002C103.876 5.18002 102.71 4.33335 101.376 3.72002C100.056 3.10669 98.6363 2.80002 97.1163 2.80002C95.583 2.80002 94.1496 3.11335 92.8163 3.74002C91.4963 4.35335 90.3296 5.20002 89.3163 6.28002C88.3163 7.36002 87.5296 8.60669 86.9563 10.02C86.3963 11.4334 86.1163 12.9334 86.1163 14.52C86.1163 16.1334 86.403 17.6467 86.9763 19.06C87.5496 20.4734 88.3363 21.72 89.3363 22.8C90.3496 23.88 91.5163 24.7267 92.8363 25.34C94.1696 25.94 95.5963 26.24 97.1163 26.24Z" fill="white"/>
</svg>
