<svg width="88" height="389" viewBox="0 0 88 389" fill="none" xmlns="http://www.w3.org/2000/svg">
<path d="M1.56006 21.4802L85.5601 0.000175908L85.5601 8.64018L16.0201 26.4002L85.5601 44.1002L85.5601 51.5402L16.0201 69.3002L85.5601 87.0002L85.5601 95.6402L1.56006 74.2802L1.56006 64.3202L66.0601 47.8202L1.56006 31.3202L1.56006 21.4802ZM5.21694e-05 142.99C5.24177e-05 137.31 1.12005 131.97 3.36005 126.97C5.64005 121.97 8.78005 117.57 12.7801 113.77C16.7801 109.97 21.4001 106.99 26.6401 104.83C31.9201 102.67 37.5601 101.59 43.5601 101.59C49.5601 101.59 55.1801 102.67 60.4201 104.83C65.7001 106.99 70.3401 109.97 74.3401 113.77C78.3401 117.57 81.4601 121.97 83.7001 126.97C85.9801 131.97 87.1201 137.31 87.1201 142.99C87.1201 148.71 85.9801 154.07 83.7001 159.07C81.4601 164.07 78.3401 168.47 74.3401 172.27C70.3401 176.07 65.7001 179.03 60.4201 181.15C55.1801 183.31 49.5601 184.39 43.5601 184.39C37.5601 184.39 31.9201 183.31 26.6401 181.15C21.4001 179.03 16.7801 176.07 12.7801 172.27C8.78005 168.47 5.64005 164.07 3.36005 159.07C1.12005 154.07 5.19194e-05 148.71 5.21694e-05 142.99ZM8.40005 142.99C8.40005 147.59 9.32005 151.87 11.1601 155.83C13.0401 159.83 15.6001 163.33 18.8401 166.33C22.0801 169.37 25.8201 171.73 30.0601 173.41C34.3001 175.13 38.8001 175.99 43.5601 175.99C48.3601 175.99 52.8801 175.13 57.1201 173.41C61.4001 171.69 65.1401 169.31 68.3401 166.27C71.5801 163.27 74.1201 159.77 75.9601 155.77C77.8001 151.81 78.7201 147.55 78.7201 142.99C78.7201 138.39 77.7801 134.09 75.9001 130.09C74.0601 126.13 71.5201 122.63 68.2801 119.59C65.0401 116.59 61.3001 114.23 57.0601 112.51C52.8201 110.83 48.3201 109.99 43.5601 109.99C38.7201 109.99 34.1801 110.85 29.9401 112.57C25.7001 114.29 21.9601 116.65 18.7201 119.65C15.4801 122.69 12.9401 126.19 11.1001 130.15C9.30005 134.15 8.40005 138.43 8.40005 142.99ZM1.56005 196.568L85.5601 196.568L85.5601 225.068C85.5601 229.548 84.4601 233.588 82.26 237.188C80.1 240.788 77.16 243.648 73.4401 245.768C69.7601 247.888 65.6201 248.948 61.0201 248.948C56.9001 248.948 53.1601 248.108 49.8 246.428C46.44 244.748 43.66 242.448 41.46 239.528C39.26 236.648 37.8 233.388 37.08 229.748L1.56005 250.268L1.56005 240.548L36.4201 220.328L36.4201 204.968L1.56005 204.968L1.56005 196.568ZM44.8201 204.968L44.82 224.348C44.82 227.308 45.54 230.008 46.9801 232.448C48.46 234.928 50.4401 236.888 52.9201 238.328C55.4401 239.808 58.28 240.548 61.44 240.548C64.6 240.548 67.4201 239.808 69.9001 238.328C72.4201 236.888 74.4 234.928 75.8401 232.448C77.3201 230.008 78.0601 227.308 78.0601 224.348L78.0601 204.968L44.8201 204.968ZM1.56004 319.062L1.56004 308.202L39.3 280.662L30.72 273.522L1.56005 273.522L1.56005 265.122L85.5601 265.122L85.5601 273.522L43.8 273.522L85.5601 308.502L85.5601 319.482L45.9 286.182L1.56004 319.062ZM4.27873e-05 357.626C4.29832e-05 353.146 0.700043 348.806 2.10004 344.606C3.50004 340.446 5.50004 336.806 8.10004 333.686C10.7 330.566 13.8 328.366 17.4 327.086L20.34 334.946C17.86 335.826 15.72 337.426 13.92 339.746C12.16 342.106 10.8 344.846 9.84004 347.966C8.88004 351.126 8.40004 354.346 8.40004 357.626C8.40004 361.466 9.04004 365.046 10.32 368.366C11.6 371.686 13.38 374.366 15.66 376.406C17.98 378.446 20.7 379.466 23.82 379.466C26.98 379.466 29.58 378.406 31.62 376.286C33.66 374.166 35.26 371.426 36.42 368.066C37.62 364.746 38.54 361.266 39.18 357.626C40.18 351.906 41.54 346.766 43.26 342.206C44.98 337.686 47.4 334.106 50.52 331.466C53.68 328.826 57.84 327.506 63 327.506C67.84 327.506 72.04 328.906 75.6 331.706C79.16 334.506 81.92 338.186 83.88 342.746C85.8401 347.346 86.8201 352.306 86.8201 357.626C86.8201 361.986 86.14 366.246 84.78 370.406C83.42 374.566 81.44 378.226 78.84 381.386C76.24 384.586 73.06 386.886 69.3 388.286L66.42 380.306C68.94 379.426 71.08 377.806 72.84 375.446C74.64 373.126 76 370.406 76.92 367.286C77.88 364.166 78.36 360.946 78.36 357.626C78.4 353.826 77.76 350.266 76.44 346.946C75.16 343.666 73.36 341.006 71.0401 338.966C68.76 336.926 66.08 335.906 63 335.906C59.4 335.906 56.62 336.846 54.66 338.726C52.74 340.646 51.3 343.246 50.34 346.526C49.38 349.806 48.52 353.506 47.76 357.626C46.84 362.986 45.4 367.966 43.44 372.566C41.52 377.166 38.94 380.866 35.7 383.666C32.5 386.466 28.54 387.866 23.82 387.866C19.02 387.866 14.82 386.466 11.22 383.666C7.66004 380.866 4.90004 377.166 2.94004 372.566C0.980042 368.006 4.25513e-05 363.026 4.27873e-05 357.626Z" fill="white"/>
</svg>
