<svg width="754" height="384" viewBox="0 0 754 384" fill="none" xmlns="http://www.w3.org/2000/svg">
<g clip-path="url(#clip0_5300_2545)">
<path d="M752.675 97.7268C752.51 46.5849 711.25 5.45734 660.114 5.45734C640.806 5.45734 622.883 11.3734 608.047 21.4854C583.607 38.1504 567.556 66.2144 567.556 98.0326C567.556 104.942 568.316 111.674 569.751 118.15C577.152 140.005 593.704 157.639 614.841 166.494C624.378 170.486 634.845 172.694 645.829 172.694C676.733 172.694 703.56 155.235 716.982 129.638C721.169 121.658 732.723 124.236 732.464 134.123C732.124 147.072 731.614 152.071 731.309 157.184C744.705 141.071 752.743 120.338 752.667 97.7226" fill="#F6C100"/>
<path d="M102.485 33.6104L102.408 33.2877C102.336 32.9946 102.485 32.6931 102.757 32.5784C110.994 29.0577 119.75 19.3874 123.507 9.78923C123.019 9.87842 122.429 9.98459 121.809 10.0993C119.966 10.4348 117.669 10.851 117.032 10.9954C115.427 11.4073 113.869 11.832 112.671 12.4988C112.132 12.8131 111.856 12.9745 111.44 12.9745C110.68 12.9745 110.047 12.1505 109.3 11.0718C108.922 10.5282 108.485 9.77649 108.485 8.7912C108.485 8.19238 108.659 7.56383 108.816 7.01172L108.858 6.85883C108.922 6.621 109.126 6.44687 109.364 6.41715C109.61 6.38742 109.839 6.51483 109.954 6.72717L110.081 6.96925C110.23 7.25804 110.378 7.55533 110.714 7.9503C111.308 8.66379 111.516 8.77846 112.187 8.77846C113.979 8.77846 121.851 7.62753 122.849 7.21982C123.257 7.0457 123.41 6.95651 124.314 6.35344C124.679 6.07314 124.917 6.01368 125.193 6.01368C125.911 6.01368 128.858 8.34102 128.858 9.3518C128.858 10.2734 128.276 10.473 127.006 10.8765C126.977 10.9274 126.934 11.0124 126.904 11.0761C124.998 15.3867 123.159 18.2407 121.703 20.2792C127.257 23.1162 132.947 27.4269 132.947 31.4148C132.947 32.778 132.28 33.5892 131.167 33.5892C130.187 33.5892 129.749 32.8163 129.512 32.4043C127.028 28.2168 124.514 24.815 120.446 21.9695C116.968 26.4161 111.478 32.2684 103.19 34.0606C103.147 34.0691 103.109 34.0734 103.067 34.0734C102.795 34.0734 102.553 33.8865 102.485 33.6104ZM198.065 30.765C198.176 30.9603 198.375 31.0708 198.583 31.0708C198.664 31.0708 198.745 31.0538 198.821 31.0198C204.944 28.2932 208.26 23.4602 212.231 15.5099C212.443 15.1149 212.511 15.0045 212.57 14.9196C213.424 14.0489 213.602 13.8663 213.602 13.2505C213.602 11.7598 210.817 9.47071 208.405 9.47071C207.619 9.47071 207.241 9.60237 206.779 9.86992C206.583 9.98035 206.464 10.1927 206.473 10.422C206.481 10.6514 206.613 10.8552 206.812 10.9529C208.473 11.7598 208.987 12.6559 208.987 12.8895C208.987 14.1466 205.309 23.4814 198.04 29.7117C197.815 29.9028 197.76 30.2299 197.908 30.4847L198.065 30.765ZM56.5288 26.0551C56.9067 26.0551 57.1148 25.9489 58.2782 25.3671L58.8854 25.0656C60.2782 24.3351 65.2886 23.078 67.5391 22.5301C67.6155 22.9081 67.7174 23.3965 67.8278 23.9401C68.2227 25.8427 68.762 28.4504 68.8639 29.2148C68.9785 30.0982 68.9785 30.5951 68.9785 32.0645C68.9785 32.9267 69.0422 33.19 69.4329 33.9417C70.1929 35.4961 71.0209 36.286 71.8956 36.286C72.5156 36.286 73.2416 35.8231 73.2416 34.5108C73.2416 34.1116 73.0123 33.1475 72.6132 31.6144L72.5198 31.2491C72.4052 30.731 72.1461 29.4994 71.8447 28.0597C71.3861 25.8937 70.8298 23.2648 70.5326 21.9016C73.5176 21.2688 76.8211 20.6317 79.4453 20.5553C79.7425 20.5553 80.0397 20.5468 80.3369 20.5383C80.6342 20.5256 80.9399 20.5171 81.2711 20.5171C82.3878 20.4788 83.5385 20.4406 83.5385 18.9839C83.5385 18.1557 83.1436 17.7395 82.8167 17.5357C82.0821 17.0855 80.4728 16.8052 79.4028 16.8052C79.0589 16.8052 78.7871 16.8604 78.371 17.0176C78.0228 17.1747 76.3201 17.8882 75.9252 18.0326C75.3435 18.2152 73.0124 18.7163 71.3096 19.0858C70.8086 19.1963 70.3543 19.2939 69.9933 19.3704C69.5772 17.3955 69.1866 15.2593 68.8172 13.1953C73.4412 12.2312 74.766 12.1633 76.8084 12.1251C78.4941 12.1251 78.6257 10.9529 78.6257 10.5919C78.6257 9.9761 78.3285 9.4877 77.8232 9.21165C77.4283 8.92285 75.7681 8.45569 75.3944 8.45569C75.076 8.45569 74.9104 8.54487 74.214 8.91861L73.8998 9.08848C73.8998 9.08848 73.8955 9.08848 73.8913 9.09273C72.6684 9.768 70.1674 10.2904 68.3713 10.6386C68.0656 8.82942 67.934 7.44066 67.934 7.07118C67.9382 6.95226 67.9977 6.68046 68.0529 6.39166C68.1335 5.97546 68.21 5.53802 68.21 5.37239C68.21 4.8033 67.9722 4.35737 67.5306 4.08981C66.9191 3.70758 64.6729 3.15548 63.7175 3.15548C62.5923 3.15548 61.6582 3.8902 61.1529 4.28517C60.9576 4.43806 60.8769 4.69288 60.9406 4.93496C61.0043 5.17279 61.2081 5.35116 61.4501 5.37664C64.1167 5.67393 64.2568 5.69092 65.3311 11.2205C64.1379 11.4498 61.811 11.9042 61.2081 12.0316C60.1932 12.2312 59.7644 12.3034 59.3568 12.3034C58.6392 12.3034 57.2379 11.8872 56.3717 10.9656C56.2104 10.7958 55.9641 10.7321 55.7475 10.8127C55.5267 10.8892 55.3696 11.0888 55.3442 11.3224C55.3144 11.6069 55.2168 12.4776 55.6414 13.2378C56.3293 14.5925 58.1466 15.9728 59.2379 15.9728C59.5606 15.9728 59.7771 15.8921 60.1381 15.7052C61.4289 15.0809 62.3036 14.6605 65.8534 13.8111C66.1421 15.2466 66.7535 18.3766 67.0635 19.9734C65.1485 20.3599 60.4183 21.3325 59.2379 21.5788C57.1488 22.012 56.8982 22.0502 56.4482 22.0502C56.1339 22.0502 55.0214 21.927 53.8622 20.3684C53.7136 20.1646 53.4504 20.0754 53.2126 20.1518C52.9706 20.224 52.805 20.4449 52.788 20.6997C52.7498 21.324 52.6903 22.2711 53.0258 23.0482C53.5523 24.3903 55.4843 26.0424 56.5288 26.0424M147.345 150.712C141.265 150.712 138.034 146.049 137.125 141.929C134.798 143.713 133.635 146.732 133.635 149.612C133.635 157.159 144.373 168.549 151.099 168.549C154.203 168.549 153.816 164.982 160.024 161.69C191.59 144.401 218.498 120.393 234.412 80.051L231.954 78.5433C207.891 122.312 157.697 150.716 147.345 150.716M155.884 93.2208C157.697 96.6523 160.801 99.9437 164.037 99.9437C168.304 99.9437 171.671 96.6523 171.671 91.849C171.671 77.8553 149.808 71.4041 133.38 70.3084L132.734 72.5041C143.728 77.1673 152.398 86.9098 155.889 93.2208M152.322 26.0254C152.492 26.242 152.785 26.3142 153.031 26.2037C157.562 24.1525 162.101 21.1286 166.89 16.9708C166.924 17.3021 167.204 23.3243 167.204 24.2841C167.204 25.8682 166.971 30.0982 166.682 31.436C166.185 32.9946 166.185 33.2919 166.185 33.3896C166.185 34.0521 167.022 36.7277 168.788 36.7277C170.211 36.7277 170.211 35.4961 170.211 33.7888V20.0287C170.211 19.0434 170.211 18.3341 170.385 17.867C170.406 17.8075 170.453 17.6928 170.504 17.5612C170.737 16.9963 170.839 16.7245 170.839 16.4994C170.839 15.752 170.168 15.2211 169.328 14.7709C170.449 13.7049 171.323 12.8088 174.949 9.10972C176.079 7.95455 176.13 7.91632 176.729 7.67849C177.251 7.44916 177.794 7.21133 177.794 6.38742C177.794 5.56351 177.446 5.17703 176.92 4.64192C176.317 3.99638 174.69 2.48446 172.635 2.48446C172.037 2.48446 171.536 2.6416 171.047 2.79024C170.822 2.85819 170.657 3.0578 170.627 3.29988C170.597 3.54195 170.708 3.77554 170.911 3.8987C171.102 4.01761 172.109 4.64616 172.342 4.80755C172.665 5.02839 172.665 5.18977 172.665 5.41911C172.665 5.52528 172.665 5.84805 172.156 6.57853C169.149 10.7023 161.842 17.9816 152.284 24.9381C152.148 25.0358 152.059 25.1845 152.037 25.3501C152.016 25.5157 152.059 25.6856 152.16 25.8173L152.318 26.0169L152.322 26.0254ZM3.66437 22.8062C4.2843 22.8062 4.77261 22.5556 5.03163 22.4197C5.03587 22.4197 5.16326 22.3475 5.1675 22.3433C7.35426 21.1414 7.56657 21.0224 11.3626 19.8206C11.3159 21.341 11.3159 22.5938 11.3159 24.1185C11.3159 30.0005 11.5452 31.1684 12.9549 32.468C14.7043 34.1583 17.5153 34.1583 19.7742 34.1583C24.1265 34.1583 28.224 33.6699 28.9841 33.4108C30.1093 33.0668 30.2749 32.3194 30.2749 31.9032C30.2749 31.3553 30.0032 30.9901 29.7611 30.6843C29.2176 30.1916 27.5914 29.9283 27.0436 29.9283C26.6445 29.9283 26.2284 30.026 25.8972 30.1067L25.7231 30.1492C23.1202 30.7947 20.6956 31.1345 18.7127 31.1345C14.56 31.1345 14.3986 30.8414 14.3986 23.3625C14.3986 21.634 14.4283 19.9947 14.4623 18.8395C15.2861 18.5762 16.9336 18.0623 17.3921 17.9307C21.9355 16.5079 24.0076 15.8666 25.1413 15.5141C23.7274 17.9986 21.9398 20.4024 20.6192 21.961C20.4154 22.2031 20.4281 22.5641 20.6489 22.7934L20.8867 23.0355C21.0948 23.2479 21.4345 23.2733 21.6723 23.0907C24.6955 20.7464 25.9906 19.6889 28.6869 17.06C29.1752 16.5631 29.3493 16.4867 29.4639 16.4655C29.5573 16.457 29.7612 16.4824 29.9098 16.4952C30.0372 16.5079 30.1433 16.5164 30.1858 16.5164C31.6464 16.5164 31.8078 15.5863 31.8078 15.1829C31.8078 14.0277 28.6274 11.2842 27.5956 11.2842C27.137 11.2842 26.7931 11.5347 26.3685 11.883C25.3621 12.7664 25.2772 12.8386 20.6744 14.2358C20.1182 14.3929 18.3475 14.9238 16.7128 15.4122C15.9315 15.6458 15.1799 15.8709 14.6067 16.0408C14.7383 13.8833 15.0016 9.88691 15.3837 8.63831C15.4262 8.50665 15.8126 7.33874 15.8126 7.04145C15.8126 5.50405 13.422 4.26394 11.4433 4.26394C10.2247 4.26394 9.54103 4.58246 8.56017 5.04113C8.32663 5.15155 8.18651 5.39787 8.21198 5.65694C8.23746 5.916 8.42005 6.1326 8.66632 6.19206C10.5474 6.65498 11.1673 7.64876 11.197 7.70822C11.2819 7.85262 11.5495 8.67653 11.5495 13.1783C11.5495 14.4694 11.5197 15.5481 11.4943 16.3423C11.49 16.5759 11.4815 16.784 11.4773 16.9666C6.69187 18.3469 4.85753 18.865 3.77477 18.865C3.34591 18.865 2.86609 18.865 1.22708 16.6608C1.08271 16.4655 0.840683 16.3848 0.615638 16.4357C0.386346 16.4909 0.208008 16.6778 0.161301 16.9156C-0.00854492 17.816 -0.00854492 18.1388 -0.00854492 18.5167C-0.00854492 19.2812 0.106101 20.2113 1.48185 21.6128C2.10603 22.1946 2.83637 22.8147 3.65587 22.8147M441.9 217.568C441.535 218.162 441.174 218.752 440.813 219.343C452.499 223.675 458.872 228.07 462.914 231.922C466.354 235.511 468.965 239.176 473.525 239.015C478.077 238.849 480.994 236.038 480.96 231.676C480.969 222.142 465.763 216.412 441.9 217.572M509.397 28.8114C509.397 27.274 509.838 26.7771 510.84 25.8003C517.061 19.6974 524.645 8.85065 524.916 7.16886C524.084 7.27503 520.658 8.28156 519.354 9.10972C518.212 9.85294 517.796 10.0058 517.503 10.0058C516.063 10.0058 513.685 7.98003 513.685 5.82257C513.685 5.1558 513.995 4.80755 514.293 4.55273C514.441 4.42957 514.641 4.3786 514.823 4.42957C515.01 4.47628 515.159 4.61219 515.231 4.79481C515.596 5.72489 516.263 6.17507 517.269 6.17507C517.974 6.17507 521.927 5.2917 524.288 4.55698C525.524 4.18749 526.178 4.00912 526.504 4.00912C527.906 4.00912 529.698 5.79284 529.698 7.18585C529.698 7.96304 529.405 8.17539 528.623 8.74448L528.403 8.91011C527.715 9.44523 527.507 9.60661 526.929 10.3371L525.226 12.4861C523.273 14.9493 520.437 18.5252 519.702 19.4766L519.481 19.7738C519.426 19.846 519.375 19.914 519.316 19.9904C521.464 18.9075 524.088 18.0113 527.209 18.0113C532.776 18.0113 536.372 21.2433 536.372 26.2462C536.372 31.7842 531.434 35.9633 524.887 35.9633C520.84 35.9633 516.743 34.2517 516.743 30.9816C516.743 28.1021 519.227 27.0829 521.35 27.0829C524.432 27.0829 526.619 28.9006 527.846 32.4892C531.078 31.7333 532.814 28.6372 532.814 25.9659C532.814 21.8039 529.651 20.3174 526.691 20.3174C519.8 20.3174 514.237 27.0064 513.69 27.9577C512.641 29.7584 512.063 30.7437 510.853 30.7437C510.144 30.7437 509.388 30.2341 509.388 28.8114M524.64 33.1263C524.008 31.1812 521.923 29.8264 520.645 29.8264C520.152 29.8264 519.316 30.043 519.316 30.8584C519.316 32.2387 522.849 33.1772 524.025 33.1772C524.186 33.1772 524.381 33.1772 524.64 33.1263ZM459.386 92.6347C461.335 96.0323 464.608 99.2684 467.971 99.226C472.409 99.1708 475.882 95.8539 475.852 91.0506C475.806 77.0314 452.647 70.8053 435.217 70.3339C435.013 71.0729 434.805 71.8119 434.601 72.5508C446.359 76.8233 455.649 86.3917 459.382 92.6347M155.952 208.093C152.687 208.254 150.194 209.706 148.437 212.484C148.479 212.526 148.521 212.573 148.564 212.616C153.09 213.138 156.211 214.599 156.377 218.672C156.678 227.968 139.639 286.483 78.9697 317.392C79.5302 318.212 80.0949 319.032 80.6639 319.851C130.403 304.112 156.041 267.011 168.355 233.587C169.561 230.372 170.941 228.363 172.139 227.45C174.266 225.378 176.164 223.985 176.019 221.95C175.514 215.754 163.268 207.774 155.948 208.088M27.9565 268.867L27.8249 240.119C27.8249 235.507 28.0924 232.661 28.8864 230.355C29.5488 228.457 30.2155 226.694 30.2155 225.879C30.2155 219.372 19.1925 214.896 13.4772 214.896C9.75758 214.896 6.4371 216.795 5.64307 218.693L5.7747 219.237C15.6045 219.916 15.6045 230.763 15.6045 238.356C15.6045 241.202 15.4729 249.611 15.2054 254.491C14.9421 261.137 13.4772 263.983 13.4772 266.153C13.4772 272.795 16.5344 280.257 21.7147 280.257C25.9651 280.257 27.9565 275.917 27.9565 268.867ZM14.6024 97.6121C16.8019 97.6121 19.3878 95.4165 20.6829 94.7284C31.1624 89.7892 87.0501 86.0859 87.3091 86.0859C87.9588 86.0859 88.2178 86.2218 88.2178 86.4978C88.2178 88.4175 75.7978 108.038 56.5203 125.056C49.5354 120.393 37.8883 115.59 27.5404 112.706L26.5044 114.766C42.2873 125.196 53.2848 136.858 60.5287 151.128C63.6369 157.439 64.9277 162.518 70.2311 162.518C74.8849 162.518 77.9931 158.399 77.9931 153.464C77.9931 144.269 69.9721 134.939 60.0107 127.668C75.7936 119.297 94.035 104.208 103.092 93.9173C104.383 92.4054 106.455 91.7216 107.877 91.3096C110.077 90.6216 112.276 89.6618 112.276 88.2901C112.276 84.8585 100.115 73.0605 96.4935 73.0605C94.294 73.0605 91.4448 78.4116 87.3049 78.8236C68.9361 80.6073 38.143 82.5269 20.2923 82.803C12.5261 82.803 6.57722 80.6073 3.85969 72.9246C1.27379 73.4724 0.365116 77.4518 0.365116 79.7834C0.365116 86.2303 9.55377 97.6206 14.5982 97.6206M81.8868 215.848C81.8868 211.24 70.0655 205.137 62.7579 205.137C59.0383 205.137 55.3187 207.715 54.5204 210.016L54.652 210.424C63.9511 209.881 65.2801 218.018 65.2801 231.982V252.456C65.2801 283.642 50.4016 305.747 20.9122 317.405L22.2412 319.983C63.1528 309.947 78.8296 287.574 78.8296 253.675V235.779C78.8296 229.404 78.9612 226.694 78.9612 223.301C78.9612 222.082 79.3603 220.32 79.8911 219.504C80.5535 218.285 81.8825 217.334 81.8825 215.843M372.399 8.20087C373.919 8.82092 375.575 9.58963 377.384 11.0166C377.452 11.0676 377.58 11.1907 377.737 11.3351C378.671 12.21 379.134 12.5752 379.579 12.5752C380.56 12.5752 381.002 11.6324 381.002 10.9614C381.002 8.06497 375.953 6.78238 374.038 6.78238C373.299 6.78238 372.913 6.87582 372.416 7.05844C372.183 7.14762 372.03 7.36846 372.021 7.62328C372.017 7.8781 372.17 8.10744 372.399 8.20087ZM351.793 19.0349C352.387 19.0349 352.91 18.7036 353.602 18.2619C354.761 17.5272 355.814 17.0345 358.001 16.2404C355.945 21.2858 354.179 25.4393 351.173 30.2086C349.806 32.3618 349.704 32.5444 349.704 33.3896C349.704 34.1795 350.158 35.7254 351.207 35.7254C352.005 35.7254 352.4 35.1308 352.519 34.9482C355.02 31.385 357.984 23.9401 361.126 16.0577L361.516 15.0767C362.884 14.6817 363.682 14.5416 364.489 14.5416C366.408 14.5416 366.561 16.2234 366.561 18.4233C366.561 20.4576 366.298 25.7238 363.835 30.663C363.538 31.2661 363.189 31.5719 362.794 31.5719C362.043 31.5719 361.737 31.3765 358.68 29.2446L358.022 28.7859C357.856 28.6712 357.644 28.6457 357.461 28.7264C357.275 28.8029 357.139 28.9685 357.1 29.1724L357.062 29.372C357.024 29.5588 357.075 29.7584 357.202 29.8986C358.353 31.2194 360.081 33.585 360.332 34.583C360.697 36.1119 360.833 36.6852 361.856 36.6852C362.468 36.6852 363.457 36.2818 364.217 35.7212C368.799 32.2344 369.805 22.4282 369.805 18.9457C369.805 16.8647 369.805 11.9977 364.569 11.9977C363.966 11.9977 363.342 12.0614 362.68 12.1888C363.334 10.524 363.801 9.4155 364.684 7.79741C365.032 7.23256 365.206 6.68895 365.206 6.19206C365.206 4.09406 361.699 3.01533 360.204 3.01533C359.202 3.01533 358.765 3.29563 358.302 3.66511C358.124 3.80526 358.052 4.03885 358.094 4.26394C358.137 4.48903 358.311 4.67589 358.523 4.7396C359.296 4.97318 361.092 5.65269 361.092 6.87157C361.092 8.09045 359.886 11.3309 359.236 13.0254C358.506 13.2378 357.725 13.4544 356.939 13.671C355.538 14.0617 354.132 14.4481 353.024 14.7964C351.937 15.1404 351.631 15.1701 351.394 15.1701C350.68 15.1701 350.213 14.9153 349.355 13.3907C349.245 13.191 349.024 13.0551 348.803 13.0849C348.578 13.0976 348.379 13.2378 348.29 13.4459C348.103 13.8748 348.001 14.1976 348.001 14.6562C348.001 17.5017 350.685 19.0391 351.784 19.0391M378.586 19.4681C378.586 19.8248 378.17 20.0329 377.979 20.1051C377.605 20.258 376.081 20.7082 374.051 20.7846C373.728 20.7974 373.474 21.0649 373.474 21.3962V21.6765C373.474 21.9695 373.673 22.2201 373.953 22.2753C374.166 22.3178 374.616 22.3985 375.172 22.4961C376.582 22.7467 378.943 23.1587 379.529 23.3753C379.613 23.4092 379.792 23.5154 379.996 23.6301C380.756 24.0633 381.121 24.2501 381.418 24.2501C382.051 24.2501 382.807 23.8382 382.807 21.8718C382.807 19.7101 381.584 17.3021 379.363 15.0852C376.887 12.6135 373.716 10.9104 371.597 10.9104C371.567 10.9104 371.537 10.9104 371.508 10.9104C371.244 10.9147 371.015 11.0973 370.947 11.3564C370.875 11.6154 370.981 11.8915 371.202 12.0359C376.365 15.3825 378.505 18.8905 378.586 19.4638M375.792 5.12607C377.316 5.58474 379.478 6.36194 381.066 7.47889C381.142 7.5341 381.282 7.66575 381.452 7.82289C382.543 8.82093 383.074 9.24137 383.545 9.24137C384.255 9.24137 384.734 8.64255 384.734 7.74644C384.734 4.53574 380.361 3.68635 378.042 3.68635C377.193 3.68635 376.548 3.78828 375.839 3.93692C375.571 3.99638 375.372 4.22996 375.363 4.51026C375.355 4.79056 375.529 5.04113 375.792 5.12182M472.689 5.98396C473.636 6.58702 473.733 6.79937 473.725 6.78663C473.704 6.81636 473.623 6.88006 473.623 6.88006C472.366 7.71247 472.086 7.8781 471.16 8.43445L470.697 8.7105C470.515 8.82093 470.404 9.02053 470.404 9.23713V9.44098C470.404 9.63209 470.489 9.81047 470.638 9.92514C470.744 10.0058 470.872 10.0525 470.999 10.0525C471.054 10.0525 471.105 10.0441 471.156 10.0313C471.377 9.9676 471.564 9.92938 471.763 9.89116C471.946 9.85294 472.137 9.81047 472.353 9.7595L473.64 9.44948C474.85 9.15644 475.096 9.09273 475.521 9.09273C475.67 9.09273 476.107 9.16918 476.553 9.24137C477.236 9.34755 477.661 9.4155 477.882 9.4155C479.453 9.4155 479.619 8.34102 479.619 7.88235C479.619 5.9967 477.13 4.89673 475.988 4.39135C473.024 3.12575 471.525 1.89838 469.942 0.199595C469.759 -1.2395e-05 469.462 -0.046729 469.224 0.0849268C468.986 0.216583 468.863 0.488388 468.923 0.755947C469.203 2.01305 469.623 3.90719 472.685 5.99245M403.273 28.4122C403.124 28.2975 403.039 28.1191 403.039 27.928V27.6052C403.039 27.3716 403.171 27.1593 403.375 27.0531C406.946 25.2864 410.551 23.0695 414.398 20.275C414.483 19.6762 414.508 19.3067 414.474 18.5635C414.466 18.3384 414.576 18.126 414.767 18.0113C414.958 17.8967 415.196 17.9009 415.383 18.0113L416.529 18.7206C417.935 17.6334 419.098 16.6523 420.211 15.6161H410.003C408.627 15.6161 406.453 15.8242 405.044 16.0875C404.797 16.1299 404.53 16.0068 404.407 15.7732L403.502 14.0489C403.4 13.8493 403.409 13.6115 403.532 13.4246C403.651 13.2378 403.884 13.1316 404.08 13.1486C407.464 13.4246 410.525 13.4289 410.555 13.4289H417.489C417.481 12.4223 417.489 10.6981 417.498 9.47496V8.99505H413.621C412.245 8.99505 410.109 9.15644 408.674 9.46222C408.402 9.51743 408.148 9.39002 408.02 9.15219L407.12 7.42792C407.018 7.23256 407.031 6.99049 407.15 6.80362C407.269 6.61675 407.506 6.50633 407.697 6.53181C411.065 6.80787 414.143 6.80787 414.177 6.80787H417.506C417.485 2.86244 417.243 2.36979 416.912 1.69877C416.81 1.48642 416.831 1.22311 416.971 1.03625C417.115 0.84938 417.34 0.7517 417.574 0.811157L421.073 1.65206C422.041 1.93235 422.24 2.45473 422.24 2.84545C422.24 3.35933 421.892 3.67786 421.514 3.94966L421.362 4.06858C421.196 4.19598 421.052 4.30641 420.878 4.42957V4.4593C420.839 4.90523 420.797 5.44459 420.788 6.80787H422.954L423.756 5.72489C424.049 5.35965 424.33 5.00291 424.822 5.00291C425.166 5.00291 425.548 5.21101 425.952 5.62296L427.31 6.88856C427.446 7.02446 427.574 7.15187 427.676 7.29627C428.457 6.22603 429.225 5.09209 429.935 3.92843C430.639 2.78599 430.686 2.38678 430.754 1.77522C430.775 1.55862 430.911 1.37176 431.106 1.28682C431.298 1.19763 431.527 1.22311 431.697 1.35052L434.839 3.67786C435.047 3.77554 435.48 4.22996 435.48 4.73535C435.48 5.24074 434.992 5.63995 434.584 5.86929C434.35 5.9882 433.964 6.07314 432.958 6.22603C431.187 8.40897 428.822 11.2417 426.737 13.4331H434.053L435.408 11.8023C435.807 11.3139 436.049 11.1058 436.491 11.1058C436.992 11.1058 437.361 11.4158 437.624 11.6876L439.327 13.5435C439.59 13.8578 439.841 14.1636 439.841 14.601C439.841 14.7709 439.786 15.6118 438.652 15.6118H424.589C422.55 17.6376 420.219 19.6549 417.659 21.6085L417.502 22.4027C419.574 21.6892 424.368 19.914 427.875 17.6164C428.325 17.3276 428.351 17.2426 428.444 16.8859C428.504 16.6736 428.665 16.5122 428.873 16.457C429.077 16.4018 429.302 16.4655 429.45 16.6226L431.731 18.9881C432.215 19.5318 432.452 19.7951 432.452 20.2198C432.452 20.5977 432.185 21.2305 431.187 21.2305C430.775 21.2305 430.393 21.1583 429.633 21.0182H429.612C426.376 22.4324 420.487 23.8891 417.137 24.3096C417.043 24.764 416.916 25.4563 416.818 25.9871H429.412L430.431 25.193C431.047 24.7215 431.276 24.5432 431.663 24.5432C432.109 24.5432 432.338 24.7385 432.771 25.142L434.444 26.3396C434.873 26.6284 435.289 26.913 435.289 27.5203C435.289 28.7901 433.79 29.0067 432.741 29.1002C430.389 34.7146 428.019 38.9871 422.164 38.9871C421.88 38.9871 421.591 38.9786 421.289 38.9574C421.047 38.9404 420.839 38.7747 420.763 38.5412C420.207 36.8339 419.391 35.6192 418.338 34.9355C418.202 34.8463 418.105 34.7062 418.075 34.5448C418.041 34.3834 418.075 34.2178 418.16 34.0818L418.317 33.8398C418.466 33.6062 418.759 33.5043 419.018 33.6019C420.635 34.2008 422.495 34.8081 424.003 34.8081C425.285 34.8081 425.994 34.5278 427.073 32.8035C428.151 31.109 428.873 29.6183 429.31 28.1658H416.402C416.156 29.4696 416.092 29.7245 415.842 30.077C415.341 30.8839 413.68 30.8966 413.663 30.8966C413.048 30.8966 412.632 30.4762 412.632 29.8434C412.632 29.6098 412.721 29.2403 412.903 28.5523C412.946 28.3909 412.984 28.2635 412.992 28.2041C413.307 26.7346 413.574 25.4011 413.786 24.2162C410.623 26.1358 407.264 27.5798 403.791 28.5098C403.613 28.5523 403.417 28.5183 403.273 28.4037M420.78 13.4416H422.453C423.578 12.3247 424.967 10.7873 426.376 9.00354H420.78V13.4416ZM461.848 37.0462C462.817 37.0462 463.071 36.7787 466.332 32.3109L466.43 32.1835C469.343 28.2678 469.869 27.618 471.283 27.618C472.884 27.618 473.169 28.3739 473.767 30.6121C474.914 35.1096 476.447 36.6045 483.266 36.6045C485.525 36.6045 488.073 36.1671 488.82 35.7891C489.661 35.3984 489.839 34.7656 489.839 34.3112C489.839 33.2622 488.34 32.3363 487.436 32.3363C487.155 32.3363 486.663 32.4807 485.669 32.7865C485.304 32.8969 484.981 33.0031 484.833 33.0328C483.461 33.3301 482.005 33.5 480.833 33.5C477.818 33.5 477.487 32.6464 476.697 29.3847C476.285 27.7326 475.716 25.4733 471.988 25.4733C471.908 25.4733 471.827 25.4733 471.751 25.4733C477.27 19.5403 479.27 18.2152 480.417 17.455C481.326 16.8095 481.665 16.5674 481.665 15.8114C481.665 14.4099 479.249 12.8343 477.963 12.8343C477.631 12.8343 477.432 12.915 476.281 13.3991C473.963 14.3675 468.842 15.8029 467.313 15.8029C466.473 15.8029 465.717 15.3697 465.071 14.5161C464.918 14.308 464.642 14.1848 464.409 14.2698C464.167 14.3547 464.006 14.5458 464.006 14.8049C463.993 14.8813 463.933 15.0852 463.882 15.289C463.747 15.8072 463.725 15.8964 463.725 16.0068C463.725 17.0855 465.704 19.6252 467.509 19.6252C468.277 19.6252 468.859 19.243 469.526 18.8013C471.542 17.455 475.381 16.3338 476.192 16.3338C476.336 16.3338 476.417 16.3635 476.345 16.3805C476.2 16.6736 475.152 17.9816 470.973 22.5683L470.68 22.8869C464.082 30.0685 463.437 30.7607 462.12 31.7842C461.02 32.6294 460.222 33.241 460.222 34.8166C460.222 36.1629 460.859 37.0335 461.844 37.0335M261.244 66.3078C260.891 66.9109 260.539 67.5139 260.187 68.117C270.398 72.6825 276.029 77.2819 279.604 81.2146C282.627 84.884 284.954 88.5619 289.145 88.5321C293.336 88.5067 296.032 85.8948 296.024 81.6393C296.032 72.4616 282.47 65.5518 261.244 66.3078ZM252.038 26.0254C252.208 26.242 252.501 26.3142 252.747 26.2037C257.278 24.1525 261.817 21.1286 266.607 16.9708C266.641 17.3021 266.917 23.3243 266.917 24.2841C266.917 25.8682 266.683 30.0982 266.394 31.436C265.898 32.9946 265.898 33.2919 265.898 33.3896C265.898 34.0521 266.734 36.7277 268.5 36.7277C269.923 36.7277 269.923 35.4961 269.923 33.7888V20.0287C269.923 19.0434 269.923 18.3341 270.097 17.867C270.114 17.8075 270.165 17.6928 270.216 17.5612C270.449 16.9963 270.551 16.7245 270.551 16.4994C270.551 15.752 269.88 15.2211 269.04 14.7709C270.161 13.7049 271.035 12.8088 274.662 9.10972C275.791 7.95455 275.838 7.91632 276.441 7.67849C276.967 7.44916 277.511 7.21133 277.511 6.38742C277.511 5.56351 277.163 5.17703 276.636 4.64192C276.033 3.99638 274.407 2.48446 272.352 2.48446C271.757 2.48446 271.26 2.63735 270.764 2.79024C270.539 2.85819 270.373 3.0578 270.343 3.29988C270.314 3.53771 270.424 3.77554 270.628 3.8987C270.819 4.01761 271.825 4.64616 272.059 4.80755C272.381 5.02839 272.381 5.18977 272.381 5.41911C272.381 5.52528 272.381 5.84805 271.872 6.57853C268.866 10.7023 261.558 17.9816 252 24.9381C251.864 25.0358 251.775 25.1845 251.754 25.3501C251.732 25.5157 251.775 25.6856 251.877 25.8173L252.034 26.0169L252.038 26.0254ZM228.536 26.9894C228.663 27.5373 228.965 28.8199 230.374 28.8199C231.682 28.8199 232.349 27.8855 232.349 26.0424C232.349 19.9904 224.825 13.2123 223.967 12.4606C223.967 12.4606 223.967 12.4606 223.963 12.4606C222.604 11.2884 221.114 10.3881 219.542 9.78923C219.275 9.67881 218.978 9.78923 218.825 10.0356C218.676 10.2819 218.714 10.6004 218.923 10.8043C222.574 14.3335 226.574 19.0179 228.54 26.9894M264.98 111.648C267.842 114.744 270.292 117.989 273.35 117.938C278.003 117.862 280.632 114.817 280.593 110.973C280.521 101.659 266.713 95.4292 245.97 96.6523C245.677 97.3955 245.384 98.1345 245.096 98.8777C254.488 102.407 261.435 107.745 264.976 111.648M301.99 32.7526C302.499 32.7526 302.898 32.4001 303.039 32.2557L303.174 32.1113C303.285 31.9923 303.45 31.814 303.595 31.6781C303.828 31.6101 304.38 31.4785 304.537 31.453C307.616 30.6588 310.503 30.0175 314.452 29.1766C317.093 28.6203 320.18 27.877 321.773 27.4863C322.057 28.1488 322.558 29.4229 323 31.0155C323.479 32.812 323.747 33.8015 324.987 33.8015C325.896 33.8015 326.881 32.8163 326.881 31.2236C326.881 28.9473 325.564 26.2335 322.736 22.6915C319.726 18.9499 317.866 18.0581 316.639 17.472C316.384 17.3531 316.083 17.4253 315.913 17.6504C315.739 17.8754 315.743 18.1897 315.921 18.4106C318.945 22.1861 319.93 23.749 320.77 25.3713C319.416 25.5837 317.013 25.9702 315.34 26.2377L312.427 26.6624C310.686 26.8875 307.909 27.24 306.185 27.4566C309.221 22.5896 312.805 15.3485 313.82 13.0636C314.295 11.9849 314.516 11.4965 314.817 11.2205L314.966 11.0803C315.705 10.4008 315.955 10.1715 315.955 9.52167C315.955 8.93559 315.718 8.55337 315.212 7.9503C314.202 6.79512 312.635 5.41911 310.915 5.41911C310.491 5.41911 309.909 5.49555 309.327 5.6357C309.094 5.69092 308.915 5.88628 308.873 6.12835C308.835 6.37043 308.936 6.61251 309.14 6.74841C309.828 7.19434 311.259 8.12442 311.259 8.9993C311.259 9.54716 310.312 12.3247 309.926 13.3057C308.996 15.7095 308.461 16.8519 303.298 27.7836C300.593 27.9365 300.389 27.6902 299.306 26.3736C299.149 26.1825 298.886 26.1061 298.661 26.1867C298.427 26.2632 298.266 26.4798 298.249 26.7304C298.134 28.5608 299.264 30.4889 300.359 31.6781C301.017 32.3916 301.565 32.7526 301.99 32.7526ZM294.198 225.743C296.856 225.743 298.185 223.029 298.185 220.455C298.185 215.032 290.478 208.793 278.258 204.997L276.929 206.895C283.302 210.828 287.952 217.606 289.281 221.81C290.211 224.252 291.54 225.743 294.198 225.743ZM267.048 151.404C262.738 151.493 259.286 148.839 257.172 142.855C254.705 144.159 253.745 147.48 253.843 151.319C254.042 158.029 265.588 168.978 271.248 168.749C273.829 168.566 274.696 165.946 275.982 164.689C277.005 163.712 278.033 162.599 281.001 161.053C307.565 147.098 337.492 122.95 355.754 85.5762C355.045 85.0963 354.336 84.6122 353.623 84.1323C331.152 117.369 296.351 139.823 273.035 149.918C270.827 150.916 268.878 151.366 267.048 151.4M263.91 217.338L262.581 219.237C268.955 223.169 273.609 229.816 274.933 234.152C275.732 236.59 277.192 238.085 279.85 238.085C282.508 238.085 283.838 235.511 283.838 232.933C283.838 228.321 278.258 221.679 263.91 217.338ZM451.688 150.296C445.548 150.444 442.159 145.887 441.123 141.798C438.805 143.653 437.718 146.711 437.803 149.591C438.053 157.125 449.119 168.175 455.815 168.044C458.923 167.98 458.46 164.413 464.647 161.019C496.085 143.229 523.795 119.841 541.752 80.0892C540.907 79.5583 540.058 79.0274 539.213 78.4966C512.382 121.149 462.027 149.816 451.688 150.296ZM457.441 268.472C462.316 268.582 464.991 265.579 464.842 261.727C464.57 252.269 449.462 246.4 427.022 246.511C426.763 247.199 426.504 247.891 426.245 248.575C436.677 252.486 444.388 257.943 448.333 261.927C451.526 265.078 454.235 268.395 457.441 268.467M258.862 240.255C249.032 231.306 243.72 228.457 236.812 228.457C228.442 228.457 222.332 234.016 201.743 253.136C199.484 255.442 195.632 257.612 194.036 257.612C190.448 257.612 188.456 254.087 187.794 250.019H186.597C185.268 251.645 184.206 254.898 184.206 257.612C184.206 264.934 192.308 276.188 199.484 276.188C203.471 276.188 205.195 269.682 207.853 266.153C213.301 258.967 220.341 250.286 225.92 244.319C229.504 240.251 233.491 236.997 237.079 236.997C241.597 236.997 246.777 242.149 253.287 249.199C262.717 259.37 282.16 284.287 289.999 296.761C295.179 305.029 297.701 310.865 302.087 310.865H302.219C307.268 310.865 310.321 306.388 310.452 302.32C310.452 295.134 295.778 280.839 288.207 272.294C281.43 264.836 268.029 248.519 258.866 240.246M419.718 259.88C419.718 254.448 410.895 252.55 405.014 252.388C403.32 252.473 399.133 254.151 391.439 254.503L329.441 256.792C321.072 257.175 313.263 257.183 311.679 250.023L310.885 250.197C309.077 252.061 308.512 253.943 308.512 257.175C308.512 262.25 316.771 270.905 322.197 270.905C324.121 270.905 325.475 269.928 327.174 269.185C329.662 268.179 332.375 267.656 335.203 267.249C341.653 266.531 357.716 265.771 368.574 265.605C377.962 265.461 399.125 265.469 403.647 265.401C406.25 265.511 409.642 265.465 411.566 265.435C416.657 265.363 419.71 263.609 419.71 259.884M411.001 108.986C409.651 108.986 408.674 110.2 407.57 111.3C406.593 112.294 405.489 113.288 403.528 113.398C397.401 113.84 378.909 114.281 372.17 114.281C368.616 114.281 366.289 114.171 364.943 113.398C363.72 112.515 362.124 110.973 361.758 109.317H361.393C360.166 110.311 359.678 112.625 359.678 114.281C359.678 117.921 365.682 122.996 368.99 122.996C370.336 122.996 371.317 122.223 372.786 121.671C380.993 119.025 402.674 117.811 406.959 117.811L407.324 118.142C407.324 122.665 407.201 129.613 407.078 136.455C405.978 135.903 404.509 135.461 403.158 135.461C401.562 135.461 399.235 136.124 396.789 136.344C392.505 137.007 380.132 137.559 375.478 137.559C372.781 137.559 368.251 137.007 366.659 133.478H366.289C365.189 134.472 365.066 135.576 365.066 137.559C365.066 140.647 370.089 145.501 374.497 145.501C375.597 145.501 376.454 144.618 377.681 144.176C378.909 143.734 380.501 143.182 382.335 142.961C388.458 142.188 402.054 141.305 406.954 141.305C406.831 148.032 406.708 157.299 406.22 160.391C405.485 160.28 404.874 160.17 404.262 160.17C402.547 160.17 400.589 160.832 398.505 161.053C393.116 161.495 377.312 162.268 372.412 162.378C364.693 162.378 362.735 162.157 361.389 157.524C358.693 157.524 358.446 161.826 358.446 163.037C358.446 166.566 364.327 171.089 368.981 171.089C370.697 171.089 371.308 170.205 372.9 169.543C378.535 167.007 398.747 166.124 400.704 166.124C402.912 166.124 404.504 166.124 405.85 166.235C406.216 169.985 407.808 173.072 410.016 173.072C413.935 173.072 416.139 170.316 416.508 163.253C416.754 157.295 417.608 132.475 418.1 125.417C418.224 122.44 418.224 120.452 419.447 119.569C420.551 118.575 422.385 117.696 422.385 116.481C422.385 114.383 413.689 108.981 410.997 108.981M546.096 229.255C545.357 228.839 544.619 228.419 543.875 228.002C516.963 269.13 481.194 292.624 458.388 300.107C456.214 300.901 454.282 301.152 452.452 301.003C448.146 300.655 444.545 297.669 442.015 291.677C439.594 292.675 438.851 295.746 439.225 299.445C439.972 305.858 451.972 318.017 457.42 318.509C459.929 318.637 460.677 316.14 461.887 315.031C462.859 314.169 463.819 313.171 466.706 311.901C492.374 300.668 523.507 274.256 546.096 229.255ZM651.77 299.419C645.638 298.884 641.91 294.077 640.552 290.063C638.331 291.575 637.473 294.336 637.787 297.083C638.713 304.214 650.377 316.428 656.823 317.206C659.855 317.528 659.201 314.02 665.171 311.302C695.475 296.935 724.727 270.633 747.215 223.038C746.319 222.6 745.423 222.159 744.523 221.721C711.509 275.386 661.731 301.037 651.77 299.415M603.504 249.679C601.971 249.679 600.854 251.008 599.602 252.218C598.489 253.31 597.232 254.397 595.003 254.516C588.035 255 566.996 255.484 559.331 255.484C555.289 255.484 552.644 255.361 551.111 254.516C549.718 253.548 547.905 251.853 547.489 250.04H547.073C545.68 251.127 545.124 253.671 545.124 255.484C545.124 259.477 551.952 265.044 555.714 265.044C557.247 265.044 558.363 264.199 560.032 263.592C569.369 260.687 594.031 259.358 598.905 259.358L599.326 259.719C599.326 264.683 599.186 272.307 599.046 279.811C597.793 279.204 596.12 278.72 594.587 278.72C592.774 278.72 590.124 279.446 587.339 279.688C582.46 280.414 568.388 281.021 563.094 281.021C560.028 281.021 554.873 280.414 553.06 276.541H552.644C551.391 277.632 551.251 278.843 551.251 281.021C551.251 284.41 556.962 289.736 561.981 289.736C563.234 289.736 564.21 288.768 565.603 288.284C566.996 287.8 568.809 287.192 570.898 286.95C577.866 286.105 593.33 285.137 598.905 285.137C598.765 292.518 598.629 302.685 598.069 306.074C597.232 305.955 596.536 305.832 595.84 305.832C593.891 305.832 591.661 306.558 589.292 306.8C583.161 307.285 565.187 308.134 559.616 308.253C550.839 308.253 548.606 308.011 547.077 302.927C544.011 302.927 543.731 307.646 543.731 308.979C543.731 312.852 550.419 317.813 555.714 317.813C557.667 317.813 558.363 316.845 560.172 316.118C566.584 313.337 589.572 312.368 591.802 312.368C594.311 312.368 596.12 312.368 597.653 312.491C598.073 316.607 599.882 319.996 602.392 319.996C606.85 319.996 609.359 316.972 609.776 309.225C610.056 302.689 611.028 275.458 611.589 267.711C611.729 264.441 611.729 262.263 613.122 261.298C614.374 260.207 616.463 259.239 616.463 257.909C616.463 255.612 606.57 249.679 603.504 249.679ZM656.963 243.351C659.235 246.706 662.886 249.951 666.504 249.904C671.277 249.844 674.958 246.417 674.848 241.546C674.674 227.289 648.641 222.286 628.887 221.496C628.709 222.197 628.535 222.897 628.361 223.594C641.932 227.858 652.657 237.142 656.963 243.351Z" fill="white"/>
<path d="M749.775 132.59C765.656 78.4159 735.398 21.1541 682.325 4.9392C634.242 -9.75103 583.467 18.2279 569.089 67.2846C562.775 88.8167 565.055 111.568 575.509 131.354C585.959 151.137 603.334 165.58 624.429 172.027C631.597 174.219 638.883 175.285 646.08 175.285C666.525 175.285 686.278 166.68 700.732 150.759C702.821 148.461 702.685 144.872 700.435 142.74C698.189 140.617 694.664 140.744 692.58 143.046C675.943 161.372 651.052 168.32 627.614 161.155C609.364 155.583 594.332 143.084 585.288 125.969C576.244 108.854 574.274 89.1692 579.734 70.5378C585.849 49.6767 599.555 32.4935 618.327 22.1606C637.104 11.8278 658.695 9.56839 679.136 15.8114C726.336 30.2299 753.24 81.1552 739.122 129.337C737.198 135.894 734.646 142.214 731.517 148.202L720.85 139.644L715.343 178.844L751.355 164.115L740.344 155.282C744.251 148.109 747.444 140.511 749.771 132.586" fill="white"/>
<path d="M619.342 82.803C619.342 81.7837 618.51 81.066 616.811 81.0193C615.274 80.9768 614.03 80.7687 612.952 80.3865C612.663 80.2591 612.285 80.0892 612.162 80.0892L612.119 80.1316C612.119 80.1741 612.285 80.344 612.739 80.6838C614.111 81.6606 614.196 82.3783 614.196 82.5482C614.196 83.0578 613.695 83.525 611.453 84.3319V83.6524C611.453 82.51 611.538 81.3633 611.661 80.1359C612.327 80.0085 616.684 79.1166 616.684 76.3221C616.684 76.0248 616.603 74.6276 614.484 74.6276C613.983 74.6276 613.571 74.7975 612.862 75.1754L612.574 75.3453C613.818 71.1493 613.898 70.9795 613.898 70.6397C613.898 68.9027 611.245 66.6985 609.831 66.6985C608.255 66.6985 606.969 68.7753 606.969 69.0258C606.969 69.2764 607.257 69.3656 607.839 69.493C609.414 69.871 609.831 70.4231 609.831 72.0369C609.831 72.8821 609.75 73.9863 609.627 75.511L609.584 76.3986C609.126 76.4835 608.671 76.526 608.175 76.526C607.054 76.526 605.64 76.1862 603.028 74.6616C602.693 74.4917 602.404 74.2369 602.196 74.2369C602.073 74.2369 601.988 74.3218 601.988 74.704C601.988 79.3247 605.89 80.344 609.13 80.344H609.338C609.253 81.9111 609.253 83.4783 609.253 85.0029C607.465 85.3851 605.848 85.4701 604.565 85.4701C602.489 85.4701 600.328 85.1728 598.336 84.4551C598.128 84.3701 597.755 84.0728 597.551 84.0728C597.466 84.0728 597.423 84.1153 597.423 84.2809C597.423 84.6207 597.878 89.114 605.228 89.114C606.391 89.114 607.593 89.029 608.799 88.8592C608.922 88.8592 609.087 88.8167 609.3 88.7742C609.342 89.7892 609.342 90.8085 609.423 91.7811C609.465 92.1633 609.508 93.0509 609.508 93.9003C608.761 93.8154 608.013 93.7304 607.351 93.7304C603.572 93.7304 599.296 95.5948 599.296 98.8565C599.296 101.655 602.408 104.072 605.525 104.072C609.55 104.072 612 100.848 612.786 98.9457C613.618 99.6252 614.281 100.428 614.782 101.32C615.529 102.632 616.484 103.184 617.274 103.184C618.395 103.184 619.346 102.169 619.346 100.81C619.346 98.4361 616.773 95.9771 612.743 94.6647C612.247 91.8235 611.958 90.0865 611.746 88.1796C615.898 86.948 619.342 85.0836 619.342 82.7987M604.022 100.857C602.447 100.857 600.574 100.135 600.574 98.7801C600.574 96.2786 605.64 96.2786 605.886 96.2786C607.049 96.2786 608.293 96.5334 609.499 97.0006C609.376 97.9774 608.09 100.857 604.022 100.857Z" fill="#42240F"/>
<path d="M643.379 83.6099C641.18 83.6099 638.98 84.2045 637.32 85.3894C637.235 85.4743 637.155 85.4743 637.155 85.4743C636.989 85.4743 642.471 78.8618 644.836 76.87C645.706 76.148 647.12 75.2179 647.12 73.9906C647.12 72.5933 644.921 70.7714 642.22 70.7714C640.56 70.7714 639.358 71.574 636.45 73.311C635.826 73.6933 635.244 73.8631 634.705 73.8631C634.458 73.8631 634.208 73.8207 633.957 73.7357C633.584 73.6126 633.337 73.5659 633.168 73.5659C632.671 73.5659 632.628 74.5809 632.628 74.9249C632.628 77.1673 634.539 78.1016 635.826 78.1016C638.607 78.1016 639.065 73.8207 640.768 73.311C640.891 73.2686 641.057 73.2261 641.222 73.2261C641.762 73.2261 642.343 73.4809 642.343 73.9481C642.343 74.118 642.301 74.2454 642.22 74.4153C640.186 78.1016 636.412 82.9771 635.121 84.7566C633.834 86.5361 633.252 86.7909 631.843 88.2731C630.599 89.6321 629.227 90.8595 628.645 92.0486C628.352 92.6007 628.229 93.1486 628.229 93.6158C628.229 94.8856 629.1 95.7308 630.178 95.7308C631.01 95.7308 631.919 95.2636 632.751 94.1212C632.875 93.9513 632.921 93.654 633.125 93.1019C635.325 86.7867 638.815 85.6867 641.927 85.6867C645.413 85.6867 647.783 87.8059 647.783 91.5772C647.783 94.2061 646.496 97.2554 642.636 98.6994C642.636 96.5377 641.35 93.8281 638.068 93.8281C633.584 93.8281 633.584 97.0048 633.584 97.3021C633.584 99.8036 636.866 101.923 641.184 101.923C647.078 101.923 652.394 97.2172 652.394 92.0062C652.394 88.7445 650.067 83.6184 643.384 83.6184M638.687 99.0349C635.116 98.5677 635.074 96.9157 635.074 96.7033C635.074 95.4335 636.569 95.391 636.862 95.391C638.399 95.391 639.061 96.406 639.061 97.5527C639.061 98.0623 638.938 98.5677 638.687 99.0391" fill="#42240F"/>
<path d="M671.909 77.3796C672.41 77.3796 672.614 77.8468 672.614 77.8468C672.614 78.1865 671.909 78.9085 671.659 79.2058C670.873 80.1359 670.33 80.8579 670.33 81.0702C670.33 81.1127 670.372 81.1127 670.41 81.1127C670.576 81.1127 671.077 80.8154 672.071 80.0085C672.984 79.2865 675.557 77.8468 679.544 77.7194C680.996 77.6769 682.491 77.0441 682.491 75.8974C682.491 74.7507 680.869 72.9713 678.215 72.9713C677.548 72.9713 676.843 73.0137 676.181 73.0987C674.852 73.2261 673.565 73.311 672.402 73.311C670.16 73.311 668.249 73.0605 666.466 72.589C665.633 72.3767 665.179 72.2111 664.971 72.2111C664.89 72.2111 664.848 72.2535 664.848 72.296C664.848 72.4701 665.094 72.8481 665.468 73.6126C666.674 76.1522 670.865 77.3839 671.905 77.3839" fill="#42240F"/>
<path d="M681.875 94.9663C681.544 94.9663 681.208 95.0087 680.839 95.0512C680.092 95.1786 679.51 95.684 679.051 95.8539C677.514 96.3635 675.731 96.6608 673.905 96.6608C669.672 96.6608 664.814 94.8813 664.814 91.7471C664.814 91.2799 664.937 90.7703 665.149 90.3031C665.481 89.5429 665.731 88.9058 665.731 88.651C665.731 88.5661 665.689 88.5236 665.646 88.5236C665.566 88.5236 662.907 90.6429 662.907 93.6497C662.907 97.6333 667.472 101.49 675.65 101.49C681.837 101.49 685.238 99.4978 685.238 97.3785C685.238 96.0662 683.951 94.962 681.875 94.962" fill="#42240F"/>
<path d="M681.998 70.5547C681 70.5547 680.21 70.7246 680.21 71.0219C680.21 71.1918 680.461 71.4041 680.958 71.659C681.951 72.2111 683.242 73.1411 684.236 74.2836C684.652 74.7507 685.068 74.9206 685.48 74.9206C686.227 74.9206 686.89 74.2411 686.89 73.396C686.89 71.3617 684.193 70.5547 681.99 70.5547" fill="#42240F"/>
<path d="M686.482 68.5629C686.359 68.5629 684.406 68.5629 684.406 69.115C684.406 69.2849 684.694 69.4973 685.196 69.7478C686.232 70.2575 687.522 71.1451 688.559 72.2493C688.975 72.674 689.391 72.8821 689.803 72.8821C690.55 72.8821 691.174 72.1601 691.174 71.315C691.174 69.8752 689.386 68.5629 686.482 68.5629Z" fill="#42240F"/>
<path d="M712.583 97.2554C712.001 97.2554 711.42 97.4253 710.757 97.7226C709.263 98.4445 707.437 98.7418 705.857 98.7418C701.874 98.7418 699.713 96.9581 699.713 94.8007C699.713 92.4266 702.329 89.7595 706.316 89.2074C707.148 89.08 707.772 88.9526 708.392 88.9526H709.182C712.044 88.9526 713.666 87.2963 713.666 85.6485C713.666 84.0006 712.09 83.3593 711.008 83.3593C710.426 83.3593 709.802 83.5292 709.182 83.7373C708.227 84.0771 707.021 84.7141 706.235 85.0539C705.946 84.7141 705.241 83.6949 705.241 81.1976C705.241 78.951 705.861 76.6194 706.528 74.5002C706.859 73.396 707.025 72.5084 707.025 71.7439C707.025 69.1193 703.997 66.9576 702.418 66.9576C700.838 66.9576 699.348 68.4822 699.348 69.0768C699.348 69.4166 699.764 69.6289 700.885 69.8795C701.76 70.0918 702.299 70.2617 702.299 71.9987C702.299 72.6782 702.214 73.5234 702.091 74.4577C701.887 76.199 701.675 77.9742 701.675 79.6305C701.675 82.3443 702.256 84.6717 704.456 85.9033C700.804 87.98 697.607 91.9212 697.607 95.7775C697.607 100.012 701.552 103.447 707.568 103.447C707.904 103.447 715.288 103.32 715.288 99.7144C715.288 98.4445 714.209 97.2554 712.592 97.2554" fill="#42240F"/>
</g>
<path d="M127.13 366.027C127.13 370.619 122.97 371.408 120.639 371.408C119.993 371.408 118.595 371.336 118.272 371.265V375.354C118.272 377.578 118.881 377.758 120.782 377.937C120.961 377.937 121.033 378.117 121.033 378.332C121.033 378.547 120.926 378.726 120.782 378.726H113.323C113 378.726 113 378.583 113 378.404C113 378.117 113.143 377.973 113.179 377.973C114.65 377.865 114.865 377.399 115.044 376.717C115.152 376.251 115.152 373.704 115.152 371.3V366.852C115.152 361.973 115.152 361.865 113.251 361.722C113.143 361.722 113.072 361.543 113.072 361.399C113.072 361.22 113.143 361.04 113.323 361.04H119.993C122.109 361.04 127.201 361.435 127.201 366.027H127.13ZM123.579 366.099C123.579 364.054 122.575 361.794 119.957 361.794C118.343 361.794 118.164 362.117 118.164 363.013C118.164 363.444 118.2 364.09 118.2 365.596V370.368C118.666 370.475 119.276 370.475 119.706 370.475C121.822 370.475 123.543 368.861 123.543 366.063L123.579 366.099ZM145.635 366.673C144.379 366.673 143.124 367.821 142.371 369.184C142.371 368.861 142.443 367.175 142.479 366.888V366.744C142.479 366.744 142.479 366.422 142.299 366.422C142.228 366.422 142.12 366.457 141.977 366.565C141.116 367.139 139.144 368 138.104 368.215C137.996 368.215 137.924 368.359 137.924 368.466C137.924 368.574 137.96 368.646 138.104 368.646C139.359 368.897 139.825 369.04 139.825 370.045V374.206C139.825 375.139 139.825 375.964 139.717 376.861C139.717 377.327 139.251 377.865 137.96 377.937C137.781 377.937 137.673 378.117 137.673 378.296C137.673 378.475 137.781 378.619 137.924 378.619H144.415C144.595 378.619 144.702 378.439 144.702 378.296C144.702 378.152 144.63 377.973 144.487 377.973C143.088 377.973 142.55 377.256 142.515 376.753C142.515 376.502 142.515 376.323 142.515 374.063V371.049C142.515 370.26 143.375 368.538 144.236 368.538C144.344 368.538 144.415 368.61 144.415 368.717C144.415 368.717 144.415 368.753 144.415 368.825C144.415 368.825 144.415 368.861 144.415 368.933C144.415 370.152 145.312 370.368 145.886 370.368C146.603 370.368 147.428 369.722 147.428 368.61C147.428 367.282 146.531 366.637 145.671 366.637L145.635 366.673ZM169.124 372.987C169.124 376 167.009 379.157 163.315 379.157C159.621 379.157 157.613 375.964 157.613 372.987C157.613 369.865 159.836 366.637 163.422 366.637C167.009 366.637 169.124 369.865 169.124 372.987ZM166.04 372.843C166.04 369.901 165.61 367.462 163.315 367.462C161.342 367.462 160.697 369.937 160.697 372.843C160.697 375.964 161.306 378.332 163.422 378.332C165.538 378.332 166.04 375.928 166.04 372.843ZM192.005 377.901C192.005 377.901 192.184 378.009 192.184 378.117C192.184 378.26 192.076 378.439 192.005 378.439C191.359 378.475 191 378.547 188.956 379.085C188.885 379.085 188.777 379.121 188.705 379.157C188.526 379.157 188.311 378.655 188.131 377.83C187.271 378.834 186.231 379.157 185.227 379.157C181.461 379.157 180.027 376.036 180.027 373.202C180.027 370.368 181.64 366.852 185.621 366.852C186.41 366.852 187.342 367.067 188.024 367.569V363.516C188.024 362.798 187.558 362.583 186.948 362.511H186.41C186.41 362.511 186.231 362.332 186.231 362.224C186.231 362.117 186.267 362.045 186.41 362.009C187.378 361.758 188.849 361.22 190.606 360.108C190.642 360.108 190.714 360.072 190.785 360.072C190.893 360.072 191 360.179 191 360.323C190.857 362.475 190.785 365.561 190.785 367.856V376.215C190.785 377.291 191.144 377.758 192.076 377.901H192.005ZM188.06 371.767C188.06 370.726 188.024 369.471 187.88 369.076C187.809 368.717 186.948 367.785 185.836 367.785C184.151 367.785 183.003 369.901 183.003 372.987C183.003 375.605 183.577 378.045 185.513 378.045C186.374 378.045 187.271 377.794 187.809 376.359C187.988 375.856 188.024 374.744 188.024 373.166V371.767H188.06ZM214.239 376.108V370.152C214.239 369.04 214.347 367.785 214.418 366.888V366.78C214.418 366.78 214.418 366.457 214.239 366.457C214.132 366.457 214.024 366.493 213.881 366.601C213.02 367.175 210.976 367.821 209.972 368C209.864 368 209.756 368.179 209.756 368.287C209.756 368.395 209.792 368.466 209.936 368.466C210.581 368.538 211.549 368.789 211.549 369.794V375.462C211.549 377.076 210.007 378.117 208.86 378.117C208.071 378.117 207.461 377.578 207.318 377.04C207.246 376.789 207.174 376.466 207.174 375.031V369.865C207.174 368.538 207.318 367.534 207.354 366.888V366.744C207.354 366.744 207.354 366.422 207.174 366.422C207.103 366.422 206.995 366.457 206.852 366.565C205.991 367.139 203.911 367.785 202.871 367.964C202.763 367.964 202.692 368.144 202.692 368.251C202.692 368.323 202.727 368.43 202.871 368.43C204.377 368.61 204.449 369.184 204.449 370.726V374.457C204.449 376.395 204.628 379.157 208.286 379.157H208.358C209.972 379.157 211.155 378.332 211.621 377.794C211.729 378.439 212.123 379.193 212.267 379.193C212.338 379.193 212.446 379.121 212.518 379.121C213.056 378.978 213.45 378.834 213.952 378.726C214.418 378.619 214.956 378.511 215.53 378.475C215.566 378.475 215.71 378.296 215.71 378.152C215.71 378.045 215.674 377.973 215.53 377.937C214.383 377.722 214.275 377.148 214.275 376.143L214.239 376.108ZM236.259 376.108C236.259 376.108 236.151 376.108 236.151 376.143C235.541 377.076 234.43 377.865 232.995 377.865C231.561 377.865 229.481 377.22 229.481 372.664C229.481 369.83 230.628 367.534 232.278 367.534C233.318 367.534 233.497 368.251 233.497 368.753C233.497 368.861 233.497 368.969 233.497 369.04C233.497 369.148 233.497 369.256 233.461 369.363C233.461 369.507 233.425 369.65 233.425 369.758C233.425 370.906 234.286 371.372 235.111 371.372C236.223 371.372 236.725 370.439 236.725 369.65C236.725 367.821 234.573 366.637 232.35 366.637C228.584 366.637 226.647 370.188 226.647 373.058C226.647 377.04 229.265 379.085 232.278 379.085C235.29 379.085 236.797 376.682 236.797 376.359C236.797 376.215 236.545 376.036 236.366 376.036L236.259 376.108ZM257.919 372.197C257.919 372.448 257.848 372.448 257.489 372.448H250.388C250.46 377.148 252.719 377.865 253.939 377.865C255.552 377.865 256.7 377.04 257.202 376.466C257.274 376.359 257.381 376.359 257.453 376.359C257.632 376.359 257.776 376.538 257.776 376.753C257.776 377.004 256.234 379.193 253.114 379.193C249.994 379.193 247.448 377.112 247.448 373.13C247.448 370.081 249.492 366.709 253.042 366.709C255.875 366.709 257.884 369.004 257.884 372.233L257.919 372.197ZM255.23 371.48C255.086 368.753 254.226 367.569 253.078 367.569C251.608 367.569 250.711 368.825 250.46 371.48H255.23ZM280.62 377.901C280.62 377.901 280.799 378.009 280.799 378.117C280.799 378.26 280.692 378.439 280.62 378.439C279.975 378.475 279.616 378.547 277.536 379.085C277.464 379.085 277.357 379.121 277.285 379.157C277.106 379.157 276.891 378.655 276.711 377.83C275.851 378.834 274.81 379.157 273.806 379.157C270.041 379.157 268.606 376.036 268.606 373.202C268.606 370.368 270.22 366.852 274.201 366.852C274.99 366.852 275.922 367.067 276.604 367.569V363.516C276.604 362.798 276.137 362.583 275.528 362.511H274.99C274.99 362.511 274.811 362.332 274.811 362.224C274.811 362.117 274.846 362.045 274.99 362.009C275.958 361.758 277.428 361.22 279.186 360.108C279.222 360.108 279.293 360.072 279.365 360.072C279.473 360.072 279.58 360.179 279.58 360.323C279.437 362.475 279.365 365.561 279.365 367.856V376.215C279.365 377.291 279.724 377.758 280.656 377.901H280.62ZM276.639 371.767C276.639 370.726 276.604 369.471 276.46 369.076C276.388 368.717 275.528 367.785 274.416 367.785C272.73 367.785 271.583 369.901 271.583 372.987C271.583 375.605 272.157 378.045 274.093 378.045C274.954 378.045 275.85 377.794 276.388 376.359C276.568 375.856 276.604 374.744 276.604 373.166V371.767H276.639ZM321.36 372.7C321.36 375.892 319.746 379.085 315.801 379.085C314.725 379.085 313.434 378.726 312.466 378.081C312.466 378.081 312.358 378.009 312.287 378.009C312.251 378.009 312.179 378.009 312.107 378.045C311.677 378.296 311.318 378.547 310.924 378.834C310.816 378.906 310.744 378.942 310.673 378.942C310.493 378.942 310.458 378.798 310.458 378.583V378.511C310.565 377.04 310.601 374.565 310.601 372.628V363.659C310.601 363.085 310.386 362.762 310.099 362.583C309.92 362.475 309.74 362.404 309.525 362.368C309.346 362.332 309.095 362.296 308.88 362.26C308.772 362.26 308.7 362.152 308.7 362.081C308.7 361.973 308.808 361.83 308.916 361.794C309.92 361.614 312.143 360.717 313.004 360.143C313.147 360.036 313.255 360 313.327 360C313.542 360 313.542 360.251 313.542 360.466C313.362 362.511 313.327 365.309 313.291 367.785C314.223 367.139 315.191 366.78 316.124 366.78C319.387 366.78 321.288 369.578 321.288 372.735L321.36 372.7ZM318.419 373.058C318.419 370.332 317.845 367.641 315.873 367.641C315.012 367.641 314.116 368.072 313.578 369.543C313.398 370.045 313.327 371.121 313.327 372.771V374.242C313.327 375.282 313.398 376.538 313.506 376.969C313.613 377.327 314.151 378.296 315.658 378.296C317.379 378.296 318.383 376.466 318.383 373.058H318.419ZM340.331 367.175C340.152 367.175 340.08 367.318 340.08 367.462C340.08 367.605 340.152 367.749 340.223 367.785C341.084 367.892 341.945 367.964 341.945 368.789C341.945 369.363 340.797 372.413 339.685 375.282C339.219 374.278 337.067 369.004 337.067 368.538C337.067 367.964 337.641 367.857 338.323 367.821C338.358 367.821 338.43 367.677 338.43 367.498V367.426C338.43 367.426 338.323 367.175 338.107 367.175H332.047C332.047 367.175 331.831 367.318 331.831 367.498C331.831 367.677 331.903 367.821 332.047 367.821C333.23 367.928 333.517 368.323 333.983 369.399C335.346 372.448 336.888 375.677 338.215 378.475C338.036 378.798 337.39 380.592 336.816 381.202C336.745 381.309 336.601 381.417 336.386 381.417C336.207 381.417 336.027 381.345 335.812 381.094C335.382 380.628 335.131 380.448 334.449 380.448C333.338 380.448 332.764 381.309 332.764 382.063C332.764 383.39 333.84 384 334.88 384C337.247 384 338.358 380.987 339.649 377.758L342.913 369.507C343.307 368.502 343.774 367.964 345.136 367.821C345.208 367.821 345.316 367.641 345.316 367.462C345.316 367.318 345.244 367.211 345.029 367.211H340.367L340.331 367.175ZM380.784 367.785C377.448 366.314 377.341 365.309 377.341 364.377C377.341 362.117 379.062 361.471 379.851 361.471C383.401 361.543 384.37 366.063 384.477 366.637C384.513 366.852 384.657 366.924 384.8 366.924C385.015 366.924 385.302 366.744 385.302 366.601L385.087 362.081V361.148C385.087 361.148 384.979 360.897 384.836 360.897C384.8 360.897 384.728 360.897 384.657 360.969C384.585 361.004 383.581 361.794 383.294 361.794C383.007 361.794 382.648 361.435 382.361 361.327C381.501 360.861 380.676 360.682 379.564 360.682C377.161 360.682 374.221 361.973 374.221 365.668C374.221 368.861 377.556 370.188 380.102 371.408C381.214 371.982 382.828 372.843 382.828 374.744V374.852C382.828 376.43 382.182 378.188 379.923 378.188C378.668 378.188 377.879 377.758 376.946 377.004C375.691 376 375.01 374.278 374.543 372.233C374.508 372.054 374.364 371.982 374.221 371.982C373.97 371.982 373.719 372.161 373.719 372.305L373.97 377.614V378.547C373.97 378.547 374.113 378.798 374.221 378.798C374.292 378.798 374.364 378.798 374.4 378.726C375.404 378.009 375.619 377.901 375.727 377.901C375.906 377.901 376.121 378.081 376.372 378.224C377.484 378.87 378.775 379.157 379.851 379.157H379.923C382.971 379.157 386.055 377.686 386.055 373.668C386.055 370.762 383.975 369.256 380.784 367.892V367.785ZM410.908 373.417C410.908 373.417 410.728 373.417 410.693 373.489C409.939 375.318 407.967 377.865 406.102 377.865H403.95C402.552 377.865 402.301 377.22 402.301 375.354V369.937H404.739C405.672 369.937 406.999 370.511 407.357 372.879C407.357 373.058 407.537 373.13 407.68 373.13C407.859 373.13 408.075 373.022 408.075 372.843V366.529C408.075 366.529 407.895 366.278 407.752 366.278C407.608 366.278 407.429 366.35 407.393 366.529C406.748 368.717 405.923 369.112 404.524 369.112H402.301V365.848C402.301 364.197 402.301 363.336 402.408 362.726C402.48 362.26 402.875 361.937 403.341 361.937H405.887C407.931 361.937 409.509 364.592 409.975 366.422C409.975 366.529 410.083 366.529 410.226 366.529C410.442 366.529 410.693 366.422 410.693 366.278C410.585 364.52 410.262 362.26 410.119 361.578C410.047 361.148 410.011 361.112 409.509 361.112H397.173C397.173 361.112 396.922 361.22 396.922 361.471C396.922 361.578 396.921 361.758 397.101 361.794C398.858 361.973 398.93 362.332 399.001 362.978C399.109 363.48 399.145 364.879 399.145 367.283V371.946C399.145 374.422 399.145 376.323 399.037 376.789C398.858 377.471 398.571 378.009 397.137 378.152C397.137 378.152 396.993 378.332 396.993 378.475C396.993 378.619 397.029 378.798 397.352 378.798H409.904C410.298 378.798 410.334 378.691 410.406 378.368C410.621 377.578 411.051 375.318 411.338 373.776C411.338 373.668 411.087 373.525 410.908 373.525V373.417ZM436.478 376.036C434.649 373.489 431.887 369.22 430.489 367.39C435.079 363.013 434.935 363.157 434.935 363.157C435.545 362.583 436.478 361.901 437.984 361.686C438.056 361.686 438.163 361.471 438.163 361.291C438.163 361.148 438.091 361.004 437.876 361.004H432.21C431.995 361.004 431.887 361.148 431.887 361.327C431.887 361.507 431.995 361.65 432.066 361.722C432.569 361.722 434.039 361.937 434.039 362.511C434.039 362.619 433.931 362.798 433.788 362.978L427.261 369.363V367.247C427.261 365.381 427.261 364.054 427.333 363.3C427.44 362.224 427.512 361.937 429.162 361.83C429.269 361.83 429.377 361.578 429.377 361.399C429.377 361.256 429.305 361.112 429.09 361.112H422.384C422.168 361.112 422.097 361.256 422.097 361.399C422.097 361.578 422.204 361.794 422.312 361.83C423.926 361.937 424.105 362.224 424.213 363.3C424.249 364.09 424.284 365.417 424.284 367.247V372.592C424.284 374.457 424.284 375.785 424.177 376.538C424.069 377.614 423.926 377.901 422.276 378.045C422.169 378.045 422.061 378.296 422.061 378.475C422.061 378.619 422.133 378.762 422.348 378.762H429.126C429.377 378.762 429.449 378.583 429.449 378.404C429.449 378.224 429.341 378.009 429.233 378.045C427.584 377.901 427.44 377.614 427.369 376.574C427.297 375.785 427.297 374.457 427.297 372.592V370.475L428.409 369.399C429.987 371.695 431.815 374.601 433.214 376.753C433.358 377.004 433.429 377.184 433.429 377.327C433.429 377.83 432.784 377.973 431.995 378.045C431.959 378.045 431.851 378.224 431.851 378.404V378.475C431.851 378.475 431.887 378.726 432.246 378.726H438.988C439.239 378.726 439.311 378.583 439.311 378.404C439.311 378.26 439.239 378.081 439.131 378.009C437.697 377.901 437.661 377.614 436.513 376.036H436.478ZM455.054 363.229C455.126 362.152 455.879 361.865 457.529 361.758C457.636 361.758 457.744 361.507 457.744 361.327C457.744 361.148 457.672 361.004 457.457 361.004H449.352C449.137 361.004 449.065 361.148 449.065 361.327C449.065 361.507 449.173 361.722 449.28 361.758C450.894 361.865 451.647 362.152 451.719 363.229C451.791 364.018 451.827 365.309 451.827 367.175V372.52C451.827 374.386 451.791 375.641 451.719 376.43C451.611 377.507 450.93 377.83 449.209 377.937C449.101 377.937 448.993 378.188 448.993 378.368C448.993 378.547 449.065 378.691 449.28 378.691H457.421C457.636 378.691 457.708 378.547 457.708 378.368C457.708 378.188 457.6 377.937 457.493 377.937C455.843 377.794 455.09 377.543 454.982 376.466C454.947 375.677 454.911 374.421 454.911 372.556V367.211C454.911 365.345 454.911 364.054 455.018 363.265L455.054 363.229ZM475.675 367.785C472.34 366.314 472.232 365.309 472.232 364.377C472.232 362.117 473.954 361.471 474.743 361.471C478.293 361.543 479.261 366.063 479.369 366.637C479.405 366.852 479.548 366.924 479.692 366.924C479.907 366.924 480.194 366.744 480.194 366.601L479.978 362.081V361.148C479.978 361.148 479.871 360.897 479.727 360.897C479.692 360.897 479.62 360.897 479.548 360.969C479.476 361.004 478.472 361.794 478.185 361.794C477.898 361.794 477.54 361.435 477.253 361.327C476.392 360.861 475.567 360.682 474.456 360.682C472.053 360.682 469.112 361.973 469.112 365.668C469.112 368.861 472.447 370.188 474.994 371.408C476.105 371.982 477.719 372.843 477.719 374.744V374.852C477.719 376.43 477.074 378.188 474.814 378.188C473.559 378.188 472.77 377.758 471.838 377.004C470.583 376 469.901 374.278 469.435 372.233C469.399 372.054 469.256 371.982 469.112 371.982C468.861 371.982 468.61 372.161 468.61 372.305L468.861 377.614V378.547C468.861 378.547 469.005 378.798 469.112 378.798C469.184 378.798 469.256 378.798 469.292 378.726C470.296 378.009 470.511 377.901 470.618 377.901C470.798 377.901 471.013 378.081 471.264 378.224C472.376 378.87 473.667 379.157 474.743 379.157H474.814C477.898 379.157 480.947 377.686 480.947 373.668C480.947 370.762 478.867 369.256 475.675 367.892V367.785ZM504.293 361.004C504.078 361.004 504.006 361.148 504.006 361.291C504.006 361.471 504.114 361.686 504.221 361.686C505.835 361.83 506.588 362.117 506.696 363.229C506.732 363.982 506.768 365.309 506.768 367.175V371.623C506.768 377.004 504.723 377.83 501.783 377.83C499.954 377.83 498.232 376.933 497.73 374.565C497.551 373.847 497.551 372.52 497.551 371.085V366.96C497.551 365.381 497.551 363.91 497.623 363.193C497.73 362.117 498.053 361.83 499.739 361.686C499.846 361.686 499.954 361.507 499.954 361.327C499.954 361.148 499.846 360.969 499.631 360.969H492.172C491.956 360.969 491.849 361.148 491.849 361.327C491.849 361.507 491.956 361.686 492.028 361.686C494.216 361.865 494.216 362.009 494.216 365.955V370.978L494.18 371.3C494.18 372.7 494.323 373.812 494.503 374.637C495.363 378.439 499.308 379.157 501.352 379.157C505.333 379.157 507.772 377.327 507.808 371.659V367.139C507.808 365.238 507.808 363.946 507.879 363.193C507.987 362.117 508.704 361.794 510.354 361.65C510.461 361.65 510.569 361.399 510.569 361.256C510.569 361.112 510.497 360.969 510.282 360.969H504.293V361.004ZM526.707 363.229C526.779 362.152 527.532 361.865 529.181 361.758C529.289 361.758 529.397 361.507 529.397 361.327C529.397 361.148 529.325 361.004 529.11 361.004H521.005C520.79 361.004 520.718 361.148 520.718 361.327C520.718 361.507 520.826 361.722 520.933 361.758C522.547 361.865 523.3 362.152 523.372 363.229C523.444 364.018 523.479 365.309 523.479 367.175V372.52C523.479 374.386 523.444 375.641 523.372 376.43C523.264 377.507 522.583 377.83 520.861 377.937C520.754 377.937 520.646 378.188 520.646 378.368C520.646 378.547 520.718 378.691 520.933 378.691H529.074C529.289 378.691 529.361 378.547 529.361 378.368C529.361 378.188 529.253 377.937 529.146 377.937C527.496 377.794 526.743 377.543 526.635 376.466C526.599 375.677 526.564 374.421 526.564 372.556V367.211C526.564 365.345 526.564 364.054 526.671 363.265L526.707 363.229ZM563.394 367.175C563.394 365.309 563.394 363.982 563.466 363.229C563.573 362.152 563.896 361.865 565.546 361.722C565.653 361.722 565.761 361.471 565.761 361.291C565.761 361.148 565.689 361.004 565.474 361.004H558.086C557.871 361.004 557.8 361.148 557.8 361.327C557.8 361.507 557.907 361.722 557.979 361.722C559.629 361.865 560.023 362.152 560.095 363.229C560.167 363.982 560.166 365.309 560.166 367.175V368.969H552.994V367.175C552.994 365.309 552.994 363.982 553.066 363.229C553.173 362.152 553.496 361.865 555.182 361.722C555.289 361.722 555.361 361.471 555.361 361.327C555.361 361.184 555.289 361.004 555.074 361.004H547.722C547.507 361.004 547.4 361.148 547.4 361.327C547.4 361.507 547.507 361.722 547.615 361.722C549.264 361.865 549.659 362.152 549.731 363.229C549.802 363.982 549.802 365.309 549.802 367.175V372.52C549.802 374.386 549.802 375.713 549.695 376.466C549.587 377.543 549.193 377.794 547.543 377.937C547.435 377.937 547.364 378.188 547.364 378.368C547.364 378.547 547.435 378.691 547.651 378.691H555.038C555.253 378.691 555.325 378.547 555.325 378.368C555.325 378.188 555.217 377.973 555.146 377.973C553.496 377.83 553.102 377.543 553.03 376.502C552.994 375.713 552.994 374.386 552.994 372.556V370.045H560.166V372.556C560.166 374.421 560.167 375.749 560.095 376.502C559.987 377.578 559.593 377.83 557.943 377.973C557.835 377.973 557.728 378.224 557.728 378.404C557.728 378.583 557.8 378.726 558.015 378.726H565.438C565.653 378.726 565.725 378.583 565.725 378.404C565.725 378.224 565.618 378.009 565.546 377.973C563.394 377.794 563.358 377.543 563.358 374.35C563.358 373.812 563.358 373.202 563.358 372.52V367.175H563.394ZM589.789 373.417C589.789 373.417 589.609 373.417 589.573 373.489C588.82 375.318 586.848 377.865 584.983 377.865H582.831C581.433 377.865 581.182 377.22 581.182 375.354V369.937H583.62C584.553 369.937 585.88 370.511 586.238 372.879C586.238 373.058 586.418 373.13 586.561 373.13C586.74 373.13 586.956 373.022 586.956 372.843V366.529C586.956 366.529 586.776 366.278 586.633 366.278C586.489 366.278 586.31 366.35 586.274 366.529C585.629 368.717 584.804 369.112 583.405 369.112H581.182V365.848C581.182 364.197 581.182 363.336 581.289 362.726C581.361 362.26 581.72 361.937 582.222 361.937H584.768C586.812 361.937 588.39 364.592 588.856 366.422C588.856 366.529 588.964 366.529 589.107 366.529C589.322 366.529 589.573 366.422 589.573 366.278C589.466 364.52 589.143 362.26 589 361.578C588.928 361.148 588.892 361.112 588.39 361.112H576.053C576.053 361.112 575.802 361.22 575.802 361.471C575.802 361.578 575.802 361.758 575.982 361.794C577.739 361.973 577.811 362.332 577.882 362.978C577.99 363.48 578.026 364.879 578.026 367.283V371.946C578.026 374.422 578.026 376.323 577.918 376.789C577.739 377.471 577.452 378.009 576.018 378.152C576.018 378.152 575.874 378.332 575.874 378.475C575.874 378.619 575.91 378.798 576.233 378.798H588.785C589.179 378.798 589.215 378.691 589.287 378.368C589.502 377.578 589.932 375.318 590.219 373.776C590.219 373.668 589.968 373.525 589.789 373.525V373.417ZM606.931 363.229C607.003 362.152 607.756 361.865 609.405 361.758C609.513 361.758 609.62 361.507 609.62 361.327C609.62 361.148 609.549 361.004 609.334 361.004H601.229C601.014 361.004 600.942 361.148 600.942 361.327C600.942 361.507 601.049 361.722 601.157 361.758C602.771 361.865 603.524 362.152 603.596 363.229C603.667 364.018 603.703 365.309 603.703 367.175V372.52C603.703 374.386 603.667 375.641 603.596 376.43C603.488 377.507 602.807 377.83 601.085 377.937C600.978 377.937 600.87 378.188 600.87 378.368C600.87 378.547 600.942 378.691 601.157 378.691H609.298C609.513 378.691 609.585 378.547 609.585 378.368C609.585 378.188 609.477 377.937 609.369 377.937C607.72 377.794 606.967 377.543 606.859 376.466C606.823 375.677 606.787 374.421 606.787 372.556V367.211C606.787 365.345 606.787 364.054 606.895 363.265L606.931 363.229ZM640.821 377.973C639.207 377.83 639.063 377.543 638.956 376.502C638.884 375.713 638.92 374.386 638.884 372.52V367.175C638.884 365.274 638.884 363.982 638.956 363.229C639.063 362.152 639.135 361.901 640.785 361.758C640.892 361.758 641 361.578 641 361.363C641 361.184 640.892 361.04 640.677 361.04L636.051 361.148C635.334 361.148 635.334 361.327 635.083 362.117C634.078 365.13 632.25 370.117 630.707 373.955C629.703 371.3 627.372 365.632 625.83 362.009C625.794 361.363 625.579 361.148 624.898 361.148L619.949 361.04C619.698 361.04 619.626 361.22 619.626 361.399C619.626 361.578 619.734 361.794 619.841 361.794C621.491 361.901 621.885 362.188 621.957 363.265C622.029 364.054 622.029 365.381 622.029 367.211V372.556C622.029 374.421 622.029 375.749 621.957 376.502C621.85 377.578 621.455 377.865 619.805 378.009C619.698 378.009 619.626 378.224 619.626 378.404C619.626 378.583 619.698 378.726 619.877 378.726H625.077C625.292 378.726 625.364 378.583 625.364 378.439C625.364 378.26 625.256 378.045 625.149 378.009C623.499 377.865 623.141 377.578 623.033 376.538C622.961 375.749 622.961 374.457 622.961 372.556V363.659C624.719 367.749 628.09 375.354 628.771 377.507C628.843 377.758 629.165 378.691 629.488 378.691C629.811 378.691 630.026 378.475 630.205 377.937C631.353 374.708 634.258 367.318 635.621 363.372V372.556C635.621 374.421 635.621 375.749 635.513 376.502C635.441 377.578 635.262 377.865 633.612 377.973C633.469 377.973 633.361 378.188 633.361 378.368C633.361 378.547 633.469 378.691 633.684 378.691H640.641C640.857 378.691 640.964 378.511 640.964 378.332C640.964 378.152 640.857 377.973 640.713 377.973H640.821Z" fill="white"/>
<defs>
<clipPath id="clip0_5300_2545">
<rect width="754" height="320" fill="white"/>
</clipPath>
</defs>
</svg>
