<svg width="14" height="10" viewBox="0 0 14 10" fill="none" xmlns="http://www.w3.org/2000/svg">
<path d="M12.4367 3.89694C12.8509 3.90186 13.1826 4.24162 13.1777 4.65582C13.1728 5.07001 12.833 5.40178 12.4188 5.39685L0.794479 5.25859C0.380289 5.25367 0.0485153 4.91391 0.0534418 4.49971C0.0583682 4.08552 0.398129 3.75375 0.812319 3.75868L12.4367 3.89694Z" fill="white"/>
<path d="M8.97771 0.298036C9.28886 0.0246303 9.76265 0.0551697 10.0361 0.366293L13.3663 4.15623C13.6196 4.44449 13.6144 4.87743 13.3543 5.15959L9.93494 8.86924C9.65419 9.17378 9.17981 9.19304 8.87525 8.91231C8.57072 8.63156 8.55146 8.15718 8.83219 7.85262L11.7938 4.63928L8.90945 1.3564C8.63605 1.04525 8.66659 0.571458 8.97771 0.298036Z" fill="white"/>
</svg>
