<svg width="14" height="9" viewBox="0 0 14 9" fill="none" xmlns="http://www.w3.org/2000/svg">
<path d="M12.3752 3.75012C12.7894 3.75012 13.1252 4.08591 13.1252 4.50013C13.1252 4.91435 12.7894 5.25015 12.3752 5.25015L0.750012 5.25015C0.335792 5.25015 0 4.91435 0 4.50013C0 4.08591 0.335792 3.75012 0.750012 3.75012L12.3752 3.75012Z" fill="#42250F"/>
<path d="M8.87347 0.192558C9.18134 -0.0845286 9.65546 -0.0596262 9.93257 0.248223L13.3076 3.99828C13.5643 4.28352 13.5643 4.71648 13.3076 5.00172L9.93257 8.75178C9.65546 9.05963 9.18134 9.08453 8.87347 8.80744C8.56562 8.53034 8.54072 8.05622 8.8178 7.74834L11.7409 4.5L8.8178 1.25166C8.54072 0.943783 8.56562 0.469662 8.87347 0.192558Z" fill="#42250F"/>
</svg>
