<svg width="14" height="9" viewBox="0 0 14 9" fill="none" xmlns="http://www.w3.org/2000/svg">
<path d="M12.3749 3.75024C12.7891 3.75024 13.1249 4.08604 13.1249 4.50026C13.1249 4.91448 12.7891 5.25027 12.3749 5.25027L0.749994 5.25027C0.335784 5.25027 0 4.91448 0 4.50026C0 4.08604 0.335784 3.75024 0.749994 3.75024L12.3749 3.75024Z" fill="#036EB8"/>
<path d="M8.87322 0.192558C9.18108 -0.0845286 9.65519 -0.0596262 9.93229 0.248223L13.3073 3.99828C13.564 4.28352 13.564 4.71648 13.3073 5.00172L9.93229 8.75178C9.65519 9.05963 9.18108 9.08453 8.87322 8.80744C8.56538 8.53034 8.54047 8.05622 8.81755 7.74834L11.7406 4.5L8.81755 1.25166C8.54047 0.943783 8.56538 0.469662 8.87322 0.192558Z" fill="#036EB8"/>
</svg>
