<svg width="43" height="42" viewBox="0 0 43 42" fill="none" xmlns="http://www.w3.org/2000/svg">
<mask id="mask0_5545_3454" style="mask-type:alpha" maskUnits="userSpaceOnUse" x="0" y="0" width="43" height="42">
<path d="M0 0H43V42H0V0Z" fill="#D9D9D9"/>
</mask>
<g mask="url(#mask0_5545_3454)">
<path d="M40 5V42H18V5H40ZM20 40H38V7H20V40Z" fill="white"/>
<path d="M34 33V42H24V33H34ZM26 40H32V35H26V40Z" fill="white"/>
<path d="M22 28H36V30H22V28Z" fill="white"/>
<path d="M15 40H43V42H15V40Z" fill="white"/>
<path d="M22 22H36V24H22V22Z" fill="white"/>
<path d="M22 16H36V18H22V16Z" fill="white"/>
<path d="M22 10H36V12H22V10Z" fill="white"/>
<path d="M25 0V6H23V2H5V35H17V37H3V0H25Z" fill="white"/>
<path d="M17 28V30H11V35H17V37H9V28H17Z" fill="white"/>
<path d="M7 23H17V25H7V23Z" fill="white"/>
<path d="M0 35H17V37H0V35Z" fill="white"/>
<path d="M7 17H17V19H7V17Z" fill="white"/>
<path d="M7 11H17V13H7V11Z" fill="white"/>
<path d="M7 5H17V7H7V5Z" fill="white"/>
</g>
</svg>
