<svg width="118" height="20" viewBox="0 0 118 20" fill="none" xmlns="http://www.w3.org/2000/svg">
<path d="M9.379 15.1087C9.223 14.7707 8.99767 14.4587 8.703 14.1727C8.40833 13.878 8.08333 13.631 7.728 13.4317C7.38133 13.2237 7.04767 13.085 6.727 13.0157C6.66633 13.059 6.60133 13.1024 6.532 13.1457C6.47133 13.1804 6.41067 13.2194 6.35 13.2627C6.31533 13.1674 6.25467 13.046 6.168 12.8987C6.08133 12.7514 5.99033 12.604 5.895 12.4567C5.80833 12.3007 5.73467 12.1837 5.674 12.1057C6.116 11.9237 6.61867 11.694 7.182 11.4167C7.51133 11.2434 7.858 11.0657 8.222 10.8837C8.586 10.7017 8.96733 10.5284 9.366 10.3637V7.75069C8.872 7.80269 8.38233 7.85035 7.897 7.89369C7.41167 7.92835 6.96967 7.95435 6.571 7.97169C6.571 7.88502 6.56233 7.76369 6.545 7.60769C6.52767 7.45169 6.506 7.30002 6.48 7.15269C6.46267 6.99669 6.44533 6.87969 6.428 6.80169C6.80933 6.80169 7.26 6.78869 7.78 6.76269C8.3 6.73669 8.82867 6.69769 9.366 6.64569V5.93069C9.366 5.01202 9.353 4.43135 9.327 4.18869C9.43967 4.19735 9.57833 4.20602 9.743 4.21469C9.90767 4.22335 10.068 4.22769 10.224 4.22769C10.38 4.22769 10.497 4.22769 10.575 4.22769C10.5663 4.34035 10.5533 4.59602 10.536 4.99469C10.5273 5.38469 10.5143 5.89602 10.497 6.52869C10.913 6.47669 11.303 6.42035 11.667 6.35969C12.0397 6.29902 12.3603 6.23835 12.629 6.17769C12.629 6.25569 12.629 6.37269 12.629 6.52869C12.6377 6.67602 12.6463 6.82335 12.655 6.97069C12.6637 7.11802 12.6723 7.22635 12.681 7.29569C12.3863 7.34769 12.0483 7.40402 11.667 7.46469C11.2943 7.51669 10.9 7.56869 10.484 7.62069C10.484 7.96735 10.4797 8.33569 10.471 8.72569C10.471 9.10702 10.471 9.51435 10.471 9.94769C11.0083 9.75702 11.55 9.60535 12.096 9.49269C12.642 9.37135 13.175 9.31069 13.695 9.31069C14.3623 9.31069 14.9517 9.42335 15.463 9.64869C15.9743 9.86535 16.373 10.1774 16.659 10.5847C16.945 10.992 17.088 11.4774 17.088 12.0407C17.088 12.6387 16.9623 13.1457 16.711 13.5617C16.4597 13.969 16.1087 14.2767 15.658 14.4847C15.216 14.6927 14.709 14.7967 14.137 14.7967C13.4957 14.7967 12.928 14.6234 12.434 14.2767C11.9487 13.9214 11.6107 13.3797 11.42 12.6517C11.5847 12.565 11.7753 12.4697 11.992 12.3657C12.2087 12.253 12.3733 12.1534 12.486 12.0667C12.72 13.0894 13.2703 13.6007 14.137 13.6007C14.4403 13.6007 14.722 13.5444 14.982 13.4317C15.242 13.319 15.45 13.1457 15.606 12.9117C15.7707 12.669 15.853 12.3657 15.853 12.0017C15.853 11.4904 15.6493 11.0917 15.242 10.8057C14.8347 10.5197 14.3103 10.3767 13.669 10.3767C13.1403 10.3767 12.603 10.4374 12.057 10.5587C11.5197 10.6714 10.991 10.8274 10.471 11.0267C10.4883 11.85 10.5057 12.604 10.523 13.2887C10.549 13.9647 10.5837 14.463 10.627 14.7837C10.4537 14.801 10.2327 14.8444 9.964 14.9137C9.704 14.9917 9.509 15.0567 9.379 15.1087ZM16.464 8.63469C16.1867 8.43535 15.8617 8.23169 15.489 8.02369C15.125 7.81569 14.748 7.62069 14.358 7.43869C13.9767 7.24802 13.6127 7.09202 13.266 6.97069C13.3613 6.85802 13.4653 6.70635 13.578 6.51569C13.6907 6.31635 13.773 6.16469 13.825 6.06069C14.189 6.18202 14.566 6.33369 14.956 6.51569C15.346 6.68902 15.7273 6.87969 16.1 7.08769C16.4727 7.29569 16.8063 7.50802 17.101 7.72469C17.0057 7.82869 16.8887 7.98035 16.75 8.17969C16.6113 8.37035 16.516 8.52202 16.464 8.63469ZM9.366 13.6137V11.4947C8.69867 11.8154 8.105 12.1447 7.585 12.4827C7.91433 12.552 8.235 12.695 8.547 12.9117C8.859 13.1197 9.132 13.3537 9.366 13.6137ZM21.82 15.5637V11.9627C21.4733 12.0667 21.118 12.1664 20.754 12.2617C20.39 12.3484 20.013 12.435 19.623 12.5217C19.5883 12.3917 19.5233 12.2227 19.428 12.0147C19.3413 11.8067 19.2503 11.6464 19.155 11.5337C20.0997 11.395 21.001 11.1784 21.859 10.8837C22.717 10.5804 23.51 10.2207 24.238 9.80469C23.77 9.43202 23.367 9.02469 23.029 8.58269C22.6823 8.85135 22.3183 9.10702 21.937 9.34969C21.5557 9.58369 21.157 9.80469 20.741 10.0127C20.7063 9.95202 20.6457 9.86535 20.559 9.75269C20.481 9.64002 20.3987 9.53169 20.312 9.42769C20.2253 9.31502 20.1473 9.23269 20.078 9.18069C20.65 8.93802 21.1917 8.64335 21.703 8.29669C22.223 7.95002 22.691 7.57302 23.107 7.16569C23.523 6.75835 23.8653 6.35535 24.134 5.95669H20.793V7.76369H19.623V4.96869H24.524V3.75969H25.811V4.96869H30.764V7.72469H29.594V5.95669H24.94L25.291 6.08669C25.1003 6.39869 24.8967 6.68902 24.68 6.95769H27.982L28.424 7.41269C28.0773 7.88935 27.7133 8.32702 27.332 8.72569C26.9507 9.11569 26.552 9.47535 26.136 9.80469C26.8987 10.212 27.7263 10.55 28.619 10.8187C29.5203 11.0787 30.413 11.2477 31.297 11.3257C31.2363 11.3864 31.1713 11.4904 31.102 11.6377C31.0327 11.7764 30.9677 11.9194 30.907 12.0667C30.855 12.214 30.816 12.3354 30.79 12.4307C30.4347 12.3614 30.0793 12.2877 29.724 12.2097C29.3687 12.1317 29.0177 12.045 28.671 11.9497V15.5637H21.82ZM23.016 14.5627H27.475V12.8337H23.016V14.5627ZM22.197 11.8457H28.32C27.748 11.6724 27.1977 11.473 26.669 11.2477C26.1403 11.0137 25.642 10.7537 25.174 10.4677C24.29 11.0224 23.2977 11.4817 22.197 11.8457ZM25.174 9.21969C25.7893 8.77769 26.318 8.32269 26.76 7.85469H23.861L23.783 7.93269C23.965 8.16669 24.173 8.39202 24.407 8.60869C24.6497 8.81669 24.9053 9.02035 25.174 9.21969ZM39.162 15.6027C39.1447 15.4467 39.11 15.256 39.058 15.0307C39.006 14.814 38.954 14.6407 38.902 14.5107H39.838C40.0113 14.5107 40.137 14.4804 40.215 14.4197C40.293 14.359 40.332 14.2464 40.332 14.0817V9.93469H37.277V8.98569H40.332V8.11469H37.862V7.23069H40.332V6.35969H37.446V5.47569H39.279C39.1577 5.25902 39.0147 5.02935 38.85 4.78669C38.6853 4.53535 38.5293 4.31869 38.382 4.13669L39.305 3.70769C39.4783 3.91569 39.6647 4.17569 39.864 4.48769C40.0633 4.79102 40.2237 5.05969 40.345 5.29369L39.942 5.47569H41.281C41.4543 5.20702 41.6277 4.89935 41.801 4.55269C41.9743 4.19735 42.1043 3.90702 42.191 3.68169L43.231 3.99369C43.1357 4.21035 43.0143 4.45302 42.867 4.72169C42.7197 4.99035 42.5723 5.24169 42.425 5.47569H44.388V6.35969H41.45V7.23069H43.803V8.11469H41.45V8.98569H44.596V9.93469H41.45V10.9747C41.5627 11.1134 41.684 11.2564 41.814 11.4037C41.9527 11.551 42.0957 11.6984 42.243 11.8457C42.4683 11.603 42.7023 11.3257 42.945 11.0137C43.1963 10.693 43.4043 10.4114 43.569 10.1687L44.479 10.6627C44.2623 10.9834 44.0197 11.304 43.751 11.6247C43.4823 11.9367 43.2137 12.2184 42.945 12.4697C43.283 12.7384 43.6297 12.994 43.985 13.2367C44.349 13.4707 44.7043 13.6744 45.051 13.8477C44.947 13.9344 44.8213 14.073 44.674 14.2637C44.5267 14.4457 44.4183 14.5974 44.349 14.7187C44.011 14.5107 43.66 14.2724 43.296 14.0037C42.932 13.735 42.5897 13.4534 42.269 13.1587C41.9483 12.8554 41.6753 12.565 41.45 12.2877V14.4197C41.45 14.827 41.3373 15.126 41.112 15.3167C40.8867 15.5074 40.5443 15.6027 40.085 15.6027H39.162ZM34.768 15.6157V10.1557C34.5687 10.589 34.3563 11.005 34.131 11.4037C33.9057 11.7937 33.6803 12.136 33.455 12.4307C33.3943 12.3787 33.3077 12.318 33.195 12.2487C33.0823 12.1707 32.9653 12.097 32.844 12.0277C32.7313 11.9497 32.6403 11.8934 32.571 11.8587C32.779 11.6247 32.9913 11.3344 33.208 10.9877C33.4333 10.6324 33.6457 10.2554 33.845 9.85669C34.0443 9.45802 34.222 9.06802 34.378 8.68669C34.5427 8.29669 34.6727 7.94569 34.768 7.63369V7.42569H32.961V6.45069H34.768V3.83769H35.821V6.45069H37.277V7.42569H35.821V8.56969C35.951 8.76035 36.1113 8.99002 36.302 9.25869C36.5013 9.51869 36.7093 9.77435 36.926 10.0257C37.1513 10.277 37.3593 10.485 37.55 10.6497C37.4893 10.693 37.4027 10.7624 37.29 10.8577C37.186 10.953 37.0863 11.0484 36.991 11.1437C36.8957 11.239 36.822 11.317 36.77 11.3777C36.6313 11.2217 36.4753 11.0354 36.302 10.8187C36.1373 10.5934 35.977 10.3637 35.821 10.1297V15.6157H34.768ZM37.121 14.6147L36.588 13.6267C36.8913 13.514 37.2423 13.3624 37.641 13.1717C38.0397 12.9724 38.434 12.7644 38.824 12.5477C39.2227 12.3224 39.552 12.123 39.812 11.9497C39.8207 12.0017 39.838 12.1014 39.864 12.2487C39.89 12.3874 39.916 12.526 39.942 12.6647C39.9767 12.7947 39.9983 12.8814 40.007 12.9247C39.7643 13.1067 39.4653 13.306 39.11 13.5227C38.7633 13.7307 38.4123 13.9344 38.057 14.1337C37.7103 14.3244 37.3983 14.4847 37.121 14.6147ZM39.019 12.1447C38.8283 11.9107 38.5987 11.6637 38.33 11.4037C38.07 11.1437 37.8143 10.9184 37.563 10.7277L38.265 10.1037C38.421 10.2164 38.59 10.355 38.772 10.5197C38.9627 10.6844 39.1403 10.849 39.305 11.0137C39.4697 11.1784 39.604 11.3257 39.708 11.4557C39.6647 11.4904 39.5953 11.551 39.5 11.6377C39.4047 11.7244 39.3093 11.8154 39.214 11.9107C39.1273 11.9974 39.0623 12.0754 39.019 12.1447ZM51.811 14.6797C51.369 14.6624 51.0223 14.6147 50.771 14.5367C50.5197 14.45 50.342 14.3114 50.238 14.1207C50.1427 13.93 50.095 13.657 50.095 13.3017V9.03769C49.3583 9.15035 48.691 9.25435 48.093 9.34969C47.5037 9.44502 47.0963 9.51435 46.871 9.55769C46.871 9.47969 46.858 9.35835 46.832 9.19369C46.806 9.02902 46.78 8.86435 46.754 8.69969C46.728 8.53502 46.7063 8.41802 46.689 8.34869C46.9403 8.33135 47.378 8.28802 48.002 8.21869C48.626 8.14069 49.3237 8.04969 50.095 7.94569V6.82769C50.095 6.35969 50.0907 5.90902 50.082 5.47569C50.0733 5.04235 50.0603 4.73469 50.043 4.55269C50.1383 4.56135 50.277 4.57002 50.459 4.57869C50.641 4.58735 50.8187 4.59602 50.992 4.60469C51.1653 4.60469 51.2867 4.60902 51.356 4.61769C51.3473 4.72169 51.3387 4.89502 51.33 5.13769C51.3213 5.38035 51.3127 5.64469 51.304 5.93069C51.2953 6.21669 51.291 6.48535 51.291 6.73669V7.78969C51.8543 7.71169 52.4047 7.63369 52.942 7.55569C53.488 7.46902 53.9993 7.39102 54.476 7.32169C54.9527 7.24369 55.3643 7.17435 55.711 7.11369C56.0663 7.04435 56.3263 6.98802 56.491 6.94469C56.5517 6.98802 56.6297 7.05302 56.725 7.13969C56.8203 7.21769 56.9113 7.29569 56.998 7.37369C57.0847 7.45169 57.141 7.50369 57.167 7.52969C57.089 7.61635 56.9677 7.78535 56.803 8.03669C56.6383 8.27935 56.452 8.56969 56.244 8.90769C56.036 9.23702 55.8237 9.57935 55.607 9.93469C55.399 10.2814 55.1997 10.6064 55.009 10.9097C54.827 11.213 54.6753 11.4557 54.554 11.6377C54.502 11.603 54.398 11.5467 54.242 11.4687C54.086 11.382 53.93 11.304 53.774 11.2347C53.618 11.1567 53.5097 11.109 53.449 11.0917C53.5443 10.9617 53.67 10.7797 53.826 10.5457C53.982 10.303 54.151 10.043 54.333 9.76569C54.515 9.47969 54.6883 9.20669 54.853 8.94669C55.0263 8.67802 55.1693 8.45269 55.282 8.27069C55.0653 8.30535 54.749 8.35302 54.333 8.41369C53.917 8.47435 53.4447 8.54369 52.916 8.62169C52.396 8.69102 51.8543 8.76902 51.291 8.85569V12.8207C51.291 13.0114 51.3127 13.1587 51.356 13.2627C51.408 13.3667 51.5077 13.4404 51.655 13.4837C51.811 13.5184 52.0363 13.54 52.331 13.5487C52.5043 13.5487 52.76 13.5444 53.098 13.5357C53.4447 13.527 53.8303 13.514 54.255 13.4967C54.6797 13.4707 55.1043 13.4447 55.529 13.4187C55.9537 13.3927 56.335 13.3667 56.673 13.3407C57.0197 13.306 57.2753 13.2714 57.44 13.2367C57.4227 13.3407 57.401 13.4794 57.375 13.6527C57.3577 13.8174 57.3403 13.982 57.323 14.1467C57.3143 14.3114 57.31 14.4327 57.31 14.5107C57.076 14.528 56.777 14.5497 56.413 14.5757C56.0577 14.593 55.6677 14.6104 55.243 14.6277C54.8183 14.645 54.3893 14.658 53.956 14.6667C53.5313 14.6754 53.1283 14.6797 52.747 14.6797C52.3743 14.6884 52.0623 14.6884 51.811 14.6797ZM62.25 14.3287C62.2153 14.2507 62.1503 14.1294 62.055 13.9647C61.9597 13.8 61.86 13.6397 61.756 13.4837C61.6607 13.319 61.587 13.2064 61.535 13.1457C62.393 12.9464 63.264 12.6604 64.148 12.2877C65.032 11.915 65.903 11.4774 66.761 10.9747C67.619 10.4634 68.4293 9.90435 69.192 9.29769C69.9633 8.69102 70.6523 8.04969 71.259 7.37369C71.2763 7.46035 71.311 7.60335 71.363 7.80269C71.415 7.99335 71.467 8.17969 71.519 8.36169C71.5797 8.53502 71.623 8.64769 71.649 8.69969C70.8777 9.51435 69.9807 10.2857 68.958 11.0137C67.944 11.733 66.865 12.3787 65.721 12.9507C64.577 13.514 63.42 13.9734 62.25 14.3287ZM64.382 8.51769C64.2347 8.35302 64.0397 8.16235 63.797 7.94569C63.5543 7.72902 63.29 7.50802 63.004 7.28269C62.7267 7.04869 62.4493 6.83202 62.172 6.63269C61.8947 6.42469 61.6477 6.25569 61.431 6.12569C61.509 6.05635 61.613 5.95669 61.743 5.82669C61.873 5.68802 61.9987 5.55369 62.12 5.42369C62.2413 5.29369 62.3193 5.20702 62.354 5.16369C62.562 5.30235 62.8003 5.47569 63.069 5.68369C63.3463 5.88302 63.6237 6.09969 63.901 6.33369C64.187 6.55902 64.4513 6.78002 64.694 6.99669C64.9453 7.21335 65.149 7.40402 65.305 7.56869C65.2443 7.62935 65.1533 7.72469 65.032 7.85469C64.9107 7.97602 64.7893 8.10169 64.668 8.23169C64.5467 8.35302 64.4513 8.44835 64.382 8.51769ZM76.524 15.3557C76.472 15.2777 76.394 15.1737 76.29 15.0437C76.186 14.9224 76.0777 14.801 75.965 14.6797C75.8523 14.5584 75.7483 14.4587 75.653 14.3807C76.5457 13.9994 77.3863 13.5227 78.175 12.9507C78.9723 12.37 79.6873 11.7244 80.32 11.0137C79.9733 10.7624 79.631 10.5327 79.293 10.3247C78.9637 10.108 78.6603 9.93902 78.383 9.81769C78.4437 9.76569 78.526 9.67902 78.63 9.55769C78.734 9.43635 78.838 9.31069 78.942 9.18069C79.046 9.05069 79.1197 8.95535 79.163 8.89469C79.4577 9.03335 79.7697 9.20235 80.099 9.40169C80.4283 9.60102 80.7577 9.82202 81.087 10.0647C81.7457 9.18069 82.257 8.26635 82.621 7.32169C82.4563 7.32169 82.2223 7.32169 81.919 7.32169C81.6157 7.32169 81.2777 7.32602 80.905 7.33469C80.541 7.33469 80.1857 7.33902 79.839 7.34769C79.501 7.34769 79.2107 7.34769 78.968 7.34769C78.5607 7.95435 78.1273 8.53069 77.668 9.07669C77.2087 9.61402 76.7277 10.0994 76.225 10.5327C76.1123 10.4287 75.952 10.303 75.744 10.1557C75.536 9.99969 75.354 9.88702 75.198 9.81769C75.7527 9.37569 76.2857 8.85135 76.797 8.24469C77.3083 7.63802 77.7763 6.98802 78.201 6.29469C78.6257 5.59269 78.981 4.89502 79.267 4.20169C79.345 4.22769 79.4663 4.26669 79.631 4.31869C79.8043 4.36202 79.9733 4.40535 80.138 4.44869C80.3113 4.49202 80.437 4.52235 80.515 4.53969C80.3763 4.83435 80.2333 5.12902 80.086 5.42369C79.9387 5.71835 79.7827 6.00435 79.618 6.28169C79.8953 6.28169 80.2377 6.28169 80.645 6.28169C81.0523 6.28169 81.4683 6.28169 81.893 6.28169C82.3177 6.27302 82.699 6.26435 83.037 6.25569C83.3837 6.24702 83.635 6.23402 83.791 6.21669C83.8603 6.27735 83.947 6.35969 84.051 6.46369C84.1637 6.55902 84.2503 6.63702 84.311 6.69769C84.2417 6.83635 84.1377 7.04435 83.999 7.32169C83.8603 7.59035 83.7433 7.82869 83.648 8.03669C83.2147 9.00735 82.6817 9.92602 82.049 10.7927C82.3523 11.0354 82.6383 11.278 82.907 11.5207C83.1757 11.7547 83.4183 11.9844 83.635 12.2097C83.583 12.2617 83.4877 12.3527 83.349 12.4827C83.219 12.6127 83.089 12.7427 82.959 12.8727C82.829 13.0027 82.7337 13.1024 82.673 13.1717C82.4997 12.955 82.2917 12.7297 82.049 12.4957C81.8063 12.253 81.542 12.0104 81.256 11.7677C80.6233 12.487 79.9083 13.15 79.111 13.7567C78.3223 14.3634 77.46 14.8964 76.524 15.3557ZM88.185 10.3767C88.185 10.2987 88.185 10.1774 88.185 10.0127C88.185 9.83935 88.185 9.67035 88.185 9.50569C88.185 9.34102 88.1807 9.21969 88.172 9.14169C88.3887 9.15035 88.7137 9.15902 89.147 9.16769C89.5803 9.16769 90.083 9.17202 90.655 9.18069C91.2357 9.18069 91.8467 9.18502 92.488 9.19369C93.138 9.19369 93.7837 9.19369 94.425 9.19369C95.075 9.19369 95.686 9.19369 96.258 9.19369C96.83 9.18502 97.3327 9.17635 97.766 9.16769C98.1993 9.15902 98.52 9.15035 98.728 9.14169C98.728 9.16769 98.728 9.20669 98.728 9.25869C98.728 9.31069 98.728 9.36702 98.728 9.42769C98.728 9.58369 98.7237 9.76135 98.715 9.96069C98.715 10.1514 98.7193 10.2857 98.728 10.3637C98.4593 10.355 98.0607 10.3464 97.532 10.3377C97.0033 10.329 96.3967 10.3247 95.712 10.3247C95.036 10.316 94.3297 10.3117 93.593 10.3117C92.8563 10.3117 92.137 10.316 91.435 10.3247C90.733 10.3247 90.096 10.329 89.524 10.3377C88.9607 10.3464 88.5143 10.3594 88.185 10.3767Z" fill="white"/>
<path d="M109.75 0.5L116.874 10L109.75 19.5H0.5V0.5H109.75Z" stroke="white"/>
</svg>
