<svg width="144" height="48" viewBox="0 0 144 48" fill="none" xmlns="http://www.w3.org/2000/svg">
<path d="M125.75 0.5L143.374 24L125.75 47.5H0.5V0.5H125.75Z" fill="#036EB8" stroke="#036EB8"/>
<path d="M16.08 24.4C16 24.1867 15.8733 23.94 15.7 23.66C15.54 23.38 15.3667 23.1133 15.18 22.86C14.9933 22.5933 14.82 22.3933 14.66 22.26C16.1133 21.8333 17.3267 21.2467 18.3 20.5C19.2733 19.74 20.0267 18.7733 20.56 17.6C21.0933 16.4267 21.4133 14.9867 21.52 13.28L16.04 13.46L15.98 11.1L21.56 10.98V6.36H23.98V10.92L29.34 10.8C29.3267 10.9067 29.3067 11.2067 29.28 11.7C29.2533 12.1933 29.22 12.8 29.18 13.52C29.14 14.2267 29.0933 14.98 29.04 15.78C29 16.5667 28.96 17.3333 28.92 18.08C28.88 18.8133 28.8467 19.4467 28.82 19.98C28.7933 20.5133 28.7733 20.8733 28.76 21.06C28.7467 21.2467 28.78 21.3933 28.86 21.5C28.9533 21.5933 29.1333 21.64 29.4 21.64H30.08C30.3333 21.64 30.54 21.5867 30.7 21.48C30.86 21.36 30.9933 21.1133 31.1 20.74C31.2067 20.3533 31.3 19.7533 31.38 18.94C31.7133 19.1533 32.0933 19.34 32.52 19.5C32.9467 19.66 33.3533 19.7933 33.74 19.9C33.6467 21.0867 33.46 21.9867 33.18 22.6C32.9133 23.2 32.56 23.6 32.12 23.8C31.68 24.0133 31.1467 24.12 30.52 24.12H28.46C27.6467 24.12 27.0467 23.98 26.66 23.7C26.2733 23.42 26.1 22.9333 26.14 22.24C26.14 22.24 26.1467 22.1333 26.16 21.92C26.1733 21.6933 26.2 21.2667 26.24 20.64C26.28 20 26.3333 19.08 26.4 17.88C26.4667 16.6667 26.56 15.08 26.68 13.12L23.94 13.2C23.8467 15.16 23.5 16.8533 22.9 18.28C22.3133 19.7067 21.4533 20.92 20.32 21.92C19.2 22.9067 17.7867 23.7333 16.08 24.4ZM36.66 24.46C36.4733 24.22 36.2 23.94 35.84 23.62C35.4933 23.3 35.1533 23.0467 34.82 22.86C35.6867 22.22 36.38 21.54 36.9 20.82C37.4333 20.1 37.82 19.2667 38.06 18.32C38.3133 17.36 38.44 16.2 38.44 14.84V6.5H40.8V11.66L42.6 11C42.8133 11.3733 43.04 11.8867 43.28 12.54C43.5333 13.1933 43.7667 13.8467 43.98 14.5V6.98H46.34V11.72L48.3 11C48.46 11.28 48.6333 11.6533 48.82 12.12C49.0067 12.5733 49.1933 13.06 49.38 13.58C49.5667 14.0867 49.7267 14.5733 49.86 15.04V6.5H52.24V24.36H49.86V16.44C49.58 16.52 49.26 16.62 48.9 16.74C48.5533 16.8467 48.28 16.9467 48.08 17.04C48 16.7333 47.8933 16.3533 47.76 15.9C47.64 15.4467 47.4933 14.9733 47.32 14.48C47.16 13.9733 46.9933 13.4867 46.82 13.02C46.66 12.5533 46.5 12.16 46.34 11.84V22.94H43.98V16.5C43.7 16.58 43.4 16.6733 43.08 16.78C42.7733 16.8733 42.5267 16.96 42.34 17.04C42.26 16.6667 42.1333 16.1867 41.96 15.6C41.8 15.0133 41.6133 14.4133 41.4 13.8C41.2 13.1867 41 12.6533 40.8 12.2V14.84C40.8 16.4267 40.64 17.8067 40.32 18.98C40 20.1533 39.5333 21.1867 38.92 22.08C38.3067 22.96 37.5533 23.7533 36.66 24.46ZM36.76 17.48C36.5067 17.3733 36.1667 17.2667 35.74 17.16C35.3133 17.0533 34.96 16.9867 34.68 16.96C34.8133 16.6267 34.9333 16.2067 35.04 15.7C35.16 15.18 35.2667 14.6333 35.36 14.06C35.4533 13.4733 35.52 12.9067 35.56 12.36C35.6133 11.8133 35.64 11.34 35.64 10.94L37.78 11.06C37.78 11.5 37.7533 12.0133 37.7 12.6C37.66 13.1733 37.5933 13.7667 37.5 14.38C37.42 14.98 37.3133 15.5533 37.18 16.1C37.06 16.6467 36.92 17.1067 36.76 17.48ZM55.29 21.71C55.3 21.57 55.3 21.38 55.29 21.14C55.29 20.89 55.285 20.645 55.275 20.405C55.275 20.155 55.27 19.965 55.26 19.835C55.48 19.845 55.85 19.855 56.37 19.865C56.89 19.865 57.505 19.865 58.215 19.865C58.925 19.865 59.675 19.865 60.465 19.865V14.825C59.895 14.825 59.345 14.83 58.815 14.84C58.295 14.85 57.835 14.86 57.435 14.87C57.035 14.87 56.725 14.875 56.505 14.885C56.515 14.725 56.515 14.525 56.505 14.285C56.505 14.035 56.5 13.79 56.49 13.55C56.48 13.31 56.47 13.125 56.46 12.995C56.72 13.005 57.105 13.015 57.615 13.025C58.125 13.035 58.71 13.04 59.37 13.04C60.04 13.04 60.73 13.04 61.44 13.04C62.16 13.04 62.85 13.035 63.51 13.025C64.18 13.015 64.775 13.005 65.295 12.995C65.825 12.975 66.225 12.955 66.495 12.935C66.495 13.085 66.49 13.285 66.48 13.535C66.48 13.785 66.475 14.035 66.465 14.285C66.465 14.525 66.465 14.715 66.465 14.855C66.125 14.835 65.585 14.825 64.845 14.825C64.115 14.825 63.315 14.825 62.445 14.825V19.85C63.285 19.84 64.08 19.83 64.83 19.82C65.58 19.81 66.22 19.8 66.75 19.79C67.28 19.77 67.63 19.755 67.8 19.745C67.79 19.845 67.785 19.99 67.785 20.18C67.785 20.36 67.785 20.555 67.785 20.765C67.785 20.975 67.785 21.16 67.785 21.32C67.785 21.38 67.785 21.44 67.785 21.5C67.785 21.55 67.785 21.59 67.785 21.62C67.535 21.6 67.155 21.585 66.645 21.575C66.135 21.565 65.535 21.56 64.845 21.56C64.165 21.55 63.44 21.545 62.67 21.545C61.91 21.545 61.145 21.55 60.375 21.56C59.605 21.57 58.88 21.58 58.2 21.59C57.52 21.6 56.925 21.615 56.415 21.635C55.905 21.655 55.53 21.68 55.29 21.71ZM75.255 23.87C75.175 23.73 75.055 23.555 74.895 23.345C74.735 23.145 74.565 22.945 74.385 22.745C74.205 22.535 74.04 22.36 73.89 22.22C74.6 21.98 75.205 21.72 75.705 21.44C76.215 21.15 76.635 20.81 76.965 20.42C77.295 20.03 77.55 19.555 77.73 18.995C77.92 18.435 78.05 17.76 78.12 16.97C78.2 16.18 78.24 15.245 78.24 14.165C78.24 13.445 78.23 12.8 78.21 12.23C78.2 11.65 78.18 11.235 78.15 10.985C78.18 10.985 78.21 10.99 78.24 11C78.28 11 78.32 11 78.36 11C78.56 11.01 78.785 11.025 79.035 11.045C79.285 11.055 79.525 11.065 79.755 11.075C79.985 11.075 80.165 11.075 80.295 11.075C80.285 11.225 80.27 11.465 80.25 11.795C80.24 12.125 80.23 12.5 80.22 12.92C80.21 13.33 80.205 13.745 80.205 14.165C80.205 15.295 80.165 16.295 80.085 17.165C80.005 18.035 79.86 18.8 79.65 19.46C79.44 20.12 79.15 20.71 78.78 21.23C78.41 21.75 77.935 22.225 77.355 22.655C76.785 23.075 76.085 23.48 75.255 23.87ZM72.99 18.545C73 18.345 73.005 18.05 73.005 17.66C73.015 17.26 73.02 16.81 73.02 16.31C73.03 15.81 73.03 15.295 73.02 14.765C73.02 14.235 73.015 13.725 73.005 13.235C72.995 12.745 72.985 12.32 72.975 11.96C72.965 11.6 72.95 11.34 72.93 11.18C73.08 11.19 73.285 11.2 73.545 11.21C73.815 11.22 74.085 11.23 74.355 11.24C74.625 11.25 74.83 11.255 74.97 11.255C74.95 11.465 74.935 11.68 74.925 11.9C74.925 12.11 74.925 12.355 74.925 12.635C74.925 12.685 74.925 12.745 74.925 12.815C74.925 12.875 74.925 12.935 74.925 12.995C74.925 13.095 74.925 13.235 74.925 13.415C74.925 13.585 74.925 13.775 74.925 13.985C74.915 14.355 74.91 14.765 74.91 15.215C74.91 15.655 74.91 16.095 74.91 16.535C74.91 16.975 74.91 17.375 74.91 17.735C74.92 18.095 74.93 18.365 74.94 18.545C74.68 18.535 74.355 18.53 73.965 18.53C73.575 18.53 73.25 18.535 72.99 18.545ZM88.785 23.78C88.705 23.7 88.56 23.58 88.35 23.42C88.14 23.27 87.915 23.115 87.675 22.955C87.445 22.785 87.24 22.655 87.06 22.565C88.37 21.875 89.305 20.9 89.865 19.64C90.435 18.38 90.655 16.815 90.525 14.945C90.675 14.955 90.88 14.97 91.14 14.99C91.41 15 91.675 15.01 91.935 15.02C92.195 15.03 92.38 15.035 92.49 15.035V15.29C92.78 15.08 93.08 14.86 93.39 14.63C93.7 14.4 93.985 14.185 94.245 13.985C94.515 13.785 94.715 13.63 94.845 13.52C94.705 13.52 94.45 13.525 94.08 13.535C93.71 13.535 93.26 13.54 92.73 13.55C92.21 13.55 91.65 13.555 91.05 13.565C90.46 13.565 89.87 13.57 89.28 13.58C88.69 13.58 88.14 13.585 87.63 13.595C87.12 13.595 86.69 13.595 86.34 13.595C85.99 13.595 85.76 13.595 85.65 13.595C85.65 13.465 85.645 13.295 85.635 13.085C85.635 12.865 85.63 12.64 85.62 12.41C85.62 12.18 85.62 11.99 85.62 11.84C85.9 11.86 86.305 11.88 86.835 11.9C87.365 11.92 87.97 11.935 88.65 11.945C89.34 11.945 90.06 11.945 90.81 11.945C91.57 11.945 92.315 11.94 93.045 11.93C93.775 11.91 94.45 11.885 95.07 11.855C95.7 11.815 96.22 11.77 96.63 11.72C96.78 11.85 96.955 12.025 97.155 12.245C97.355 12.465 97.535 12.65 97.695 12.8C97.455 13.05 97.13 13.37 96.72 13.76C96.32 14.14 95.88 14.54 95.4 14.96C94.93 15.38 94.47 15.78 94.02 16.16C93.58 16.54 93.2 16.855 92.88 17.105C92.75 16.965 92.6 16.815 92.43 16.655C92.31 18.265 91.955 19.66 91.365 20.84C90.785 22.01 89.925 22.99 88.785 23.78ZM107.235 23.48C107.155 23.33 107.05 23.155 106.92 22.955C106.79 22.745 106.65 22.54 106.5 22.34C106.36 22.14 106.215 21.975 106.065 21.845C107.275 21.635 108.255 21.305 109.005 20.855C109.765 20.405 110.32 19.875 110.67 19.265C111.02 18.655 111.195 18.005 111.195 17.315C111.195 16.595 111.045 15.94 110.745 15.35C110.455 14.75 110.03 14.255 109.47 13.865C108.92 13.475 108.245 13.225 107.445 13.115C107.325 14.385 107.13 15.58 106.86 16.7C106.59 17.81 106.265 18.79 105.885 19.64C105.505 20.49 105.09 21.16 104.64 21.65C104.19 22.13 103.72 22.37 103.23 22.37C102.83 22.37 102.43 22.255 102.03 22.025C101.64 21.795 101.285 21.47 100.965 21.05C100.655 20.62 100.405 20.115 100.215 19.535C100.025 18.955 99.93 18.32 99.93 17.63C99.93 16.83 100.08 16.06 100.38 15.32C100.68 14.58 101.12 13.92 101.7 13.34C102.28 12.76 102.99 12.305 103.83 11.975C104.67 11.635 105.63 11.465 106.71 11.465C107.73 11.465 108.635 11.63 109.425 11.96C110.215 12.28 110.88 12.715 111.42 13.265C111.96 13.815 112.37 14.44 112.65 15.14C112.93 15.84 113.07 16.565 113.07 17.315C113.07 18.845 112.575 20.14 111.585 21.2C110.595 22.25 109.145 23.01 107.235 23.48ZM103.125 20.33C103.295 20.33 103.495 20.155 103.725 19.805C103.965 19.455 104.21 18.96 104.46 18.32C104.71 17.67 104.94 16.905 105.15 16.025C105.37 15.145 105.54 14.175 105.66 13.115C104.81 13.235 104.085 13.52 103.485 13.97C102.895 14.41 102.445 14.95 102.135 15.59C101.835 16.22 101.685 16.885 101.685 17.585C101.685 18.125 101.755 18.605 101.895 19.025C102.035 19.435 102.215 19.755 102.435 19.985C102.655 20.215 102.885 20.33 103.125 20.33ZM20.255 40.87C20.175 40.73 20.055 40.555 19.895 40.345C19.735 40.145 19.565 39.945 19.385 39.745C19.205 39.535 19.04 39.36 18.89 39.22C19.6 38.98 20.205 38.72 20.705 38.44C21.215 38.15 21.635 37.81 21.965 37.42C22.295 37.03 22.55 36.555 22.73 35.995C22.92 35.435 23.05 34.76 23.12 33.97C23.2 33.18 23.24 32.245 23.24 31.165C23.24 30.445 23.23 29.8 23.21 29.23C23.2 28.65 23.18 28.235 23.15 27.985C23.18 27.985 23.21 27.99 23.24 28C23.28 28 23.32 28 23.36 28C23.56 28.01 23.785 28.025 24.035 28.045C24.285 28.055 24.525 28.065 24.755 28.075C24.985 28.075 25.165 28.075 25.295 28.075C25.285 28.225 25.27 28.465 25.25 28.795C25.24 29.125 25.23 29.5 25.22 29.92C25.21 30.33 25.205 30.745 25.205 31.165C25.205 32.295 25.165 33.295 25.085 34.165C25.005 35.035 24.86 35.8 24.65 36.46C24.44 37.12 24.15 37.71 23.78 38.23C23.41 38.75 22.935 39.225 22.355 39.655C21.785 40.075 21.085 40.48 20.255 40.87ZM17.99 35.545C18 35.345 18.005 35.05 18.005 34.66C18.015 34.26 18.02 33.81 18.02 33.31C18.03 32.81 18.03 32.295 18.02 31.765C18.02 31.235 18.015 30.725 18.005 30.235C17.995 29.745 17.985 29.32 17.975 28.96C17.965 28.6 17.95 28.34 17.93 28.18C18.08 28.19 18.285 28.2 18.545 28.21C18.815 28.22 19.085 28.23 19.355 28.24C19.625 28.25 19.83 28.255 19.97 28.255C19.95 28.465 19.935 28.68 19.925 28.9C19.925 29.11 19.925 29.355 19.925 29.635C19.925 29.685 19.925 29.745 19.925 29.815C19.925 29.875 19.925 29.935 19.925 29.995C19.925 30.095 19.925 30.235 19.925 30.415C19.925 30.585 19.925 30.775 19.925 30.985C19.915 31.355 19.91 31.765 19.91 32.215C19.91 32.655 19.91 33.095 19.91 33.535C19.91 33.975 19.91 34.375 19.91 34.735C19.92 35.095 19.93 35.365 19.94 35.545C19.68 35.535 19.355 35.53 18.965 35.53C18.575 35.53 18.25 35.535 17.99 35.545ZM33.59 40.405C33.48 40.285 33.33 40.13 33.14 39.94C32.96 39.75 32.775 39.57 32.585 39.4C32.395 39.22 32.235 39.09 32.105 39.01C33.425 38.5 34.57 37.845 35.54 37.045C36.51 36.235 37.32 35.325 37.97 34.315C38.63 33.295 39.135 32.22 39.485 31.09C39.305 31.09 39.01 31.095 38.6 31.105C38.2 31.115 37.73 31.125 37.19 31.135C36.66 31.135 36.105 31.14 35.525 31.15C34.945 31.16 34.38 31.175 33.83 31.195C33.29 31.205 32.8 31.215 32.36 31.225C31.93 31.235 31.6 31.245 31.37 31.255C31.38 31.105 31.38 30.91 31.37 30.67C31.36 30.43 31.35 30.19 31.34 29.95C31.33 29.71 31.32 29.525 31.31 29.395C31.64 29.425 32.075 29.45 32.615 29.47C33.165 29.48 33.77 29.49 34.43 29.5C35.09 29.5 35.765 29.495 36.455 29.485C37.145 29.475 37.8 29.465 38.42 29.455C39.05 29.435 39.6 29.415 40.07 29.395C40.55 29.375 40.9 29.355 41.12 29.335C41.23 29.415 41.385 29.535 41.585 29.695C41.785 29.845 41.925 29.955 42.005 30.025C41.935 30.155 41.86 30.325 41.78 30.535C41.7 30.735 41.59 30.985 41.45 31.285C40.75 33.445 39.755 35.27 38.465 36.76C37.185 38.24 35.56 39.455 33.59 40.405ZM51.05 41.155C51.01 41.045 50.95 40.895 50.87 40.705C50.79 40.515 50.7 40.32 50.6 40.12C50.5 39.93 50.4 39.775 50.3 39.655C50.44 39.645 50.6 39.63 50.78 39.61C50.97 39.59 51.14 39.57 51.29 39.55C51.58 39.51 51.765 39.45 51.845 39.37C51.935 39.29 51.98 39.12 51.98 38.86V35.98C51.6 36.47 51.155 36.96 50.645 37.45C50.145 37.94 49.62 38.395 49.07 38.815C48.52 39.235 47.98 39.6 47.45 39.91C47.33 39.74 47.155 39.535 46.925 39.295C46.705 39.055 46.515 38.875 46.355 38.755C46.895 38.475 47.455 38.125 48.035 37.705C48.625 37.285 49.185 36.835 49.715 36.355C50.245 35.875 50.68 35.41 51.02 34.96C50.41 34.96 49.825 34.965 49.265 34.975C48.705 34.975 48.22 34.98 47.81 34.99C47.41 34.99 47.125 34.995 46.955 35.005C46.965 34.905 46.97 34.76 46.97 34.57C46.97 34.37 46.97 34.175 46.97 33.985C46.97 33.785 46.965 33.635 46.955 33.535C47.195 33.555 47.575 33.57 48.095 33.58C48.625 33.59 49.23 33.595 49.91 33.595C50.59 33.595 51.28 33.595 51.98 33.595V33.325C51.98 32.945 51.965 32.57 51.935 32.2C51.915 31.82 51.88 31.545 51.83 31.375C51.93 31.375 52.09 31.38 52.31 31.39C52.53 31.4 52.755 31.41 52.985 31.42C53.215 31.42 53.38 31.42 53.48 31.42C53.46 31.58 53.445 31.82 53.435 32.14C53.425 32.46 53.42 32.775 53.42 33.085V33.58C54.06 33.57 54.625 33.56 55.115 33.55C55.615 33.54 55.97 33.53 56.18 33.52V34.975C55.98 34.965 55.63 34.96 55.13 34.96C54.64 34.95 54.075 34.945 53.435 34.945C53.445 35.625 53.455 36.28 53.465 36.91C53.485 37.53 53.5 38.065 53.51 38.515C53.52 38.965 53.525 39.275 53.525 39.445C53.525 39.835 53.435 40.135 53.255 40.345C53.085 40.555 52.83 40.715 52.49 40.825C52.24 40.895 52 40.96 51.77 41.02C51.54 41.08 51.3 41.125 51.05 41.155ZM60.38 35.275C60.39 35.135 60.395 34.945 60.395 34.705C60.395 34.465 60.395 34.225 60.395 33.985C60.395 33.745 60.39 33.555 60.38 33.415C60.57 33.425 60.905 33.435 61.385 33.445C61.875 33.455 62.455 33.465 63.125 33.475C63.805 33.485 64.53 33.495 65.3 33.505C66.07 33.505 66.84 33.505 67.61 33.505C68.38 33.505 69.105 33.5 69.785 33.49C70.475 33.48 71.07 33.47 71.57 33.46C72.07 33.45 72.425 33.435 72.635 33.415C72.625 33.545 72.615 33.73 72.605 33.97C72.605 34.21 72.605 34.455 72.605 34.705C72.615 34.945 72.62 35.13 72.62 35.26C72.37 35.25 72 35.24 71.51 35.23C71.03 35.22 70.465 35.21 69.815 35.2C69.175 35.19 68.49 35.185 67.76 35.185C67.04 35.185 66.31 35.185 65.57 35.185C64.83 35.185 64.125 35.19 63.455 35.2C62.785 35.21 62.18 35.22 61.64 35.23C61.11 35.24 60.69 35.255 60.38 35.275ZM85.88 39.865C85.76 39.605 85.62 39.335 85.46 39.055C85.31 38.775 85.145 38.485 84.965 38.185C84.635 38.215 84.21 38.26 83.69 38.32C83.17 38.38 82.6 38.45 81.98 38.53C81.36 38.61 80.73 38.695 80.09 38.785C79.46 38.865 78.855 38.95 78.275 39.04C77.705 39.12 77.205 39.195 76.775 39.265C76.345 39.335 76.025 39.395 75.815 39.445C75.795 39.305 75.75 39.11 75.68 38.86C75.62 38.61 75.555 38.36 75.485 38.11C75.425 37.85 75.375 37.655 75.335 37.525C75.515 37.535 75.76 37.53 76.07 37.51C76.38 37.49 76.735 37.46 77.135 37.42C77.255 37.19 77.415 36.855 77.615 36.415C77.825 35.965 78.06 35.455 78.32 34.885C78.58 34.315 78.845 33.725 79.115 33.115C79.395 32.505 79.655 31.92 79.895 31.36C80.145 30.8 80.355 30.305 80.525 29.875C80.705 29.445 80.83 29.125 80.9 28.915C81.04 28.975 81.24 29.065 81.5 29.185C81.77 29.305 82.035 29.42 82.295 29.53C82.565 29.63 82.76 29.705 82.88 29.755C82.76 29.935 82.585 30.245 82.355 30.685C82.135 31.125 81.88 31.635 81.59 32.215C81.3 32.795 81 33.4 80.69 34.03C80.39 34.65 80.105 35.245 79.835 35.815C79.565 36.375 79.335 36.85 79.145 37.24C79.735 37.17 80.325 37.105 80.915 37.045C81.515 36.975 82.08 36.91 82.61 36.85C83.15 36.79 83.615 36.74 84.005 36.7C83.705 36.26 83.4 35.845 83.09 35.455C82.78 35.065 82.48 34.725 82.19 34.435C82.33 34.365 82.49 34.275 82.67 34.165C82.86 34.045 83.045 33.925 83.225 33.805C83.405 33.675 83.55 33.57 83.66 33.49C84.13 33.95 84.61 34.49 85.1 35.11C85.6 35.72 86.07 36.36 86.51 37.03C86.95 37.69 87.32 38.335 87.62 38.965C87.35 39.085 87.05 39.23 86.72 39.4C86.39 39.57 86.11 39.725 85.88 39.865ZM96.56 40.81C95.71 40.81 95.015 40.605 94.475 40.195C93.945 39.795 93.68 39.255 93.68 38.575C93.68 37.885 93.93 37.345 94.43 36.955C94.94 36.565 95.66 36.37 96.59 36.37C96.73 36.37 96.865 36.375 96.995 36.385C97.135 36.395 97.27 36.41 97.4 36.43C97.38 36.2 97.36 35.985 97.34 35.785C97.32 35.585 97.3 35.41 97.28 35.26C97.21 34.35 97.385 33.625 97.805 33.085C98.225 32.545 98.785 32.2 99.485 32.05C99.095 31.88 98.715 31.725 98.345 31.585C97.975 31.445 97.66 31.335 97.4 31.255C97.48 31.145 97.57 31.005 97.67 30.835C97.77 30.655 97.865 30.48 97.955 30.31C98.055 30.13 98.125 29.98 98.165 29.86C98.495 29.96 98.865 30.095 99.275 30.265C99.685 30.425 100.105 30.605 100.535 30.805C100.965 30.995 101.375 31.19 101.765 31.39C102.155 31.58 102.485 31.755 102.755 31.915C102.625 32.085 102.48 32.305 102.32 32.575C102.16 32.845 102.03 33.08 101.93 33.28C101.59 33.1 101.23 33 100.85 32.98C100.47 32.96 100.12 33.03 99.8 33.19C99.48 33.34 99.23 33.585 99.05 33.925C98.88 34.265 98.83 34.7 98.9 35.23C98.92 35.44 98.955 35.69 99.005 35.98C99.055 36.27 99.1 36.565 99.14 36.865C99.81 37.105 100.47 37.405 101.12 37.765C101.77 38.115 102.4 38.485 103.01 38.875C102.85 39.065 102.67 39.31 102.47 39.61C102.28 39.9 102.125 40.17 102.005 40.42C101.595 40.1 101.16 39.795 100.7 39.505C100.25 39.205 99.79 38.935 99.32 38.695C99.3 39.425 99.065 39.96 98.615 40.3C98.165 40.64 97.48 40.81 96.56 40.81ZM91.805 39.805C91.585 39.685 91.305 39.565 90.965 39.445C90.625 39.325 90.32 39.235 90.05 39.175C90.23 38.795 90.425 38.33 90.635 37.78C90.855 37.23 91.08 36.63 91.31 35.98C91.54 35.33 91.765 34.66 91.985 33.97C92.215 33.27 92.425 32.59 92.615 31.93C92.155 31.96 91.735 31.99 91.355 32.02C90.975 32.05 90.675 32.08 90.455 32.11C90.445 31.97 90.425 31.79 90.395 31.57C90.375 31.34 90.35 31.11 90.32 30.88C90.29 30.65 90.26 30.47 90.23 30.34C90.56 30.33 90.98 30.32 91.49 30.31C92 30.29 92.53 30.27 93.08 30.25C93.22 29.73 93.34 29.245 93.44 28.795C93.54 28.345 93.61 27.975 93.65 27.685C93.88 27.735 94.175 27.79 94.535 27.85C94.895 27.91 95.2 27.95 95.45 27.97C95.41 28.17 95.335 28.465 95.225 28.855C95.115 29.245 94.99 29.685 94.85 30.175C95.21 30.155 95.545 30.135 95.855 30.115C96.165 30.085 96.43 30.055 96.65 30.025C96.64 30.245 96.63 30.53 96.62 30.88C96.62 31.23 96.62 31.52 96.62 31.75C96.4 31.75 96.085 31.76 95.675 31.78C95.265 31.79 94.825 31.805 94.355 31.825C94.135 32.565 93.9 33.33 93.65 34.12C93.41 34.91 93.17 35.675 92.93 36.415C92.7 37.145 92.485 37.805 92.285 38.395C92.085 38.985 91.925 39.455 91.805 39.805ZM96.425 39.295C96.945 39.295 97.27 39.22 97.4 39.07C97.54 38.91 97.6 38.67 97.58 38.35C97.57 38.3 97.565 38.245 97.565 38.185C97.565 38.115 97.56 38.045 97.55 37.975C97.19 37.885 96.845 37.84 96.515 37.84C96.085 37.84 95.77 37.9 95.57 38.02C95.38 38.13 95.285 38.315 95.285 38.575C95.285 38.795 95.38 38.97 95.57 39.1C95.77 39.23 96.055 39.295 96.425 39.295ZM110.195 41.02C110.145 40.87 110.07 40.69 109.97 40.48C109.87 40.27 109.765 40.065 109.655 39.865C109.555 39.655 109.455 39.495 109.355 39.385C111.115 39.365 112.475 39.14 113.435 38.71C114.395 38.27 114.875 37.675 114.875 36.925C114.875 36.355 114.66 35.915 114.23 35.605C113.8 35.295 113.23 35.14 112.52 35.14C112.12 35.14 111.695 35.195 111.245 35.305C110.805 35.415 110.38 35.575 109.97 35.785C109.56 35.995 109.2 36.26 108.89 36.58C108.59 36.89 108.37 37.25 108.23 37.66L108.215 37.645C107.985 37.555 107.695 37.47 107.345 37.39C107.005 37.31 106.735 37.25 106.535 37.21C106.635 36.95 106.735 36.605 106.835 36.175C106.935 35.735 107.035 35.255 107.135 34.735C107.235 34.205 107.325 33.68 107.405 33.16C107.495 32.63 107.57 32.145 107.63 31.705C107.7 31.255 107.745 30.89 107.765 30.61C107.995 30.67 108.3 30.73 108.68 30.79C109.06 30.85 109.375 30.9 109.625 30.94C109.555 31.38 109.45 31.96 109.31 32.68C109.17 33.39 109.025 34.105 108.875 34.825C109.405 34.445 110 34.145 110.66 33.925C111.32 33.705 111.975 33.595 112.625 33.595C113.535 33.595 114.295 33.74 114.905 34.03C115.515 34.31 115.975 34.7 116.285 35.2C116.605 35.7 116.765 36.275 116.765 36.925C116.765 38.115 116.235 39.07 115.175 39.79C114.125 40.5 112.465 40.91 110.195 41.02ZM112.61 31.12C112.35 30.88 112.015 30.605 111.605 30.295C111.195 29.985 110.77 29.69 110.33 29.41C109.89 29.13 109.495 28.91 109.145 28.75C109.315 28.58 109.515 28.375 109.745 28.135C109.985 27.885 110.2 27.66 110.39 27.46C110.76 27.62 111.155 27.835 111.575 28.105C111.995 28.375 112.405 28.66 112.805 28.96C113.205 29.25 113.55 29.525 113.84 29.785C113.72 29.895 113.58 30.035 113.42 30.205C113.26 30.375 113.105 30.545 112.955 30.715C112.815 30.875 112.7 31.01 112.61 31.12Z" fill="white"/>
</svg>
