<svg width="338" height="48" viewBox="0 0 338 48" fill="none" xmlns="http://www.w3.org/2000/svg">
<g clip-path="url(#clip0_5300_1340)">
<path d="M79.2042 21.7866L73.8017 20.9644C68.8416 20.3478 68.8416 19.1462 68.8416 18.5613C68.8416 16.585 71.8746 15.8893 74.7179 15.8893C80.5785 15.8893 82.0002 17.9921 82.5531 19.5731L82.6163 19.7312L87.1657 18.2292L87.1025 18.0553C86.5496 16.5059 84.8594 11.8103 74.8443 11.8103C67.8622 11.8103 64.0236 14.3083 64.0236 18.8458C64.0236 22.419 66.9934 24.7905 72.3959 25.5336L77.8615 26.2925C80.0572 26.5613 82.6636 27.2569 82.6636 28.9802C82.6636 30.7036 79.9466 31.9684 76.187 31.9684C70.5003 31.9684 68.7152 29.834 67.8148 27.9842L67.7516 27.8419L63.139 29.2964L63.1864 29.4704C65.0978 35.6838 73.5332 36.1581 76.0765 36.1581C83.3271 36.1581 87.4974 33.3913 87.4974 28.5692C87.4974 24.8696 84.7962 22.6561 79.22 21.7866H79.2042Z" fill="#0075C1"/>
<path d="M97.6388 25.7391H111.413V21.5336H97.6388V16.585H113.641V12.3953H92.8208V35.6047H114.02V31.3992H97.6388V25.7391Z" fill="#0075C1"/>
<path d="M143.512 12.3953H136.609L124.209 22.8458V12.3953H119.391V35.6047H124.209V28.3953L128.869 24.5217L138.204 35.6047H144.507L132.391 21.6443L143.512 12.3953Z" fill="#0075C1"/>
<path d="M153.59 12.3953H148.772V35.5889H153.59V12.3953Z" fill="#0075C1"/>
<path d="M175.216 21.7866L169.813 20.9644C164.853 20.3478 164.853 19.1462 164.853 18.5613C164.853 16.585 167.886 15.8893 170.73 15.8893C176.59 15.8893 178.012 17.9921 178.565 19.5731L178.628 19.7312L183.177 18.2292L183.114 18.0553C182.561 16.5059 180.871 11.8103 170.856 11.8103C163.874 11.8103 160.035 14.3083 160.035 18.8458C160.035 22.419 163.005 24.7905 168.408 25.5336L173.873 26.2925C176.069 26.5613 178.675 27.2569 178.675 28.9802C178.675 30.7036 175.958 31.9684 172.199 31.9684C166.512 31.9684 164.727 29.834 163.827 27.9842L163.763 27.8419L159.151 29.2964L159.198 29.4704C161.11 35.6838 169.545 36.1581 172.088 36.1581C179.339 36.1581 183.509 33.3913 183.509 28.5692C183.509 24.8696 180.808 22.6561 175.232 21.7866H175.216Z" fill="#0075C1"/>
<path d="M208.263 25.2964C208.263 31.1779 204.487 31.9684 200.775 31.9684C197.063 31.9684 193.287 31.1779 193.287 25.2964V12.3953H188.469V25.6126C188.469 32.6166 192.608 36.1581 200.759 36.1581C208.91 36.1581 213.049 32.6008 213.049 25.6126V12.3953H208.231V25.2964H208.263Z" fill="#0075C1"/>
<path d="M224.359 12.3953H219.541V35.5889H224.359V12.3953Z" fill="#0075C1"/>
<path d="M261.655 21.4387H246.696V12.3953H241.878V35.6047H246.696V25.7707H261.655V35.6047H266.457V12.3953H261.655V21.4387Z" fill="#0075C1"/>
<path d="M277.72 25.7391H291.495V21.5336H277.72V16.585H293.722V12.3953H272.902V35.6047H294.101V31.3992H277.72V25.7391Z" fill="#0075C1"/>
<path d="M304.969 12.3953H300.151V35.5889H304.969V12.3953Z" fill="#0075C1"/>
<path d="M331.839 12.3953L324.699 29.0593L317.749 12.5059L317.701 12.3953H311.399V35.6047H315.711V18.8458L322.788 35.4941L322.835 35.6047H326.611L333.688 18.8458V35.6047H338V12.3953H331.839Z" fill="#0075C1"/>
<path d="M10.5205 30.087V19.0514C10.5205 18.419 10.9628 17.6601 11.4999 17.3439L20.0617 12.3953C20.5988 12.0791 21.4834 12.0791 22.0205 12.3953L31.5616 17.913L41.1028 12.3953C41.6399 12.0791 41.6399 11.5731 41.1028 11.2569L22.0363 0.237154C21.4992 -0.0790514 20.6146 -0.0790514 20.0775 0.237154L0.97939 11.2569C0.442305 11.5731 0 12.332 0 12.9644V22.8617C0 23.4941 0.442305 24.253 0.97939 24.5692L10.5205 30.087Z" fill="url(#paint0_linear_5300_1340)"/>
<path d="M31.5775 17.913V28.9486C31.5775 29.581 31.1351 30.3399 30.5981 30.6561L22.0363 35.6047C21.4992 35.9209 20.6146 35.9209 20.0775 35.6047L10.5364 30.087L0.995221 35.6047C0.458136 35.9209 0.458136 36.4269 0.995221 36.7431L20.0775 47.7787C20.6146 48.0949 21.4992 48.0949 22.0363 47.7787L41.1186 36.7431C41.6557 36.4269 42.098 35.668 42.098 35.0356V25.1383C42.098 24.5059 41.6557 23.747 41.1186 23.4308L31.5775 17.913Z" fill="url(#paint1_linear_5300_1340)"/>
<path d="M10.5205 30.087V19.0514C10.5205 18.419 10.9628 17.6601 11.4999 17.3439L20.0617 12.3953C20.5988 12.0791 21.4834 12.0791 22.0205 12.3953L31.5616 17.913L41.1028 12.3953C41.6399 12.0791 41.6399 11.5731 41.1028 11.2569L22.0363 0.237154C21.4992 -0.0790514 20.6146 -0.0790514 20.0775 0.237154L0.97939 11.2569C0.442305 11.5731 0 12.332 0 12.9644V22.8617C0 23.4941 0.442305 24.253 0.97939 24.5692L10.5205 30.087Z" fill="url(#paint2_linear_5300_1340)"/>
<path d="M31.5775 17.913V28.9486C31.5775 29.581 31.1351 30.3399 30.5981 30.6561L22.0363 35.6047C21.4992 35.9209 20.6146 35.9209 20.0775 35.6047L10.5364 30.087L0.995221 35.6047C0.458136 35.9209 0.458136 36.4269 0.995221 36.7431L20.0775 47.7787C20.6146 48.0949 21.4992 48.0949 22.0363 47.7787L41.1186 36.7431C41.6557 36.4269 42.098 35.668 42.098 35.0356V25.1383C42.098 24.5059 41.6557 23.747 41.1186 23.4308L31.5775 17.913Z" fill="url(#paint3_linear_5300_1340)"/>
</g>
<defs>
<linearGradient id="paint0_linear_5300_1340" x1="13.2218" y1="4.44269" x2="34.1478" y2="40.6642" gradientUnits="userSpaceOnUse">
<stop offset="0.1" stop-color="#005BAC"/>
<stop offset="0.9" stop-color="#3EB134"/>
</linearGradient>
<linearGradient id="paint1_linear_5300_1340" x1="8.11949" y1="7.55731" x2="29.0455" y2="43.7788" gradientUnits="userSpaceOnUse">
<stop offset="0.1" stop-color="#005BAC"/>
<stop offset="0.9" stop-color="#3EB134"/>
</linearGradient>
<linearGradient id="paint2_linear_5300_1340" x1="13.2218" y1="4.44269" x2="34.1478" y2="40.6642" gradientUnits="userSpaceOnUse">
<stop stop-color="#004EA2"/>
<stop offset="0.1" stop-color="#0055A7"/>
<stop offset="0.25" stop-color="#0068B7"/>
<stop offset="0.32" stop-color="#0075C1"/>
<stop offset="0.64" stop-color="#3EB134"/>
<stop offset="0.73" stop-color="#5AB72C"/>
<stop offset="0.84" stop-color="#77BD25"/>
<stop offset="0.93" stop-color="#88C120"/>
<stop offset="1" stop-color="#8FC31F"/>
</linearGradient>
<linearGradient id="paint3_linear_5300_1340" x1="8.11949" y1="7.55731" x2="29.0455" y2="43.7788" gradientUnits="userSpaceOnUse">
<stop stop-color="#004EA2"/>
<stop offset="0.1" stop-color="#0055A7"/>
<stop offset="0.25" stop-color="#0068B7"/>
<stop offset="0.32" stop-color="#0075C1"/>
<stop offset="0.64" stop-color="#3EB134"/>
<stop offset="0.73" stop-color="#5AB72C"/>
<stop offset="0.84" stop-color="#77BD25"/>
<stop offset="0.93" stop-color="#88C120"/>
<stop offset="1" stop-color="#8FC31F"/>
</linearGradient>
<clipPath id="clip0_5300_1340">
<rect width="338" height="48" fill="white"/>
</clipPath>
</defs>
</svg>
