<svg width="539" height="40" viewBox="0 0 539 40" fill="none" xmlns="http://www.w3.org/2000/svg">
<path d="M460.93 0.0185872C461.079 0.111523 461.227 0.204459 461.358 0.334569C461.58 0.576202 461.655 0.855009 461.543 1.18958C460.856 3.34569 460.168 5.5018 459.462 7.65791C458.162 11.6913 456.861 15.7247 455.579 19.7767C455.542 19.9254 455.542 20.1113 455.579 20.26C457.549 26.3752 459.5 32.4904 461.488 38.5869C461.766 39.4605 461.19 39.9996 460.466 39.981C458.756 39.9438 457.028 39.981 455.319 39.981C454.687 39.981 454.297 39.7022 454.111 39.1074C452.532 34.219 450.953 29.3119 449.374 24.4235C449.169 23.8102 448.946 23.6429 448.296 23.6429C448.036 23.6429 447.776 23.6429 447.516 23.6429C447.181 23.6429 446.902 23.9403 446.884 24.2748C446.884 24.3864 446.884 24.4793 446.884 24.5908C446.884 29.2748 446.884 33.9587 446.884 38.6427C446.884 39.442 446.382 40.0182 445.546 39.9996C444.022 39.9624 442.48 39.9996 440.957 39.9996C440.158 39.9996 439.693 39.5535 439.693 38.7542C439.693 26.2822 439.693 13.7917 439.693 1.31969C439.693 0.743486 439.916 0.334569 440.474 0.13011C440.492 0.13011 440.511 0.0929358 440.529 0.0743486C442.369 0.0743486 444.208 0.0743486 446.048 0.0743486C446.735 0.371743 446.902 0.929358 446.884 1.63567C446.847 3.40145 446.884 5.16723 446.884 6.93301C446.884 9.85119 446.884 12.7508 446.884 15.669C446.884 16.1337 447.162 16.4125 447.627 16.431C447.85 16.431 448.073 16.431 448.296 16.431C448.909 16.4868 449.225 16.1337 449.374 15.6318C450.916 10.8363 452.458 6.04083 454 1.24534C454.167 0.724899 454.39 0.278807 454.929 0.0743486C456.954 0.0185872 458.942 0.0185872 460.93 0.0185872ZM517.748 0.0185872C517.748 0.0185872 517.617 0.0929358 517.562 0.111523C517.172 0.315982 516.93 0.613376 516.911 1.05947C516.911 1.20817 516.911 1.33828 516.911 1.48697C516.911 7.89954 516.911 14.3307 516.911 20.7433C516.911 22.0444 516.874 23.3269 516.819 24.628C516.726 26.7097 516.596 28.7915 516.094 30.8175C516.02 31.1149 515.908 31.4309 515.797 31.7097C515.462 32.5089 514.812 32.8807 513.957 32.9179C513.14 32.9364 512.322 32.955 511.505 32.9179C510.52 32.8621 509.907 32.5275 509.554 31.4123C509.275 30.5387 509.108 29.6279 508.978 28.7172C508.811 27.4718 508.736 26.2265 508.643 24.9811C508.606 24.3678 508.569 23.7544 508.569 23.1596C508.569 18.0853 508.532 13.011 508.532 7.91813C508.532 5.78061 508.513 3.64308 508.532 1.50556C508.532 0.817835 508.346 0.297395 507.677 0.0371743H502.215C501.676 0.278807 501.36 0.631963 501.36 1.28251C501.397 8.84749 501.397 16.4125 501.453 23.9774C501.453 25.4086 501.564 26.8213 501.676 28.2339C501.787 29.5536 501.955 30.8733 502.178 32.1744C502.438 33.7543 502.884 35.2784 503.683 36.691C504.909 38.8286 506.748 39.9438 509.219 39.9624C511.598 39.9624 513.976 39.9624 516.335 39.9624C517.209 39.9624 518.063 39.7951 518.862 39.4234C520.293 38.7728 521.259 37.6576 521.947 36.2821C522.894 34.4048 523.284 32.3602 523.526 30.2785C523.637 29.219 523.749 28.1595 523.805 27.1001C523.898 25.706 524.009 24.2934 524.009 22.8808C524.028 15.6876 524.028 8.49433 524.028 1.3011C524.028 1.22675 524.028 1.1524 524.028 1.07806C524.028 0.687725 523.823 0.427505 523.526 0.223046C523.414 0.148697 523.303 0.0929358 523.191 0.0371743C521.371 0.0371743 519.55 0.0371743 517.729 0.0371743L517.748 0.0185872ZM485.883 0.0185872C485.883 0.0185872 485.716 0.0743486 485.641 0.0929358C485.103 0.167284 484.545 0.204459 484.006 0.334569C481.888 0.817835 480.328 2.00741 479.361 3.97765C478.6 5.52039 478.34 7.17464 478.247 8.84749C478.21 9.66532 478.191 10.5017 478.247 11.3196C478.321 12.2861 478.414 13.2526 478.6 14.2006C479.25 17.379 480.978 19.8697 483.579 21.747C484.601 22.4719 485.66 23.1596 486.682 23.8659C487.741 24.5908 488.633 25.483 489.079 26.7283C489.543 28.0666 489.58 29.4792 489.339 30.8547C489.116 32.1744 488.336 32.7506 486.998 32.7506C484.991 32.7506 483.003 32.7506 480.997 32.7506C480.198 32.7506 479.752 33.2153 479.752 34.0145C479.752 35.5758 479.752 37.1371 479.752 38.6985C479.752 39.4791 480.216 39.9438 480.997 39.9438C483.412 39.9438 485.846 39.9438 488.261 39.9438C489.042 39.9438 489.841 39.8695 490.602 39.7208C493.036 39.2561 494.746 37.8806 495.712 35.5944C496.399 33.9587 496.604 32.2301 496.659 30.4643C496.715 29.0517 496.622 27.6391 496.399 26.2451C496.121 24.4793 495.47 22.8622 494.411 21.431C493.259 19.8697 491.773 18.6615 490.231 17.5277C489.172 16.747 488.075 16.0035 487.054 15.1671C486.143 14.4422 485.511 13.4757 485.437 12.2861C485.381 11.301 485.381 10.3159 485.493 9.34934C485.66 7.99248 486.366 7.26758 487.834 7.24899C489.859 7.2304 491.884 7.24899 493.91 7.24899C494.634 7.24899 495.099 6.78431 495.099 6.05941C495.099 4.44233 495.099 2.82525 495.099 1.20817C495.099 0.706312 494.82 0.315982 494.355 0.13011C494.3 0.111523 494.263 0.0743486 494.207 0.0557615C491.42 0.0557615 488.651 0.0557615 485.864 0.0557615L485.883 0.0185872ZM402.032 0.0185872C401.753 0.0557615 401.474 0.111523 401.177 0.148697C399.431 0.371743 397.889 0.985119 396.662 2.28622C395.64 3.38286 395.083 4.70255 394.786 6.13376C394.619 6.9516 394.544 7.78802 394.433 8.62444C394.433 8.71738 394.396 8.8289 394.358 8.92184C394.358 9.77684 394.358 10.6504 394.358 11.5055C394.377 11.5798 394.414 11.6541 394.433 11.7471C394.526 12.472 394.581 13.1969 394.73 13.9032C395.306 16.9887 396.848 19.4979 399.338 21.3938C400.453 22.2488 401.642 23.0109 402.794 23.7916C403.741 24.4421 404.596 25.2042 405.079 26.2822C405.766 27.8064 405.804 29.3863 405.488 30.9848C405.246 32.1744 404.466 32.732 403.221 32.7506C401.196 32.7506 399.171 32.7506 397.145 32.7506C396.439 32.7506 395.938 33.2524 395.938 33.9402C395.956 35.5386 395.938 37.1371 395.938 38.7356C395.938 39.5163 396.384 39.9438 397.164 39.9438C399.542 39.9438 401.939 39.9438 404.317 39.9438C405.228 39.9438 406.119 39.8695 407.011 39.665C408.944 39.2189 410.467 38.178 411.452 36.4308C412.399 34.758 412.697 32.9179 412.79 31.0406C412.864 29.4792 412.845 27.9365 412.585 26.3938C412.344 24.8882 411.898 23.4756 411.08 22.1745C410.058 20.5574 408.702 19.2563 407.179 18.1225C405.915 17.1745 404.615 16.2638 403.351 15.2972C402.534 14.6653 401.883 13.8474 401.679 12.8066C401.437 11.617 401.474 10.4088 401.66 9.20064C401.846 7.91813 402.682 7.2304 403.983 7.2304C405.989 7.2304 407.996 7.2304 410.003 7.2304C410.802 7.2304 411.266 6.78431 411.266 6.02224C411.266 4.44233 411.266 2.86242 411.266 1.28251C411.266 0.855009 411.136 0.483266 410.764 0.241633C410.634 0.148697 410.486 0.111523 410.337 0.0371743C407.55 0.0371743 404.782 0.0371743 401.995 0.0371743L402.032 0.0185872ZM425.907 0.0185872C425.907 0.0185872 425.796 0.0743486 425.721 0.0929358C425.313 0.148697 424.904 0.185872 424.495 0.26022C422.098 0.724899 420.389 2.06317 419.367 4.27505C418.661 5.83637 418.364 7.50921 418.196 9.20064C418.048 10.5761 417.936 11.9515 417.843 13.3456C417.75 14.9627 417.658 16.5612 417.639 18.1782C417.62 19.8325 417.639 21.5053 417.695 23.1596C417.732 24.4979 417.788 25.8176 417.881 27.1558C417.973 28.4569 418.141 29.758 418.252 31.0591C418.364 32.2859 418.605 33.4941 418.995 34.665C419.497 36.152 420.24 37.4717 421.522 38.4197C422.99 39.5163 424.699 39.888 426.483 39.9252C428.601 39.9624 430.719 39.9252 432.837 39.9252C433.581 39.9252 434.045 39.4419 434.045 38.717C434.045 37.1371 434.045 35.5386 434.045 33.9587C434.045 33.2153 433.581 32.7506 432.837 32.7506C431.165 32.7506 429.474 32.7506 427.802 32.7506C426.892 32.7506 426.223 32.3417 425.833 31.5238C425.703 31.2822 425.591 31.0034 425.554 30.7432C425.368 29.535 425.164 28.3268 425.052 27.1187C424.922 25.706 424.867 24.2748 424.811 22.8436C424.755 21.2265 424.737 19.6095 424.755 17.9924C424.755 16.84 424.848 15.669 424.941 14.5166C425.015 13.4571 425.09 12.3976 425.22 11.3568C425.313 10.5761 425.424 9.77685 425.628 9.01477C425.889 7.99248 426.52 7.17464 428.044 7.19323C429.642 7.21182 431.258 7.19323 432.856 7.19323C433.581 7.19323 434.045 6.72855 434.045 6.00365C434.045 4.40516 434.045 2.78807 434.045 1.18958C434.045 1.09664 434.045 0.985119 434.008 0.892184C433.915 0.408917 433.562 0.185872 433.153 0C430.738 0.0185872 428.322 0.0185872 425.907 0.0185872ZM467.006 0.0185872C466.876 0.0929358 466.727 0.167284 466.597 0.26022C466.225 0.539028 466.17 0.929358 466.17 1.35686C466.17 13.7731 466.17 26.2079 466.17 38.6241C466.17 38.7171 466.17 38.7914 466.17 38.8843C466.17 39.4791 466.634 39.9624 467.229 39.9624C468.901 39.9624 470.573 39.9624 472.245 39.9624C472.71 39.9624 473.156 39.6278 473.267 39.1817C473.323 38.9587 473.323 38.7356 473.323 38.5126C473.323 26.1707 473.323 13.8288 473.323 1.50556C473.323 1.33828 473.323 1.18958 473.304 1.02229C473.267 0.613376 473.044 0.334569 472.691 0.148697C472.617 0.111523 472.543 0.0743486 472.468 0.0371743C470.647 0.0371743 468.827 0.0371743 467.006 0.0371743V0.0185872ZM531.831 0.0185872C531.72 0.0743486 531.608 0.13011 531.515 0.185872C531.088 0.446092 530.995 0.855009 530.995 1.33828C530.995 13.7545 530.995 26.1893 530.995 38.6055C530.995 38.6985 530.995 38.7728 530.995 38.8657C531.014 39.4791 531.478 39.9438 532.091 39.9438C533.745 39.9438 535.398 39.9438 537.052 39.9438C537.535 39.9438 537.981 39.6278 538.093 39.1631C538.148 38.9587 538.148 38.7356 538.148 38.5312C538.148 26.1707 538.148 13.8103 538.148 1.46839C538.148 1.33828 538.148 1.20817 538.148 1.07806C538.148 0.631963 537.888 0.334569 537.498 0.13011C537.442 0.0929358 537.368 0.0557615 537.294 0.0371743C535.473 0.0371743 533.652 0.0371743 531.831 0.0371743V0.0185872Z" fill="#036EB8"/>
<path d="M430.162 24.5348C432.707 24.572 434.732 22.6018 434.77 20.0739C434.807 17.6204 432.8 15.5758 430.348 15.52C427.839 15.4829 425.795 17.4717 425.758 19.981C425.721 22.4345 427.709 24.4791 430.143 24.5162L430.162 24.5348Z" fill="#E60012"/>
<path d="M10.0146 24.3875C4.96083 24.3875 3.36296 22.5846 3.36296 18.6441V9.57356H0V5.14982H3.36296V1.5625H8.11942V5.13123H23.3364C23.0762 12.3245 18.7657 16.7668 12.9688 17.6776V13.3468C14.4737 12.8077 16.5919 11.5438 17.5023 9.55498H8.10084V17.7705C8.10084 19.2389 8.76972 20.001 10.6463 20.001H22.909V24.3689H9.99599L10.0146 24.3875Z" fill="#221714"/>
<path d="M40.6901 18.2346L41.3033 25.0747H36.4353L35.8408 18.2346H25.8076V13.8852H35.4506L35.0418 9.5358H26.6623V5.18641H34.6888L34.373 1.33887H39.2037L39.5196 5.18641H48.921V9.5358H39.8912L40.2999 13.8666H49.9987V18.2532H40.6901V18.2346Z" fill="#221714"/>
<path d="M74.3382 24.9258C70.2135 23.7176 66.9806 20.8738 64.9925 17.5095C61.1279 21.5058 56.1114 23.8478 51.5964 24.647V20.1675C57.4677 18.6434 63.7105 13.9966 65.5314 6.98921H52.9713V2.54688H71.2911C71.1239 6.76616 69.9534 10.3349 68.1697 13.3646C69.4517 16.6731 72.1086 18.8106 74.3382 19.9445V24.9072V24.9258Z" fill="#221714"/>
<path d="M86.8612 25.1679V13.5137C83.2381 14.8892 79.4478 15.6698 76.3264 16.1159V11.5992C87.4929 9.68476 91.9707 5.80005 93.6243 1.74805H98.7524C97.7862 5.91157 95.1479 8.86693 91.8592 11.023V25.1865H86.8612V25.1679Z" fill="#221714"/>
<path d="M104.196 20.2791C111.981 19.0895 116.737 14.4799 117.574 6.98924H101.335V2.52832H122.887V3.1417C122.887 17.5839 114.564 23.7734 104.196 24.6099V20.2791Z" fill="#221714"/>
<path d="M126.046 20.7438C129.743 19.4242 131.732 16.7662 131.732 11.9335V11.283H136.061V12.138C136.061 12.7328 136.042 13.3462 135.986 13.8852C138.16 13.0859 139.349 11.4689 139.795 9.49861H125.377V5.26074H144.849V6.28304C144.775 14.2941 139.739 17.6398 134.779 18.5877C133.069 22.2494 129.781 24.2011 126.046 24.9445V20.7253V20.7438Z" fill="#221714"/>
<path d="M168.445 24.6845C161.682 23.718 153.563 23.0675 146.893 23.0489V18.3835C153.767 18.4393 162.017 18.9969 168.445 19.889V24.7031V24.6845ZM167.461 7.78881C160.902 7.2312 154.232 6.9338 147.784 6.9338V2.34277C154.232 2.36136 161.645 2.58441 167.461 3.12343V7.78881ZM166.383 15.7441C160.307 15.0936 154.176 14.6661 148.565 14.6661V10.2423C154.102 10.2423 160.326 10.4654 166.383 11.1531V15.7441Z" fill="#221714"/>
<path d="M170.861 23.699V19.3125H179.668V7.47244H172.292V3.12305H192.451V7.47244H184.554V19.3125H193.9V23.7176H170.861V23.699Z" fill="#221714"/>
<path d="M218.574 24.9258C214.449 23.7176 211.216 20.8738 209.228 17.5095C205.364 21.5058 200.347 23.8478 195.832 24.647V20.1675C201.703 18.6434 207.946 13.9966 209.767 6.98921H197.207V2.54688H215.527C215.36 6.76616 214.189 10.3349 212.405 13.3646C213.687 16.6731 216.344 18.8106 218.574 19.9445V24.9072V24.9258Z" fill="#221714"/>
<path d="M238.473 24.4424C236.076 24.4424 235.389 24.0149 235.389 21.9145L235.928 9.4983H232.676C232.267 16.1897 230.224 21.7658 224.222 25.1115L221.38 21.5985C227.232 17.6952 228.143 14.4053 228.44 9.51689H222.42V5.22326H228.459V0.966797H232.751V5.20467H240.22L239.681 19.6469C239.681 20.1116 239.755 20.1302 240.108 20.1302H240.963C241.372 20.1302 241.427 20.0558 241.427 17.8439V14.2938L245.478 16.0967C245.478 24.2937 244.753 24.4238 241.093 24.4238H238.455L238.473 24.4424Z" fill="#221714"/>
<path d="M248.265 14.7782C248.878 12.715 248.934 11.0236 248.934 8.70016V7.12025L252.296 7.43624C252.296 14.0161 251.943 15.0384 251.386 16.6741L248.265 14.7596V14.7782ZM267.29 24.7781V14.8339L265.711 16.228C265.711 16.228 265.228 13.9975 264.578 12.0087V23.7929H260.007V14.7968L258.242 16.1722C258.242 16.1722 257.833 13.8116 257.35 12.2503C257.276 17.3804 256.403 22.0086 253.225 25.1684L249.732 21.6554C252.612 18.9231 252.817 14.9083 252.817 10.6704V1.45117H257.406V8.43994L259.022 7.71504C259.394 8.57005 259.859 10.2987 260.007 11.228V2.21325H264.578V8.42136L266.213 7.71504C266.975 9.72246 267.29 11.2838 267.29 11.2838V1.45117H271.861V24.7595H267.29V24.7781Z" fill="#221714"/>
<path d="M297.706 24.6097C296.201 22.9926 295.067 20.7993 294.213 18.7175V25.1301H289.921V18.7175C289.14 20.632 287.32 23.197 285.35 24.6097L283.474 20.2231C285.35 18.8476 287.933 16.4871 288.955 14.8328H284.774V13.067L283.492 16.7659C283.492 16.7659 282.879 14.9443 282.507 13.2157V25.1487H278.216V15.6135C278.03 16.7101 277.417 18.922 276.952 20.0186L275.373 15.1116C277.175 12.3235 277.788 10.0559 278.141 8.58753H275.912V4.55412H278.216V0.966797H282.507V4.53553H284.514V6.59871C285.796 3.94074 285.908 1.22702 285.908 1.22702L289.345 1.9705C289.345 1.9705 289.271 2.76975 289.085 3.90357H289.939V0.966797H294.231V3.92215H298.319V8.38307H294.231V10.2604H299.118V14.8328H295.198C296.127 16.4127 298.468 18.8662 299.712 19.8885L297.724 24.6097H297.706ZM284.756 10.2604H286.075L283.957 8.56894H282.693C283.604 10.5206 284.756 11.8775 284.756 11.8775V10.2604ZM289.921 8.38307H287.914C287.654 9.08939 287.32 9.72135 286.967 10.2604H289.921V8.38307Z" fill="#221714"/>
<path d="M315.264 23.067C315.264 23.067 309.356 24.2008 303.15 24.5353L302.444 20.0744C303.967 20.0744 305.565 19.9071 307.033 19.777V16.041H303.521V11.7474H314.279V16.041H310.786V19.3124C313.443 18.9592 315.245 18.6432 315.245 18.6432V23.0484L315.264 23.067ZM326.431 21.1339C325.279 23.9591 323.829 25.1859 322.38 25.1859C319.017 25.1859 315.58 18.6246 315.431 9.77714H302.685V5.48351H315.171V0.948242H319.463V5.48351H321.711C321.247 4.94448 320.392 4.01512 319.797 3.38316L322.975 1.26422C325.093 3.79208 326.542 6.04112 326.542 6.04112L324.963 7.30505V9.77714H319.667C320.076 14.8514 321.433 19.5354 322.38 19.5354C322.882 19.5354 323.476 18.5689 324.48 16.4128L326.431 21.1339Z" fill="#221714"/>
<path d="M333.677 11.6554V10.1312C332.785 10.503 331.856 10.8933 330.89 11.2093L329.31 6.78552C335.572 4.68517 338.006 2.60341 339.139 0.986328H343.431C344.471 2.3246 347.24 4.48071 353.464 6.56248L351.699 10.8003C351.086 10.5773 350.324 10.2985 349.525 9.94534V11.6554H333.677ZM349.785 25.2054C349.321 24.5548 348.875 23.9415 348.41 23.3281C345.772 23.7928 340.328 24.4247 330.592 24.4247L330.035 20.1311H333.231C334.03 19.1088 334.791 17.9192 335.349 17.1014H329.682V13.1981H353.13V17.1014H348.949C350.045 18.2538 351.829 20.2426 353.427 22.2314L349.804 25.2054H349.785ZM345.085 7.73347C343.691 6.89704 342.372 5.96769 341.48 4.96398C340.57 5.91192 339.418 6.84128 338.061 7.73347H345.066H345.085ZM340.681 17.0828C340.217 17.8635 339.492 19.0902 338.805 19.9824C341.462 19.9824 343.914 19.7965 345.438 19.685C344.769 18.9043 344.249 18.3467 344.249 18.3467L346.107 17.0828H340.681Z" fill="#221714"/>
<path d="M359.911 25.1673V16.8588C359.911 16.8588 358.704 17.751 357.514 18.2343L356.251 13.7176C360.896 11.673 362.847 8.16003 362.847 8.16003H356.976V4.12661H359.893V0.966797H364.185V4.1452H367.51V7.99274C367.51 7.99274 366.804 9.75852 365.095 11.989C365.764 12.7511 366.767 13.4574 369.201 14.5912L367.009 18.3458C365.987 17.8068 364.798 16.8216 364.185 15.948V25.1673H359.893H359.911ZM366.804 24.6097V20.316H371.988V12.1563H367.882V7.86263H371.988V0.966797H376.28V7.84404H380.07V12.1377H376.28V20.2974H380.442V24.5911H366.804V24.6097Z" fill="#221714"/>
</svg>
