<svg width="226" height="32" viewBox="0 0 226 32" fill="none" xmlns="http://www.w3.org/2000/svg">
<path d="M3.78345 25.5348C14.0774 23.9619 20.3668 17.8667 21.4723 7.96204H0V2.06348H28.4987V2.87453C28.4987 21.9711 17.4923 30.1554 3.78345 31.2613V25.5348Z" fill="#221714"/>
<path d="M32.6754 26.1487C37.5644 24.4037 40.1932 20.8892 40.1932 14.499V13.6388H45.9175V14.7694C45.9175 15.5559 45.893 16.3669 45.8193 17.0797C48.6937 16.0228 50.266 13.8846 50.8557 11.2794H31.791V5.67578H57.5381V7.02753C57.4399 17.6204 50.782 22.0443 44.2224 23.2977C41.9621 28.1395 37.6136 30.7201 32.6754 31.7032V26.1241V26.1487Z" fill="#221714"/>
<path d="M88.739 31.3593C79.7963 30.0813 69.0601 29.2211 60.2402 29.1965V23.0276C69.3303 23.1014 80.2385 23.8387 88.739 25.0184V31.3839V31.3593ZM87.4369 9.01854C78.7644 8.28122 69.9446 7.88799 61.4195 7.88799V1.81738C69.9446 1.84196 79.7471 2.13689 87.4369 2.84963V9.01854ZM86.0119 19.5376C77.9782 18.6774 69.8708 18.1122 62.4513 18.1122V12.2628C69.7726 12.2628 78.0028 12.5577 86.0119 13.467V19.5376Z" fill="#221714"/>
<path d="M91.9332 30.0597V24.2594H103.578V8.60364H93.825V2.85254H120.481V8.60364H110.04V24.2594H122.397V30.0842H91.9332V30.0597Z" fill="#221714"/>
<path d="M155.023 31.681C149.569 30.0834 145.294 26.3231 142.665 21.8746C137.555 27.1587 130.922 30.2555 124.952 31.3123V25.3892C132.715 23.3738 140.97 17.2295 143.378 7.96383H126.77V2.08984H150.994C150.773 7.6689 149.225 12.3877 146.866 16.3939C148.562 20.7686 152.075 23.595 155.023 25.0942V31.6564V31.681Z" fill="#221714"/>
<path d="M181.336 31.0412C178.166 31.0412 177.257 30.4759 177.257 27.6987L177.97 11.281H173.67C173.13 20.1288 170.427 27.502 162.492 31.926L158.733 27.2808C166.472 22.1196 167.676 17.7694 168.069 11.3056H160.109V5.62821H168.094V0H173.769V5.60363H183.645L182.932 24.7002C182.932 25.3147 183.031 25.3392 183.498 25.3392H184.628C185.168 25.3392 185.242 25.2409 185.242 22.3162V17.622L190.598 20.006C190.598 30.8446 189.64 31.0166 184.8 31.0166H181.311L181.336 31.0412Z" fill="#221714"/>
<path d="M194.283 18.2616C195.093 15.5335 195.167 13.297 195.167 10.2248V8.13574L199.614 8.55355C199.614 17.2539 199.147 18.6057 198.41 20.7685L194.283 18.237V18.2616ZM219.44 31.4842V18.3353L217.352 20.1786C217.352 20.1786 216.713 17.2294 215.853 14.5996V30.1816H209.81V18.2862L207.476 20.1049C207.476 20.1049 206.935 16.9836 206.296 14.9191C206.198 21.7024 205.043 27.8222 200.842 32.0003L196.224 27.3552C200.032 23.7423 200.302 18.4336 200.302 12.83V0.639648H206.37V9.88073L208.508 8.92221C208.999 10.0528 209.613 12.3385 209.81 13.5673V1.64732H215.853V9.85615L218.015 8.92221C219.023 11.5766 219.44 13.6411 219.44 13.6411V0.639648H225.484V31.4596H219.44V31.4842Z" fill="#221714"/>
</svg>
