<svg width="360" height="32" viewBox="0 0 360 32" fill="none" xmlns="http://www.w3.org/2000/svg">
<path d="M13.6307 30.944C6.9533 30.944 4.84207 28.5618 4.84207 23.3553V11.3707H0.398682V5.52571H4.84207V0.785877H11.1267V5.50115H31.2324C30.8887 15.0054 25.1933 20.8749 17.534 22.0783V16.3561C19.5225 15.6439 22.3211 13.9739 23.524 11.3461H11.1021V22.2011C11.1021 24.1412 11.9859 25.1481 14.4653 25.1481H30.6678V30.9194H13.6061L13.6307 30.944Z" fill="#221714"/>
<path d="M54.1614 22.815L54.9715 31.8526H48.5397L47.7541 22.815H34.4976V17.0683H47.2386L46.6985 11.3216H35.6268V5.57483H46.232L45.8147 0.491173H52.1975L52.6148 5.57483H65.0367V11.3216H53.1058L53.6459 17.0437H66.4605V22.8396H54.1614V22.815Z" fill="#221714"/>
<path d="M98.6199 31.6562C93.17 30.0599 88.8985 26.3024 86.2717 21.8572C81.1655 27.1374 74.5372 30.2318 68.5718 31.2878V25.3691C76.3293 23.3553 84.5778 17.2157 86.9836 7.95702H70.3884V2.08749H94.5939C94.3729 7.66231 92.8263 12.3776 90.4696 16.3807C92.1635 20.7521 95.674 23.5764 98.6199 25.0744V31.6316V31.6562Z" fill="#221714"/>
<path d="M115.166 31.9754V16.5771C110.379 18.3945 105.371 19.4259 101.247 20.0153V14.0476C116.001 11.518 121.917 6.38526 124.102 1.03146H130.878C129.601 6.53262 126.115 10.4375 121.77 13.2863V32H115.166V31.9754Z" fill="#221714"/>
<path d="M138.07 25.5165C148.356 23.9447 154.641 17.8542 155.745 7.95702H134.29V2.06293H162.767V2.87336C162.767 21.9555 151.769 30.1335 138.07 31.2387V25.5165Z" fill="#221714"/>
<path d="M166.94 26.1305C171.825 24.3868 174.452 20.8749 174.452 14.4896V13.6301H180.172V14.7598C180.172 15.5457 180.148 16.3561 180.074 17.0683C182.946 16.0123 184.517 13.8757 185.107 11.2724H166.056V5.67306H191.784V7.02379C191.686 17.6086 185.033 22.0292 178.478 23.2817C176.22 28.1197 171.875 30.6984 166.94 31.6807V26.1059V26.1305Z" fill="#221714"/>
<path d="M222.961 31.3369C214.025 30.0599 203.297 29.2003 194.484 29.1757V23.0115C203.567 23.0852 214.467 23.8219 222.961 25.0008V31.3615V31.3369ZM221.66 9.01304C212.994 8.27628 204.181 7.88334 195.662 7.88334V1.81734C204.181 1.8419 213.976 2.1366 221.66 2.84881V9.01304ZM220.236 19.5242C212.208 18.6646 204.107 18.0998 196.693 18.0998V12.2548C204.009 12.2548 212.233 12.5495 220.236 13.4582V19.5242Z" fill="#221714"/>
<path d="M226.153 30.0353V24.2394H237.789V8.59555H228.043V2.84881H254.679V8.59555H244.245V24.2394H256.594V30.0599H226.153V30.0353Z" fill="#221714"/>
<path d="M289.194 31.6562C283.744 30.0599 279.473 26.3024 276.846 21.8572C271.74 27.1374 265.112 30.2318 259.146 31.2878V25.3691C266.904 23.3553 275.152 17.2157 277.558 7.95702H260.963V2.08749H285.168C284.947 7.66231 283.401 12.3776 281.044 16.3807C282.738 20.7521 286.248 23.5764 289.194 25.0744V31.6316V31.6562Z" fill="#221714"/>
<path d="M315.487 31.0177C312.32 31.0177 311.412 30.4528 311.412 27.6777L312.124 11.2724H307.827C307.287 20.1136 304.587 27.4812 296.658 31.9018L292.902 27.2602C300.635 22.1028 301.837 17.7559 302.23 11.297H294.276V5.62394H302.255V0H307.926V5.59939H317.794L317.083 24.6815C317.083 25.2955 317.181 25.32 317.647 25.32H318.776C319.316 25.32 319.39 25.2218 319.39 22.2993V17.6086L324.742 19.9908C324.742 30.8212 323.784 30.9931 318.948 30.9931H315.462L315.487 31.0177Z" fill="#221714"/>
<path d="M328.424 18.2471C329.234 15.5211 329.308 13.2863 329.308 10.2164V8.12893L333.751 8.54643C333.751 17.2402 333.285 18.5909 332.548 20.7521L328.424 18.2226V18.2471ZM353.562 31.4597V18.3208L351.476 20.1627C351.476 20.1627 350.837 17.2157 349.978 14.5879V30.1581H343.939V18.2717L341.607 20.089C341.607 20.089 341.067 16.9701 340.429 14.9071C340.33 21.6853 339.177 27.8005 334.979 31.9754L330.363 27.3339C334.169 23.7237 334.439 18.419 334.439 12.8196V0.638527H340.502V9.8726L342.638 8.91481C343.129 10.0445 343.743 12.3285 343.939 13.5564V1.64543H349.978V9.84804L352.139 8.91481C353.145 11.5672 353.562 13.6301 353.562 13.6301V0.638527H359.601V31.4352H353.562V31.4597Z" fill="#221714"/>
</svg>
