<svg width="272" height="59" viewBox="0 0 272 59" fill="none" xmlns="http://www.w3.org/2000/svg">
<rect width="272" height="59" fill="#A89B89"/>
<path d="M44.7796 26.0775L42.7998 25.0163V29.4061L44.7796 30.4681V37.369H48.6157V19.6953H44.7796V26.0775Z" fill="white"/>
<path d="M51.358 19.6953V26.053L49.4258 25.0163V29.4061L51.358 30.4466V39.1318H55.183V19.6953H51.358Z" fill="white"/>
<path d="M38.4432 25.9393L36.2881 24.7851V29.1757L38.4432 30.3298V32.5742C38.3741 33.2365 38.0657 33.8508 37.576 34.302L36.7043 34.9537V39.7166L39.7066 37.4693C40.3927 36.9112 40.9528 36.2139 41.3499 35.4236C41.747 34.6332 41.9721 33.7677 42.0104 32.8841V19.6982H38.4432V25.9393Z" fill="white"/>
<path d="M32.5107 34.3517V25.8924H32.5174V22.0963H24.032V19.2314H20.0695V22.0963H16.2155V25.8924H20.0695V31.7165C20.0263 32.1393 19.8899 32.5472 19.6702 32.911C19.4505 33.2748 19.1528 33.5853 18.7987 33.8203L16 35.2903V39.7678L20.6418 37.3288C21.6361 36.7572 22.4688 35.9422 23.0618 34.9605C23.6549 33.9788 23.9887 32.8626 24.032 31.7165V25.8924H28.5214V34.3517C28.4935 35.5483 28.9409 36.7071 29.7656 37.5745C30.5903 38.4419 31.7252 38.947 32.9217 38.9793H35.3273V34.9864H32.9217C32.7582 34.9864 32.5107 34.7352 32.5107 34.3517Z" fill="white"/>
<path d="M66.6378 19.6514H60.8249V21.9552H58.0752V26.5471H60.8249V30.5475C60.8249 37.441 63.6325 38.2622 69.1534 38.2622H76.7901V33.6777H69.1638C66.3666 33.6777 66.6371 31.7158 66.6371 29.9032V26.5471H72.5823C72.5823 28.7446 71.3383 28.8881 68.6585 28.8881V32.6492H71.6571C72.8008 32.6492 77.1862 31.1569 77.1862 27.5125V21.9522H66.6378V19.6514Z" fill="white"/>
<path d="M91.5998 19.6514H86.0737V22.2688H79.4841V26.9432H86.0737V30.1982H79.4841V34.7181H86.0737V38.6955H91.5998V34.7181H97.6521V30.1982H91.5998V26.9432H97.6521V22.2688H91.5998V19.6514Z" fill="white"/>
<path d="M113.13 31.2192C114.542 28.4287 114.802 25.0369 115.063 20.8604H100.381V25.6232H109.097C109.097 31.3559 103.9 32.95 99.5908 33.2733V38.6983C101.574 38.5586 106.009 37.9708 109.639 35.071C113.711 38.5586 116.891 38.6983 116.891 38.6983V33.2733C116.158 33.2013 115.447 32.9823 114.801 32.6293C114.155 32.2764 113.587 31.7968 113.13 31.2192Z" fill="white"/>
<path d="M125.269 23.6469C123.367 24.3619 116.975 26.3446 116.975 26.3446V31.3453L123.143 29.4644V38.6944H128.665V27.7559C128.705 27.738 128.747 27.718 128.806 27.6979C130.867 26.9986 134.333 25.3287 134.333 20.6572H128.767C128.764 21.9132 127.187 22.9305 125.269 23.6469Z" fill="white"/>
<path d="M168.39 20.6572C168.39 21.9838 166.818 22.9305 164.906 23.6469C162.993 24.3633 156.605 26.3446 156.605 26.3446V31.3453L162.767 29.4644V38.6944H168.288V27.7559C168.334 27.738 168.384 27.718 168.436 27.6979C170.492 26.9986 173.96 25.3287 173.96 20.6572H168.39Z" fill="white"/>
<path d="M152.138 27.65V20.6436H147.153V28.8926C147.153 36.7321 151.922 38.6896 156.527 38.6896V33.2646C153.958 33.2727 152.138 31.1391 152.138 27.65Z" fill="white"/>
<path d="M139.303 27.65C139.303 31.1429 137.482 33.2727 134.918 33.2727V38.6978C139.526 38.6978 144.289 36.7403 144.289 28.9008V20.6436H139.305L139.303 27.65Z" fill="white"/>
<path d="M185.984 33.7383H178.246C178.246 28.8854 183.773 25.7501 185.295 25.7501V20.3027C183.188 20.3027 172.022 24.4555 172.022 38.6944H190.484V28.4596H185.984V33.7383Z" fill="white"/>
<path d="M213.017 36.5904C205.132 30.8399 206.634 31.8743 205.132 30.8399V39.5823H201.307V30.9981C200.85 31.5273 198.811 34.624 197.317 35.4972C195.982 36.2412 194.457 36.5739 192.933 36.4537V32.4317C193.536 32.4674 194.141 32.4133 194.728 32.2712C195.431 32.0658 196.062 31.6696 196.553 31.1267C198.239 29.549 202.288 23.6654 202.288 23.6654H193.192V20.2246H212.97V23.6654H205.951L206.43 23.9842L205.133 25.8169V28.2871L205.951 27.0498L213.015 32.1775" fill="white"/>
<path d="M234.307 36.2577C234.316 36.6706 234.242 37.0811 234.09 37.4652C233.938 37.8493 233.712 38.1992 233.423 38.4946C232.812 39.0056 232.03 39.2668 231.234 39.2259H229.385L228.88 36.2532H230.326C230.516 36.2304 230.692 36.1409 230.823 36.0007C230.953 35.8604 231.03 35.6784 231.039 35.487V27.0113H230.401V30.1623C230.373 31.4334 230.216 32.6984 229.931 33.9376C229.493 35.9907 228.537 37.8975 227.154 39.4763L225.177 37.8101V38.8372C222.085 38.994 218.902 39.1018 215.022 39.1553V36.4487L218.821 36.419V35.7776H215.236V33.6046H218.821V33.0346H215.236V26.2674H218.821V25.7175H215.022V23.5416H218.821V22.947L215.031 23.1061V20.3861C218.341 20.2679 222.042 20.0064 225.546 19.6846V22.4342C224.227 22.5918 223.391 22.6624 221.593 22.8326V23.5416H225.705V24.0365H227.139V20.158H230.401V24.038H234.304M217.902 29.0089H218.818V27.7902H217.902V29.0089ZM217.902 31.5126H218.818V30.2961H217.902V31.5126ZM227.135 29.8457V27.0113H225.386V25.7175H221.589V26.2674H225.142V31.4406L223.55 33.0346H221.589V33.6046H225.174V35.7776H221.589V36.3721L225.174 36.2926V36.5312C225.894 35.5902 226.413 34.5111 226.698 33.3609C227.004 32.2147 227.152 31.032 227.138 29.8457H227.135ZM221.589 29.0089H222.503V27.7902H221.589V29.0089ZM221.589 31.5126H222.503V30.2961H221.589V31.5126Z" fill="white"/>
<path d="M236.033 35.681L236.041 35.5361C236.371 35.3585 237.258 34.7186 237.255 34.2616C237.249 33.4077 237.255 32.8496 237.255 30.959V25.0004H241.142L240.821 23.9131H237.268V20.8342H244.584V19.6846H247.939V20.8342H255.527V23.9131H251.878L251.56 25.0019H256V28.0748H249.973V29.0238H255.049V31.7906H249.973V32.7002H255.049V35.4655H249.973V36.3736H256V39.4592H239.536V37.4824C238.451 38.3634 237.277 39.1283 236.033 39.7646V35.681ZM246.628 36.3751V35.467H241.956V33.5846L241.22 34.2393L240.725 32.9648C240.719 33.6879 240.757 34.4897 240.725 35.3771C240.727 35.7256 240.641 36.069 240.474 36.3751H246.628ZM246.644 32.7017V31.7906H243.582L242.994 32.7002L246.644 32.7017ZM240.725 30.4432C241.248 29.7565 241.649 28.9847 241.91 28.1618H240.725V30.4432ZM246.644 29.0268V28.0748H244.966L244.706 29.0238L246.644 29.0268ZM248.073 25.0004L248.39 23.9116H244.266L244.663 25.0004H248.073Z" fill="white"/>
</svg>
