<svg width="54" height="42" viewBox="0 0 54 42" fill="none" xmlns="http://www.w3.org/2000/svg">
<path d="M0 0V32.3726H53.4544V0H0ZM18.7161 31.295H12.087V8.29225C12.087 5.1768 14.2186 0.890129 19.4891 0.890129H27.2894V6.93363H21.2459C20.0747 6.93363 18.7161 7.70664 18.7161 9.06525V13.0708H36.1672V19.1143H18.7161V31.295ZM41.1801 31.3185H37.9241C32.6536 31.3185 30.522 27.0318 30.522 23.9163V20.5666H36.1672V23.6821C36.1672 24.4551 36.7294 25.275 37.9006 25.275H41.1566V31.3185H41.1801ZM41.1801 6.93363H37.9241C36.7294 6.93363 36.1907 7.75349 36.1907 8.54992V11.6654H30.5454V8.29225C30.5454 5.1768 32.7004 0.890129 37.9475 0.890129H41.2035V6.93363H41.1801Z" fill="white"/>
<path d="M0.749512 35.8629H6.34794C6.04342 37.7134 5.38754 39.7279 1.38197 40.4306L2.01443 41.7892C4.28659 41.3442 5.7389 40.3603 6.58218 39.2594C7.35518 38.2756 7.94079 36.8935 8.03449 34.434H0.749512V35.8629Z" fill="white"/>
<path d="M11.0797 34.1527H9.55713V39.1187H11.0797V34.1527Z" fill="white"/>
<path d="M13.9141 37.9475C13.9141 38.7908 13.5627 39.4233 13.0942 39.7278C12.2275 40.29 10.6347 40.4071 10.0256 40.4539L10.5644 41.836C12.7194 41.5783 15.4367 41.1801 15.4367 37.7367V34.0122H13.9141V37.9709V37.9475Z" fill="white"/>
<path d="M24.947 37.0575H16.9827V38.5567H24.947V37.0575Z" fill="white"/>
<path d="M26.2822 35.9801H31.5058V39.7982H26.1885V41.2271H33.0284V34.5746H26.2822V35.9801Z" fill="white"/>
<path d="M42.6323 37.0575H34.668V38.5567H42.6323V37.0575Z" fill="white"/>
<path d="M50.1046 38.7439C49.5893 39.6341 49.0271 39.8215 48.7226 39.9152V34.0122H47.2937V41.7188C47.8559 41.7188 49.2848 41.6251 50.5263 40.4773C51.3695 39.6575 51.838 38.58 52.0723 37.4322L50.7137 36.7763C50.6668 37.1745 50.5263 37.9709 50.1046 38.7205V38.7439Z" fill="white"/>
<path d="M44.8108 36.5654C44.8108 37.5258 44.6702 38.4159 44.6 38.7907C44.3657 39.9619 43.827 40.5241 43.499 40.8286L44.6234 41.9999C45.373 41.3206 45.7712 40.3836 45.982 39.3998C46.1694 38.4159 46.2631 37.4321 46.2631 36.4248V34.3167H44.8108V36.5888V36.5654Z" fill="white"/>
</svg>
