<svg width="71" height="56" viewBox="0 0 71 56" fill="none" xmlns="http://www.w3.org/2000/svg">
<rect width="71" height="56" fill="white"/>
<path d="M7.5 6V39.9132H63.5V6H7.5ZM27.1074 38.7844H20.1626V14.6869C20.1626 11.4232 22.3957 6.93249 27.9172 6.93249H36.089V13.2636H29.7577C28.5307 13.2636 27.1074 14.0734 27.1074 15.4967V19.6929H45.3896V26.024H27.1074V38.7844ZM50.6411 38.809H47.2301C41.7086 38.809 39.4755 34.3183 39.4755 31.0546V27.5455H45.3896V30.8092C45.3896 31.619 45.9785 32.4778 47.2055 32.4778H50.6166V38.809H50.6411ZM50.6411 13.2636H47.2301C45.9785 13.2636 45.4141 14.1225 45.4141 14.9568V18.2205H39.5V14.6869C39.5 11.4232 41.7577 6.93249 47.2546 6.93249H50.6656V13.2636H50.6411Z" fill="#0E0D6A"/>
<path d="M8.2854 43.5701H14.1504C13.8314 45.5087 13.1443 47.6191 8.94798 48.3553L9.61055 49.7786C11.9909 49.3123 13.5124 48.2817 14.3958 47.1283C15.2056 46.0977 15.8191 44.6499 15.9173 42.0732H8.2854V43.5701Z" fill="#0E0D6A"/>
<path d="M19.1073 41.7793H17.5122V46.9816H19.1073V41.7793Z" fill="#0E0D6A"/>
<path d="M22.0765 45.7525C22.0765 46.6359 21.7085 47.2984 21.2177 47.6175C20.3097 48.2064 18.641 48.3291 18.0029 48.3782L18.5673 49.826C20.825 49.5561 23.6716 49.1389 23.6716 45.5316V41.6299H22.0765V45.777V45.7525Z" fill="#0E0D6A"/>
<path d="M33.6351 44.8232H25.2915V46.3938H33.6351V44.8232Z" fill="#0E0D6A"/>
<path d="M35.0337 43.6921H40.5061V47.692H34.9355V49.1889H42.1012V42.2197H35.0337V43.6921Z" fill="#0E0D6A"/>
<path d="M52.1624 44.8232H43.8188V46.3938H52.1624V44.8232Z" fill="#0E0D6A"/>
<path d="M59.9907 46.5868C59.4508 47.5193 58.8619 47.7156 58.5428 47.8138V41.6299H57.0459V49.7033C57.6349 49.7033 59.1318 49.6051 60.4324 48.4027C61.3158 47.5438 61.8066 46.415 62.052 45.2126L60.6287 44.5255C60.5796 44.9427 60.4324 45.777 59.9907 46.5623V46.5868Z" fill="#0E0D6A"/>
<path d="M54.4448 44.3069C54.4448 45.313 54.2976 46.2455 54.2239 46.6382C53.9785 47.8651 53.4141 48.4541 53.0706 48.7731L54.2485 50C55.0337 49.2884 55.4509 48.3068 55.6718 47.2762C55.8681 46.2455 55.9663 45.2149 55.9663 44.1597V41.9512H54.4448V44.3315V44.3069Z" fill="#0E0D6A"/>
</svg>
